{
.appVersion = "3151";
copyright = "Copyright 2023 The LilGrotesk Project Authors (https://github.com//noirblancrouge)";
customParameters = (
{
name = blueScale;
value = 0.037;
},
{
name = fsType;
value = (
);
},
{
name = "Use Typo Metrics";
value = 1;
},
{
name = license;
value = "This Font Software is licensed under the SIL Open Font License, Version 1.1. This license is available with a FAQ at: https://scripts.sil.org/OFL";
},
{
name = licenseURL;
value = "https://scripts.sil.org/OFL";
},
{
name = Axes;
value = (
{
Name = Weight;
Tag = wght;
}
);
}
);
date = "2023-07-27 10:45:36 +0000";
designer = "Bastien Sozeau";
designerURL = "https://noirblancrouge.com";
familyName = LilGrotesk;
featurePrefixes = (
{
automatic = 1;
code = "languagesystem DFLT dflt;\012\012languagesystem latn dflt;\012languagesystem latn AZE;\012languagesystem latn CRT;\012languagesystem latn KAZ;\012languagesystem latn TAT;\012languagesystem latn TRK;\012languagesystem latn ROM;\012languagesystem latn MOL;\012languagesystem latn CAT;\012languagesystem latn NLD;\012";
name = Languagesystems;
}
);
features = (
{
automatic = 1;
code = "feature locl;\012feature subs;\012feature sinf;\012feature sups;\012feature numr;\012feature dnom;\012feature frac;\012feature ordn;\012feature zero;\012feature ss01;\012";
name = aalt;
},
{
automatic = 1;
code = "lookup ccmp_Other_1 {\012	@CombiningTopAccents = [acutecomb brevecomb caroncomb circumflexcomb commaturnedabovecomb dieresiscomb dotaccentcomb gravecomb hungarumlautcomb macroncomb ringcomb tildecomb];\012	@CombiningNonTopAccents = [brevebelowcomb cedillacomb dotbelowcomb macronbelowcomb ogonekcomb];\012	sub [j]' @CombiningTopAccents by [jdotless];\012	sub [j]' @CombiningNonTopAccents @CombiningTopAccents by [jdotless];\012} ccmp_Other_1;\012\012lookup ccmp_latn_1 {\012	sub fi by f i;\012} ccmp_latn_1;\012\012script latn;\012lookup ccmp_latn_1;\012";
name = ccmp;
},
{
automatic = 1;

glyphs = (
{
glyphname = A;
lastChange = "2023-07-27 12:03:26 +0000";
layers = (
{
anchors = (
{
name = bottom;
position = "{323, 0}";
},
{
name = ogonek;
position = "{557, -6}";
},
{
name = top;
position = "{323, 700}";
}
);
hints = (
{
horizontal = 1;
place = "{223, 64}";
type = Stem;
},
{
place = "{11, 630}";
type = Stem;
}
);
layerId = "1041D826-7B5A-4F1A-81FD-3B5FB25AF0FC";
paths = (
{
closed = 1;
nodes = (
"474 257 LINE",
"166 257 LINE",
"141 193 LINE",
"499 193 LINE"
);
},
{
closed = 1;
nodes = (
"631 0 LINE",
"357 700 LINE",
"289 700 LINE",
"15 0 LINE",
"89 0 LINE",
"330 617 LINE",
"316 617 LINE",
"557 0 LINE"
);
}
);
width = 646;
},
{
anchors = (
{
name = bottom;
position = "{353, 0}";
},
{
name = ogonek;
position = "{544, -6}";
},
{
name = top;
position = "{353, 700}";
}
);
hints = (
{
horizontal = 1;
place = "{199, 132}";
type = Stem;
},
{
place = "{17, 677}";
type = Stem;
}
);
layerId = "3B5F2A21-9AC0-43BD-916B-7DC2040966BF";
paths = (
{
closed = 1;
nodes = (
"472 260 LINE",
"226 260 LINE",
"174 128 LINE",
"523 128 LINE"
);
},
{
closed = 1;
nodes = (
"694 0 LINE",
"420 700 LINE",
"289 700 LINE",
"15 0 LINE",
"167 0 LINE",
"371 522 LINE",
"339 522 LINE",
"542 0 LINE"
);
}
);
width = 707;
}
);
leftKerningGroup = A;
note = A;
rightKerningGroup = A;
unicode = 0041;
},
{
glyphname = AE;
lastChange = "2023-07-27 12:03:26 +0000";
layers = (
{
anchors = (
{
name = bottom;
position = "{551, 0}";
},
{
name = top;
position = "{777, 700}";
}
);
hints = (
{
horizontal = 1;
place = "{0, 64}";
type = Stem;
},
{
horizontal = 1;
place = "{223, 64}";
type = Stem;
},
{
horizontal = 1;
place = "{322, 64}";
type = Stem;
},
{
horizontal = 1;
place = "{636, 64}";
type = Stem;
},
{
place = "{574, 70}";
type = Stem;
}
);
layerId = "1041D826-7B5A-4F1A-81FD-3B5FB25AF0FC";
paths = (
{
closed = 1;
nodes = (
"118 0 LINE",
"291 223 LINE",
"574 223 LINE",
"574 0 LINE",
"1027 0 LINE",
"1027 64 LINE",
"644 64 LINE",
"644 322 LINE",
"952 322 LINE",
"952 386 LINE",
"644 386 LINE",
"644 636 LINE",
"1027 636 LINE",
"1027 700 LINE",
"581 700 LINE",
"30 0 LINE"
);
},
{
closed = 1;
nodes = (
"574 583 LINE",
"574 287 LINE",
"342 287 LINE"
);
}
);
width = 1102;
},
{
anchors = (
{
name = bottom;
position = "{551, 0}";
},
{
name = top;
position = "{777, 700}";
}
);
hints = (
{
horizontal = 1;
place = "{0, 132}";
type = Stem;
},
{
horizontal = 1;
place = "{200, 132}";
type = Stem;
},
{
horizontal = 1;
place = "{568, 132}";
type = Stem;
},
{
place = "{558, 143}";
type = Stem;
},
{
horizontal = 1;
place = "{287, 132}";
type = Stem;
}
);
layerId = "3B5F2A21-9AC0-43BD-916B-7DC2040966BF";
paths = (
{
closed = 1;
nodes = (
"192 1 LINE",
"347 200 LINE",
"558 200 LINE",
"558 0 LINE",
"1043 0 LINE",
"1043 132 LINE",
"701 132 LINE",
"701 287 LINE",
"976 287 LINE",
"976 419 LINE",
"701 419 LINE",
"701 568 LINE",
"1043 568 LINE",
"1043 700 LINE",
"569 700 LINE",
"13 1 LINE"
);
},
{
closed = 1;
nodes = (
"558 473 LINE",
"558 332 LINE",
"450 332 LINE"
);
}
);
width = 1102;
}
);
leftKerningGroup = AE;
note = AE;
rightKerningGroup = E;
unicode = 00C6;
},
{
glyphname = B;
lastChange = "2023-07-27 12:03:26 +0000";
layers = (
{
anchors = (
{
name = bottom;
position = "{297, 0}";
},
{
name = top;
position = "{297, 700}";
}
);
hints = (
{
horizontal = 1;
place = "{0, 64}";
type = Stem;
},
{
horizontal = 1;
place = "{372, 64}";
type = Stem;
},
{
horizontal = 1;
place = "{636, 64}";
type = Stem;
},
{
place = "{86, 70}";
type = Stem;
},
{
place = "{496, 70}";
type = Stem;
},
{
place = "{409, 70}";
type = Stem;
}
);
layerId = "1041D826-7B5A-4F1A-81FD-3B5FB25AF0FC";
paths = (
{
closed = 1;
nodes = (
"560 353 OFFCURVE",
"456 411 OFFCURVE",
"369 411 CURVE SMOOTH",
"149 411 LINE",
"149 395 LINE",
"309 395 LINE SMOOTH",
"441 395 OFFCURVE",
"473 457 OFFCURVE",
"473 536 CURVE SMOOTH",
"473 627 OFFCURVE",
"399 700 OFFCURVE",
"309 700 CURVE SMOOTH",
"80 700 LINE",
"80 0 LINE",
"330 0 LINE SMOOTH",
"465 0 OFFCURVE",
"560 90 OFFCURVE",
"560 218 CURVE SMOOTH"
);
},
{
closed = 1;
nodes = (
"150 372 LINE",
"333 372 LINE SMOOTH",
"445 372 OFFCURVE",
"490 294 OFFCURVE",
"490 218 CURVE SMOOTH",
"490 130 OFFCURVE",
"437 64 OFFCURVE",
"310 64 CURVE SMOOTH",
"150 64 LINE"
);
},
{
closed = 1;
nodes = (
"150 636 LINE",
"309 636 LINE SMOOTH",
"359 636 OFFCURVE",
"403 592 OFFCURVE",
"403 536 CURVE SMOOTH",
"403 481 OFFCURVE",
"384 436 OFFCURVE",
"311 436 CURVE SMOOTH",
"150 436 LINE"
);
}
);
width = 590;
},
{
anchors = (
{
name = bottom;
position = "{312, 0}";
},
{
name = top;
position = "{312, 700}";
}
);
hints = (
{
horizontal = 1;
place = "{0, 132}";
type = Stem;
},
{
horizontal = 1;
place = "{332, 133}";
type = Stem;
},
{
horizontal = 1;
place = "{568, 132}";
type = Stem;
},
{
place = "{71, 143}";
type = Stem;
},
{
place = "{437, 143}";
type = Stem;
},
{
place = "{359, 143}";
type = Stem;
}
);
layerId = "3B5F2A21-9AC0-43BD-916B-7DC2040966BF";
paths = (
{
closed = 1;
nodes = (
"589 365 OFFCURVE",
"456 411 OFFCURVE",
"392 411 CURVE SMOOTH",
"222 411 LINE",
"222 385 LINE",
"352 385 LINE SMOOTH",
"457 385 OFFCURVE",
"511 427 OFFCURVE",
"511 516 CURVE SMOOTH",
"511 617 OFFCURVE",
"428 700 OFFCURVE",
"325 700 CURVE SMOOTH",
"80 700 LINE",
"80 0 LINE",
"349 0 LINE SMOOTH",
"486 0 OFFCURVE",
"589 105 OFFCURVE",
"589 232 CURVE SMOOTH"
);
},
{
closed = 1;
nodes = (
"223 332 LINE",
"320 332 LINE SMOOTH",
"398 332 OFFCURVE",
"446 289 OFFCURVE",
"446 232 CURVE SMOOTH",
"446 164 OFFCURVE",
"398 132 OFFCURVE",
"320 132 CURVE SMOOTH",
"223 132 LINE"
);
},
{
closed = 1;
nodes = (
"223 568 LINE",
"315 568 LINE SMOOTH",
"347 568 OFFCURVE",
"368 547 OFFCURVE",
"368 516 CURVE SMOOTH",
"368 486 OFFCURVE",
"348 465 OFFCURVE",
"316 465 CURVE SMOOTH",
"223 465 LINE"
);
}
);
width = 619;
}
);
leftKerningGroup = H;
note = B;
rightKerningGroup = B;
unicode = 0042;
},
{
glyphname = C;
lastChange = "2023-07-27 12:03:26 +0000";
layers = (
{
anchors = (
{
name = bottom;
position = "{378, -2}";
},
{
name = top;
position = "{337, 700}";
}
);
hints = (
{
horizontal = 1;
place = "{-2, 64}";
type = Stem;
},
{
horizontal = 1;
place = "{637, 64}";
type = Stem;
},
{
place = "{36, 70}";
type = Stem;
}
);
layerId = "1041D826-7B5A-4F1A-81FD-3B5FB25AF0FC";
paths = (
{
closed = 1;
nodes = (
"486 -2 OFFCURVE",
"582 53 OFFCURVE",
"643 138 CURVE",
"586 176 LINE",
"534 104 OFFCURVE",
"462 62 OFFCURVE",
"378 62 CURVE SMOOTH",
"236 62 OFFCURVE",
"115 189 OFFCURVE",
"115 350 CURVE SMOOTH",
"115 497 OFFCURVE",
"223 637 OFFCURVE",
"378 637 CURVE SMOOTH",
"456 637 OFFCURVE",
"524 601 OFFCURVE",
"576 537 CURVE",
"630 578 LINE",
"569 654 OFFCURVE",
"479 701 OFFCURVE",
"378 701 CURVE SMOOTH",
"176 701 OFFCURVE",
"45 527 OFFCURVE",
"45 350 CURVE SMOOTH",
"45 156 OFFCURVE",
"194 -2 OFFCURVE",
"378 -2 CURVE SMOOTH"
);
}
);
width = 673;
},
{
anchors = (
{
name = bottom;
position = "{376, -2}";
},
{
name = top;
position = "{354, 700}";
}
);
hints = (
{
horizontal = 1;
place = "{-2, 132}";
type = Stem;
},
{
horizontal = 1;
place = "{569, 132}";
type = Stem;
},
{
place = "{38, 143}";
type = Stem;
}
);
layerId = "3B5F2A21-9AC0-43BD-916B-7DC2040966BF";
paths = (
{
closed = 1;
nodes = (
"505 -2 OFFCURVE",
"620 74 OFFCURVE",
"672 172 CURVE",
"556 248 LINE",
"512 170 OFFCURVE",
"455 130 OFFCURVE",
"382 130 CURVE SMOOTH",
"279 130 OFFCURVE",
"188 226 OFFCURVE",
"188 350 CURVE SMOOTH",
"188 464 OFFCURVE",
"270 569 OFFCURVE",
"382 569 CURVE SMOOTH",
"451 569 OFFCURVE",
"505 534 OFFCURVE",
"550 463 CURVE",
"661 546 LINE",
"608 634 OFFCURVE",
"497 701 OFFCURVE",
"382 701 CURVE SMOOTH",
"176 701 OFFCURVE",
"45 525 OFFCURVE",
"45 350 CURVE SMOOTH",
"45 157 OFFCURVE",
"195 -2 OFFCURVE",
"382 -2 CURVE SMOOTH"
);
}
);
width = 702;
}
);
leftKerningGroup = C;
note = C;
rightKerningGroup = C;
unicode = 0043;
},
{
glyphname = D;
lastChange = "2023-07-27 12:03:26 +0000";
layers = (
{
anchors = (
{
name = bottom;
position = "{314, 0}";
},
{
name = top;
position = "{314, 700}";
}
);
hints = (
{
horizontal = 1;
place = "{0, 64}";
type = Stem;
},
{
horizontal = 1;
place = "{636, 64}";
type = Stem;
},
{
place = "{86, 70}";
type = Stem;
},
{
place = "{509, 70}";
type = Stem;
}
);
layerId = "1041D826-7B5A-4F1A-81FD-3B5FB25AF0FC";
paths = (
{
closed = 1;
nodes = (
"242 0 LINE SMOOTH",
"479 0 OFFCURVE",
"593 149 OFFCURVE",
"593 350 CURVE SMOOTH",
"593 553 OFFCURVE",
"486 700 OFFCURVE",
"237 700 CURVE SMOOTH",
"80 700 LINE",
"80 0 LINE"
);
},
{
closed = 1;
nodes = (
"150 636 LINE",
"237 636 LINE SMOOTH",
"441 636 OFFCURVE",
"523 526 OFFCURVE",
"523 350 CURVE SMOOTH",
"523 177 OFFCURVE",
"435 64 OFFCURVE",
"242 64 CURVE SMOOTH",
"150 64 LINE"
);
}
);
width = 638;
},
{
anchors = (
{
name = bottom;
position = "{333, 0}";
},
{
name = top;
position = "{333, 700}";
}
);
hints = (
{
horizontal = 1;
place = "{0, 132}";
type = Stem;
},
{
horizontal = 1;
place = "{568, 132}";
type = Stem;
},
{
place = "{102, 143}";
type = Stem;
},
{
place = "{480, 143}";
type = Stem;
}
);
layerId = "3B5F2A21-9AC0-43BD-916B-7DC2040966BF";
paths = (
{
closed = 1;
nodes = (
"277 0 LINE SMOOTH",
"514 0 OFFCURVE",
"631 153 OFFCURVE",
"631 350 CURVE SMOOTH",
"631 548 OFFCURVE",
"522 700 OFFCURVE",
"272 700 CURVE SMOOTH",
"80 700 LINE",
"80 0 LINE"
);
},
{
closed = 1;
nodes = (
"223 568 LINE",
"272 568 LINE SMOOTH",
"428 568 OFFCURVE",
"488 490 OFFCURVE",
"488 350 CURVE SMOOTH",
"488 213 OFFCURVE",
"423 132 OFFCURVE",
"277 132 CURVE SMOOTH",
"223 132 LINE"
);
}
);
width = 676;
}
);
leftKerningGroup = H;
note = D;
rightKerningGroup = D;
unicode = 0044;
},
{
glyphname = Eth;
lastChange = "2023-07-27 12:03:26 +0000";
layers = (
{
hints = (
{
horizontal = 1;
place = "{0, 64}";
type = Stem;
},
{
horizontal = 1;
place = "{295, 62}";
type = Stem;
},
{
horizontal = 1;
place = "{636, 64}";
type = Stem;
},
{
place = "{176, 70}";
type = Stem;
},
{
place = "{599, 70}";
type = Stem;
}
);
layerId = "1041D826-7B5A-4F1A-81FD-3B5FB25AF0FC";
paths = (
{
closed = 1;
nodes = (
"318 0 LINE SMOOTH",
"555 0 OFFCURVE",
"669 149 OFFCURVE",
"669 350 CURVE SMOOTH",
"669 553 OFFCURVE",
"562 700 OFFCURVE",
"313 700 CURVE SMOOTH",
"176 700 LINE",
"176 357 LINE",
"20 357 LINE",
"20 295 LINE",
"176 295 LINE",
"176 0 LINE"
);
},
{
closed = 1;
nodes = (
"246 295 LINE",
"386 295 LINE",
"386 357 LINE",
"246 357 LINE",
"246 636 LINE",
"313 636 LINE SMOOTH",
"517 636 OFFCURVE",
"599 526 OFFCURVE",
"599 350 CURVE SMOOTH",
"599 177 OFFCURVE",
"511 64 OFFCURVE",
"318 64 CURVE SMOOTH",
"246 64 LINE"
);
}
);
width = 721;
},
{
hints = (
{
horizontal = 1;
place = "{0, 132}";
type = Stem;
},
{
horizontal = 1;
place = "{260, 130}";
type = Stem;
},
{
horizontal = 1;
place = "{568, 132}";
type = Stem;
},
{
place = "{159, 143}";
type = Stem;
},
{
place = "{537, 143}";
type = Stem;
}
);
layerId = "3B5F2A21-9AC0-43BD-916B-7DC2040966BF";
paths = (
{
closed = 1;
nodes = (
"327 0 LINE SMOOTH",
"564 0 OFFCURVE",
"680 153 OFFCURVE",
"680 350 CURVE SMOOTH",
"680 548 OFFCURVE",
"571 700 OFFCURVE",
"322 700 CURVE SMOOTH",
"159 700 LINE",
"159 390 LINE",
"61 390 LINE",
"61 260 LINE",
"159 260 LINE",
"159 0 LINE"
);
},
{
closed = 1;
nodes = (
"302 260 LINE",
"425 260 LINE",
"425 390 LINE",
"302 390 LINE",
"302 568 LINE",
"322 568 LINE SMOOTH",
"478 568 OFFCURVE",
"537 490 OFFCURVE",
"537 350 CURVE SMOOTH",
"537 213 OFFCURVE",
"473 132 OFFCURVE",
"327 132 CURVE SMOOTH",
"302 132 LINE"
);
}
);
width = 721;
}
);
leftKerningGroup = Eth;
note = Eth;
rightKerningGroup = D;
unicode = 00D0;
},
{
glyphname = E;
lastChange = "2023-07-27 12:03:26 +0000";
layers = (
{
anchors = (
{
name = bottom;
position = "{309, 0}";
},
{
name = ogonek;
position = "{406, -6}";
},
{
name = top;
position = "{309, 700}";
}
);
hints = (
{
horizontal = 1;
place = "{0, 64}";
type = Stem;
},
{
horizontal = 1;
place = "{322, 64}";
type = Stem;
},
{
horizontal = 1;
place = "{636, 64}";
type = Stem;
},
{
place = "{86, 70}";
type = Stem;
}
);
layerId = "1041D826-7B5A-4F1A-81FD-3B5FB25AF0FC";
paths = (
{
closed = 1;
nodes = (
"533 0 LINE",
"533 64 LINE",
"150 64 LINE",
"150 322 LINE",
"458 322 LINE",
"458 386 LINE",
"150 386 LINE",
"150 636 LINE",
"532 636 LINE",
"532 700 LINE",
"80 700 LINE",
"80 0 LINE"
);
}
);
width = 564;
},
{
anchors = (
{
name = bottom;
position = "{339, 0}";
},
{
name = ogonek;
position = "{422, -6}";
},
{
name = top;
position = "{310, 700}";
}
);
hints = (
{
horizontal = 1;
place = "{0, 132}";
type = Stem;
},
{
horizontal = 1;
place = "{287, 132}";
type = Stem;
},
{
horizontal = 1;
place = "{568, 132}";
type = Stem;
},
{
place = "{70, 143}";
type = Stem;
}
);
layerId = "3B5F2A21-9AC0-43BD-916B-7DC2040966BF";
paths = (
{
closed = 1;
nodes = (
"565 0 LINE",
"565 132 LINE",
"223 132 LINE",
"223 287 LINE",
"498 287 LINE",
"498 419 LINE",
"223 419 LINE",
"223 568 LINE",
"564 568 LINE",
"564 700 LINE",
"80 700 LINE",
"80 0 LINE"
);
}
);
width = 610;
}
);
leftKerningGroup = H;
note = E;
rightKerningGroup = E;
unicode = 0045;
},
{
glyphname = F;
lastChange = "2023-07-27 12:03:26 +0000";
layers = (
{
anchors = (
{
name = bottom;
position = "{261, 0}";
},
{
name = top;
position = "{261, 700}";
}
);
hints = (
{
horizontal = 1;
place = "{322, 64}";
type = Stem;
},
{
horizontal = 1;
place = "{637, 64}";
type = Stem;
},
{
place = "{85, 70}";
type = Stem;
}
);
layerId = "1041D826-7B5A-4F1A-81FD-3B5FB25AF0FC";
paths = (
{
closed = 1;
nodes = (
"150 0 LINE",
"150 322 LINE",
"438 322 LINE",
"438 386 LINE",
"150 386 LINE",
"150 637 LINE",
"513 637 LINE",
"513 701 LINE",
"80 701 LINE",
"80 0 LINE"
);
}
);
width = 528;
},
{
anchors = (
{
name = bottom;
position = "{293, 0}";
},
{
name = top;
position = "{293, 700}";
}
);
hints = (
{
horizontal = 1;
place = "{288, 132}";
type = Stem;
},
{
horizontal = 1;
place = "{569, 132}";
type = Stem;
},
{
place = "{68, 143}";
type = Stem;
}
);
layerId = "3B5F2A21-9AC0-43BD-916B-7DC2040966BF";
paths = (
{
closed = 1;
nodes = (
"223 0 LINE",
"223 288 LINE",
"480 288 LINE",
"480 420 LINE",
"223 420 LINE",
"223 569 LINE",
"547 569 LINE",
"547 701 LINE",
"80 701 LINE",
"80 0 LINE"
);
}
);
width = 575;
}
);
leftKerningGroup = H;
note = F;
rightKerningGroup = F;
unicode = 0046;
},
{
glyphname = G;
lastChange = "2023-07-27 12:03:26 +0000";
layers = (
{
anchors = (
{
name = bottom;
position = "{399, 0}";
},
{
name = top;
position = "{399, 700}";
}
);
associatedMasterId = "3B5F2A21-9AC0-43BD-916B-7DC2040966BF";
hints = (
{
horizontal = 1;
place = "{-2, 132}";
type = Stem;
},
{
horizontal = 1;
place = "{256, 132}";
type = Stem;
},
{
horizontal = 1;
place = "{569, 132}";
type = Stem;
},
{
place = "{28, 143}";
type = Stem;
},
{
place = "{500, 142}";
type = Stem;
}
);
layerId = "01852D24-F79C-49D1-B1DA-4B332825E01E";
name = "26 juil. 23 à 14:57";
paths = (
{
closed = 1;
nodes = (
"466 -2 OFFCURVE",
"578 51 OFFCURVE",
"642 150 CURVE",
"642 388 LINE",
"331 388 LINE",
"331 256 LINE",
"500 256 LINE",
"500 192 LINE",
"460 148 OFFCURVE",
"415 130 OFFCURVE",
"365 130 CURVE SMOOTH",
"262 130 OFFCURVE",
"171 226 OFFCURVE",
"171 350 CURVE SMOOTH",
"171 474 OFFCURVE",
"262 569 OFFCURVE",
"365 569 CURVE SMOOTH",
"425 569 OFFCURVE",
"474 542 OFFCURVE",
"520 485 CURVE",
"620 579 LINE",
"566 649 OFFCURVE",
"466 701 OFFCURVE",
"365 701 CURVE SMOOTH",
"178 701 OFFCURVE",
"28 543 OFFCURVE",
"28 350 CURVE SMOOTH",
"28 157 OFFCURVE",
"178 -2 OFFCURVE",
"365 -2 CURVE SMOOTH"
);
}
);
width = 798;
},
{
anchors = (
{
name = bottom;
position = "{407, 0}";
},
{
name = top;
position = "{399, 700}";
}
);
hints = (
{
horizontal = 1;
place = "{-2, 132}";
type = Stem;
},
{
horizontal = 1;
place = "{256, 132}";
type = Stem;
},
{
horizontal = 1;
place = "{569, 132}";
type = Stem;
},
{
place = "{28, 143}";
type = Stem;
},
{
place = "{500, 142}";
type = Stem;
},
{
horizontal = 1;
place = "{0, 132}";
type = Stem;
},
{
horizontal = 1;
place = "{570, 132}";
type = Stem;
},
{
place = "{45, 143}";
type = Stem;
},
{
place = "{610, 143}";
type = Stem;
}
);
layerId = "3B5F2A21-9AC0-43BD-916B-7DC2040966BF";
name = Bold;
paths = (
{
closed = 1;
nodes = (
"510 -6 OFFCURVE",
"626 49 OFFCURVE",
"694 150 CURVE",
"694 388 LINE",
"380 388 LINE",
"380 256 LINE",
"549 256 LINE",
"549 191 LINE",
"508 149 OFFCURVE",
"453 126 OFFCURVE",
"399 126 CURVE SMOOTH",
"284 126 OFFCURVE",
"188 223 OFFCURVE",
"188 350 CURVE SMOOTH",
"188 476 OFFCURVE",
"283 574 OFFCURVE",
"399 574 CURVE SMOOTH",
"467 574 OFFCURVE",
"529 539 OFFCURVE",
"568 485 CURVE",
"671 580 LINE",
"606 658 OFFCURVE",
"508 706 OFFCURVE",
"399 706 CURVE SMOOTH",
"199 706 OFFCURVE",
"45 546 OFFCURVE",
"45 350 CURVE SMOOTH",
"45 152 OFFCURVE",
"203 -6 OFFCURVE",
"399 -6 CURVE SMOOTH"
);
}
);
width = 724;
},
{
anchors = (
{
name = bottom;
position = "{387, 0}";
},
{
name = top;
position = "{387, 700}";
}
);
associatedMasterId = "1041D826-7B5A-4F1A-81FD-3B5FB25AF0FC";
hints = (
{
horizontal = 1;
place = "{-2, 64}";
type = Stem;
},
{
horizontal = 1;
place = "{287, 64}";
type = Stem;
},
{
horizontal = 1;
place = "{637, 64}";
type = Stem;
},
{
place = "{36, 70}";
type = Stem;
},
{
place = "{564, 70}";
type = Stem;
}
);
layerId = "3738992D-5FD7-4959-8258-A57854DC9D16";
name = "26 juil. 23 à 14:57";
paths = (
{
closed = 1;
nodes = (
"467 -2 OFFCURVE",
"567 43 OFFCURVE",
"634 138 CURVE",
"634 351 LINE",
"375 351 LINE",
"375 287 LINE",
"564 287 LINE",
"564 158 LINE",
"510 91 OFFCURVE",
"441 62 OFFCURVE",
"369 62 CURVE SMOOTH",
"227 62 OFFCURVE",
"106 189 OFFCURVE",
"106 350 CURVE SMOOTH",
"106 510 OFFCURVE",
"227 637 OFFCURVE",
"369 637 CURVE SMOOTH",
"436 637 OFFCURVE",
"495 610 OFFCURVE",
"545 562 CURVE",
"594 609 LINE",
"535 666 OFFCURVE",
"456 701 OFFCURVE",
"369 701 CURVE SMOOTH",
"185 701 OFFCURVE",
"36 544 OFFCURVE",
"36 350 CURVE SMOOTH",
"36 155 OFFCURVE",
"185 -2 OFFCURVE",
"369 -2 CURVE SMOOTH"
);
}
);
width = 774;
},
{
anchors = (
{
name = bottom;
position = "{396, 0}";
},
{
name = top;
position = "{396, 700}";
}
);
hints = (
{
horizontal = 1;
place = "{-2, 64}";
type = Stem;
},
{
horizontal = 1;
place = "{287, 64}";
type = Stem;
},
{
horizontal = 1;
place = "{637, 64}";
type = Stem;
},
{
place = "{36, 70}";
type = Stem;
},
{
place = "{564, 70}";
type = Stem;
},
{
horizontal = 1;
place = "{0, 64}";
type = Stem;
},
{
horizontal = 1;
place = "{638, 64}";
type = Stem;
},
{
place = "{36, 70}";
type = Stem;
},
{
place = "{669, 70}";
type = Stem;
}
);
layerId = "1041D826-7B5A-4F1A-81FD-3B5FB25AF0FC";
name = Regular;
paths = (
{
closed = 1;
nodes = (
"502 -6 OFFCURVE",
"612 44 OFFCURVE",
"680 136 CURVE",
"680 351 LINE",
"420 351 LINE",
"420 287 LINE",
"609 287 LINE",
"609 156 LINE",
"554 93 OFFCURVE",
"473 58 OFFCURVE",
"396 58 CURVE SMOOTH",
"243 58 OFFCURVE",
"115 186 OFFCURVE",
"115 350 CURVE SMOOTH",
"115 513 OFFCURVE",
"240 642 OFFCURVE",
"396 642 CURVE SMOOTH",
"464 642 OFFCURVE",
"522 617 OFFCURVE",
"571 576 CURVE",
"623 623 LINE",
"562 675 OFFCURVE",
"482 706 OFFCURVE",
"396 706 CURVE SMOOTH",
"199 706 OFFCURVE",
"45 546 OFFCURVE",
"45 350 CURVE SMOOTH",
"45 151 OFFCURVE",
"202 -6 OFFCURVE",
"396 -6 CURVE SMOOTH"
);
}
);
width = 710;
}
);
leftKerningGroup = C;
note = G;
rightKerningGroup = G;
unicode = 0047;
},
{
glyphname = H;
lastChange = "2023-07-27 12:03:26 +0000";
layers = (
{
anchors = (
{
name = bottom;
position = "{354, 0}";
},
{
name = top;
position = "{354, 700}";
}
);
hints = (
{
horizontal = 1;
place = "{322, 64}";
type = Stem;
},
{
place = "{86, 70}";
type = Stem;
},
{
place = "{565, 70}";
type = Stem;
}
);
layerId = "1041D826-7B5A-4F1A-81FD-3B5FB25AF0FC";
paths = (
{
closed = 1;
nodes = (
"150 0 LINE",
"150 322 LINE",
"559 322 LINE",
"559 0 LINE",
"629 0 LINE",
"629 700 LINE",
"559 700 LINE",
"559 386 LINE",
"150 386 LINE",
"150 700 LINE",
"80 700 LINE",
"80 0 LINE"
);
}
);
width = 709;
},
{
anchors = (
{
name = bottom;
position = "{365, 0}";
},
{
name = top;
position = "{365, 700}";
}
);
hints = (
{
horizontal = 1;
place = "{287, 132}";
type = Stem;
},
{
place = "{75, 143}";
type = Stem;
},
{
place = "{503, 143}";
type = Stem;
}
);
layerId = "3B5F2A21-9AC0-43BD-916B-7DC2040966BF";
paths = (
{
closed = 1;
nodes = (
"223 0 LINE",
"223 287 LINE",
"508 287 LINE",
"508 0 LINE",
"651 0 LINE",
"651 700 LINE",
"508 700 LINE",
"508 419 LINE",
"223 419 LINE",
"223 700 LINE",
"80 700 LINE",
"80 0 LINE"
);
}
);
width = 731;
}
);
leftKerningGroup = H;
note = H;
rightKerningGroup = H;
unicode = 0048;
},
{
glyphname = I;
lastChange = "2023-07-27 12:03:26 +0000";
layers = (
{
anchors = (
{
name = bottom;
position = "{115, 0}";
},
{
name = top;
position = "{115, 700}";
}
);
hints = (
{
horizontal = 1;
place = "{0, 700}";
type = Stem;
},
{
place = "{86, 70}";
type = Stem;
}
);
layerId = "1041D826-7B5A-4F1A-81FD-3B5FB25AF0FC";
paths = (
{
closed = 1;
nodes = (
"150 0 LINE",
"150 700 LINE",
"80 700 LINE",
"80 0 LINE"
);
}
);
width = 230;
},
{
anchors = (
{
name = bottom;
position = "{151, 0}";
},
{
name = top;
position = "{151, 700}";
}
);
hints = (
{
horizontal = 1;
place = "{0, 700}";
type = Stem;
},
{
place = "{79, 143}";
type = Stem;
}
);
layerId = "3B5F2A21-9AC0-43BD-916B-7DC2040966BF";
paths = (
{
closed = 1;
nodes = (
"223 0 LINE",
"223 700 LINE",
"80 700 LINE",
"80 0 LINE"
);
}
);
width = 303;
}
);
leftKerningGroup = I;
note = I;
rightKerningGroup = I;
unicode = 0049;
},
{
glyphname = J;
lastChange = "2023-07-27 12:03:26 +0000";
layers = (
{
anchors = (
{
name = bottom;
position = "{231, 0}";
},
{
name = top;
position = "{231, 700}";
}
);
hints = (
{
horizontal = 1;
place = "{-2, 64}";
type = Stem;
},
{
place = "{33, 70}";
type = Stem;
},
{
place = "{323, 71}";
type = Stem;
}
);
layerId = "1041D826-7B5A-4F1A-81FD-3B5FB25AF0FC";
paths = (
{
closed = 1;
nodes = (
"314 -2 OFFCURVE",
"394 59 OFFCURVE",
"394 179 CURVE SMOOTH",
"394 701 LINE",
"323 701 LINE",
"323 179 LINE SMOOTH",
"323 93 OFFCURVE",
"273 62 OFFCURVE",
"214 62 CURVE SMOOTH",
"154 62 OFFCURVE",
"103 113 OFFCURVE",
"103 179 CURVE",
"33 179 LINE",
"33 79 OFFCURVE",
"114 -2 OFFCURVE",
"214 -2 CURVE SMOOTH"
);
}
);
width = 463;
},
{
anchors = (
{
name = bottom;
position = "{261, 0}";
},
{
name = top;
position = "{261, 700}";
}
);
hints = (
{
horizontal = 1;
place = "{-2, 132}";
type = Stem;
},
{
place = "{42.48, 142.31}";
type = Stem;
},
{
place = "{301, 144}";
type = Stem;
}
);
layerId = "3B5F2A21-9AC0-43BD-916B-7DC2040966BF";
paths = (
{
closed = 1;
nodes = (
"356 -2 OFFCURVE",
"446 88 OFFCURVE",
"445 197 CURVE",
"445 701 LINE",
"301 701 LINE",
"301 208 LINE SMOOTH",
"302 149 OFFCURVE",
"274 130 OFFCURVE",
"244 130 CURVE SMOOTH",
"204 130 OFFCURVE",
"168 178 OFFCURVE",
"193 235 CURVE",
"46 235 LINE",
"22 109 OFFCURVE",
"119 -2 OFFCURVE",
"244 -2 CURVE SMOOTH"
);
}
);
width = 523;
}
);
leftKerningGroup = J;
note = J;
rightKerningGroup = J;
unicode = 004A;
},
{
glyphname = K;
lastChange = "2023-07-27 12:03:26 +0000";
layers = (
{
anchors = (
{
name = bottom;
position = "{300, 0}";
},
{
name = top;
position = "{300, 700}";
}
);
hints = (
{
horizontal = 1;
place = "{0, 702}";
type = Stem;
},
{
place = "{87, 70}";
type = Stem;
}
);
layerId = "1041D826-7B5A-4F1A-81FD-3B5FB25AF0FC";
paths = (
{
closed = 1;
nodes = (
"150 0 LINE",
"150 314 LINE",
"138 283 LINE",
"226 365 LINE",
"210 369 LINE",
"491 0 LINE",
"580 0 LINE",
"264 411 LINE",
"261 397 LINE",
"586 700 LINE",
"486 700 LINE",
"135 373 LINE",
"150 354 LINE",
"150 700 LINE",
"80 700 LINE",
"80 0 LINE"
);
}
);
width = 596;
},
{
anchors = (
{
name = bottom;
position = "{356, 0}";
},
{
name = top;
position = "{356, 700}";
}
);
hints = (
{
horizontal = 1;
place = "{0, 702}";
type = Stem;
},
{
place = "{76, 143}";
type = Stem;
}
);
layerId = "3B5F2A21-9AC0-43BD-916B-7DC2040966BF";
paths = (
{
closed = 1;
nodes = (
"223 0 LINE",
"223 282 LINE",
"205 239 LINE",
"289 317 LINE",
"265 326 LINE",
"515 0 LINE",
"692 0 LINE",
"371 415 LINE",
"372 395 LINE",
"697 700 LINE",
"496 700 LINE",
"190 412 LINE",
"223 412 LINE",
"223 700 LINE",
"80 700 LINE",
"80 0 LINE"
);
}
);
width = 707;
}
);
leftKerningGroup = H;
note = K;
rightKerningGroup = K;
unicode = 004B;
},
{
glyphname = L;
lastChange = "2023-07-27 12:03:26 +0000";
layers = (
{
anchors = (
{
name = bottom;
position = "{279, 0}";
},
{
name = top;
position = "{249, 700}";
}
);
hints = (
{
horizontal = 1;
place = "{0, 64}";
type = Stem;
},
{
place = "{86, 70}";
type = Stem;
}
);
layerId = "1041D826-7B5A-4F1A-81FD-3B5FB25AF0FC";
paths = (
{
closed = 1;
nodes = (
"474 0 LINE",
"474 64 LINE",
"150 64 LINE",
"150 700 LINE",
"80 700 LINE",
"80 0 LINE"
);
}
);
width = 494;
},
{
anchors = (
{
name = bottom;
position = "{292, 0}";
},
{
name = top;
position = "{272, 700}";
}
);
hints = (
{
horizontal = 1;
place = "{0, 132}";
type = Stem;
},
{
place = "{83, 143}";
type = Stem;
}
);
layerId = "3B5F2A21-9AC0-43BD-916B-7DC2040966BF";
paths = (
{
closed = 1;
nodes = (
"520 0 LINE",
"520 132 LINE",
"223 132 LINE",
"223 700 LINE",
"80 700 LINE",
"80 0 LINE"
);
}
);
width = 540;
}
);
leftKerningGroup = H;
note = L;
rightKerningGroup = L;
unicode = 004C;
},
{
glyphname = Lslash;
lastChange = "2023-07-27 12:03:26 +0000";
layers = (
{
components = (
{
name = L;
}
);
hints = (
{
horizontal = 1;
place = "{0, 64}";
type = Stem;
},
{
place = "{117, 70}";
type = Stem;
}
);
layerId = "1041D826-7B5A-4F1A-81FD-3B5FB25AF0FC";
paths = (
{
closed = 1;
nodes = (
"344 442 LINE",
"344 513 LINE",
"19 369 LINE",
"19 299 LINE"
);
}
);
width = 489;
},
{
components = (
{
name = L;
}
);
hints = (
{
horizontal = 1;
place = "{0, 132}";
type = Stem;
},
{
place = "{114, 143}";
type = Stem;
}
);
layerId = "3B5F2A21-9AC0-43BD-916B-7DC2040966BF";
paths = (
{
closed = 1;
nodes = (
"382 409 LINE",
"384 555 LINE",
"12 391 LINE",
"12 245 LINE"
);
}
);
width = 535;
}
);
leftKerningGroup = Lslash;
note = Lslash;
rightKerningGroup = L;
unicode = 0141;
},
{
glyphname = M;
lastChange = "2023-07-27 12:03:26 +0000";
layers = (
{
anchors = (
{
name = bottom;
position = "{424, 0}";
},
{
name = top;
position = "{424, 700}";
}
);
hints = (
{
horizontal = 1;
place = "{0, 700}";
type = Stem;
},
{
place = "{86, 70}";
type = Stem;
},
{
place = "{705, 70}";
type = Stem;
}
);
layerId = "1041D826-7B5A-4F1A-81FD-3B5FB25AF0FC";
paths = (
{
closed = 1;
nodes = (
"699 565 LINE",
"699 0 LINE",
"769 0 LINE",
"769 700 LINE",
"691 700 LINE",
"424 199 LINE",
"159 700 LINE",
"80 700 LINE",
"80 0 LINE",
"150 0 LINE",
"150 567 LINE",
"424 48 LINE"
);
}
);
width = 849;
},
{
anchors = (
{
name = bottom;
position = "{427, 0}";
},
{
name = top;
position = "{427, 700}";
}
);
hints = (
{
horizontal = 1;
place = "{-4, 704}";
type = Stem;
},
{
place = "{83, 143}";
type = Stem;
},
{
place = "{635, 143}";
type = Stem;
}
);
layerId = "3B5F2A21-9AC0-43BD-916B-7DC2040966BF";
paths = (
{
closed = 1;
nodes = (
"632 430 LINE",
"632 0 LINE",
"775 0 LINE",
"775 700 LINE",
"613 700 LINE",
"427 321 LINE",
"242 700 LINE",
"80 700 LINE",
"80 0 LINE",
"223 0 LINE",
"223 431 LINE",
"427 12 LINE"
);
}
);
width = 855;
}
);
leftKerningGroup = H;
note = M;
rightKerningGroup = H;
unicode = 004D;
},
{
glyphname = N;
lastChange = "2023-07-27 12:03:26 +0000";
layers = (
{
anchors = (
{
name = bottom;
position = "{344, 0}";
},
{
name = top;
position = "{344, 700}";
}
);
hints = (
{
horizontal = 1;
place = "{0, 700}";
type = Stem;
},
{
place = "{86, 70}";
type = Stem;
},
{
place = "{568, 71}";
type = Stem;
}
);
layerId = "1041D826-7B5A-4F1A-81FD-3B5FB25AF0FC";
paths = (
{
closed = 1;
nodes = (
"150 0 LINE",
"150 586 LINE",
"143 585 LINE",
"544 0 LINE",
"609 0 LINE",
"609 700 LINE",
"538 700 LINE",
"538 103 LINE",
"549 113 LINE",
"146 700 LINE",
"80 700 LINE",
"80 0 LINE"
);
}
);
width = 689;
},
{
anchors = (
{
name = bottom;
position = "{367, 0}";
},
{
name = top;
position = "{367, 700}";
}
);
hints = (
{
horizontal = 1;
place = "{0, 700}";
type = Stem;
},
{
place = "{75, 143}";
type = Stem;
},
{
place = "{506, 143}";
type = Stem;
}
);
layerId = "3B5F2A21-9AC0-43BD-916B-7DC2040966BF";
paths = (
{
closed = 1;
nodes = (
"223 0 LINE",
"223 456 LINE",
"210 456 LINE",
"524 0 LINE",
"654 0 LINE",
"654 700 LINE",
"511 700 LINE",
"511 220 LINE",
"530 233 LINE",
"208 700 LINE",
"80 700 LINE",
"80 0 LINE"
);
}
);
width = 734;
}
);
leftKerningGroup = H;
note = N;
rightKerningGroup = H;
unicode = 004E;
},
{
glyphname = Nhookleft;
lastChange = "2023-07-27 12:03:26 +0000";
layers = (
{
components = (
{
name = N;
}
);
layerId = "1041D826-7B5A-4F1A-81FD-3B5FB25AF0FC";
paths = (
{
closed = 1;
nodes = (
"75 0 LINE",
"75 -96 LINE SMOOTH",
"75 -130 OFFCURVE",
"61 -140 OFFCURVE",
"45 -140 CURVE SMOOTH",
"20 -140 OFFCURVE",
"-5 -130 OFFCURVE",
"-31 -108 CURVE",
"-31 -169 LINE",
"-17 -183 OFFCURVE",
"12 -203 OFFCURVE",
"55 -203 CURVE SMOOTH",
"120 -203 OFFCURVE",
"145 -149 OFFCURVE",
"145 -85 CURVE SMOOTH",
"145 0 LINE"
);
}
);
width = 679;
},
{
components = (
{
name = N;
}
);
layerId = "3B5F2A21-9AC0-43BD-916B-7DC2040966BF";
paths = (
{
closed = 1;
nodes = (
"75 0 LINE",
"75 -35 LINE SMOOTH",
"75 -69 OFFCURVE",
"64 -76 OFFCURVE",
"48 -76 CURVE SMOOTH",
"26 -76 OFFCURVE",
"-5 -66 OFFCURVE",
"-31 -45 CURVE",
"-31 -169 LINE",
"-6 -185 OFFCURVE",
"19 -203 OFFCURVE",
"73 -203 CURVE SMOOTH",
"155 -203 OFFCURVE",
"218 -159 OFFCURVE",
"218 -35 CURVE SMOOTH",
"218 0 LINE"
);
}
);
width = 724;
}
);
leftKerningGroup = H;
rightKerningGroup = H;
unicode = 019D;
},
{
glyphname = Eng;
lastChange = "2023-07-27 12:03:26 +0000";
layers = (
{
components = (
{
name = N;
}
);
layerId = "1041D826-7B5A-4F1A-81FD-3B5FB25AF0FC";
paths = (
{
closed = 1;
nodes = (
"539 0 LINE",
"539 -96 LINE SMOOTH",
"539 -130 OFFCURVE",
"525 -140 OFFCURVE",
"509 -140 CURVE SMOOTH",
"484 -140 OFFCURVE",
"454 -130 OFFCURVE",
"428 -108 CURVE",
"428 -169 LINE",
"442 -183 OFFCURVE",
"471 -203 OFFCURVE",
"514 -203 CURVE SMOOTH",
"579 -203 OFFCURVE",
"604 -149 OFFCURVE",
"604 -85 CURVE SMOOTH",
"604 0 LINE"
);
}
);
width = 679;
},
{
components = (
{
name = N;
}
);
layerId = "3B5F2A21-9AC0-43BD-916B-7DC2040966BF";
paths = (
{
closed = 1;
nodes = (
"519 0 LINE",
"519 -35 LINE SMOOTH",
"519 -69 OFFCURVE",
"508 -76 OFFCURVE",
"492 -76 CURVE SMOOTH",
"470 -76 OFFCURVE",
"426 -66 OFFCURVE",
"400 -45 CURVE",
"400 -169 LINE",
"425 -185 OFFCURVE",
"450 -203 OFFCURVE",
"504 -203 CURVE SMOOTH",
"586 -203 OFFCURVE",
"649 -159 OFFCURVE",
"649 -35 CURVE SMOOTH",
"649 0 LINE"
);
}
);
width = 724;
}
);
leftKerningGroup = H;
rightKerningGroup = H;
unicode = 014A;
},
{
glyphname = O;
lastChange = "2023-07-27 12:03:26 +0000";
layers = (
{
anchors = (
{
name = bottom;
position = "{396, 0}";
},
{
name = ogonek;
position = "{402, -6}";
},
{
name = top;
position = "{396, 700}";
}
);
hints = (
{
horizontal = 1;
place = "{0, 64}";
type = Stem;
},
{
horizontal = 1;
place = "{638, 64}";
type = Stem;
},
{
place = "{36, 70}";
type = Stem;
},
{
place = "{669, 70}";
type = Stem;
}
);
layerId = "1041D826-7B5A-4F1A-81FD-3B5FB25AF0FC";
paths = (
{
closed = 1;
nodes = (
"566 -6 OFFCURVE",
"748 124 OFFCURVE",
"748 350 CURVE SMOOTH",
"748 549 OFFCURVE",
"590 706 OFFCURVE",
"396 706 CURVE SMOOTH",
"199 706 OFFCURVE",
"45 546 OFFCURVE",
"45 350 CURVE SMOOTH",
"45 151 OFFCURVE",
"202 -6 OFFCURVE",
"396 -6 CURVE SMOOTH"
);
},
{
closed = 1;
nodes = (
"243 58 OFFCURVE",
"115 186 OFFCURVE",
"115 350 CURVE SMOOTH",
"115 513 OFFCURVE",
"240 642 OFFCURVE",
"396 642 CURVE SMOOTH",
"550 642 OFFCURVE",
"678 515 OFFCURVE",
"678 350 CURVE SMOOTH",
"678 165 OFFCURVE",
"532 58 OFFCURVE",
"396 58 CURVE SMOOTH"
);
}
);
width = 793;
},
{
anchors = (
{
name = bottom;
position = "{399, 0}";
},
{
name = ogonek;
position = "{402, -6}";
},
{
name = top;
position = "{399, 700}";
}
);
guideLines = (
{
position = "{0, 706}";
}
);
hints = (
{
horizontal = 1;
place = "{0, 132}";
type = Stem;
},
{
horizontal = 1;
place = "{570, 132}";
type = Stem;
},
{
place = "{45, 143}";
type = Stem;
},
{
place = "{610, 143}";
type = Stem;
}
);
layerId = "3B5F2A21-9AC0-43BD-916B-7DC2040966BF";
paths = (
{
closed = 1;
nodes = (
"569 -6 OFFCURVE",
"753 124 OFFCURVE",
"753 350 CURVE SMOOTH",
"753 549 OFFCURVE",
"595 706 OFFCURVE",
"399 706 CURVE SMOOTH",
"199 706 OFFCURVE",
"45 546 OFFCURVE",
"45 350 CURVE SMOOTH",
"45 152 OFFCURVE",
"203 -6 OFFCURVE",
"399 -6 CURVE SMOOTH"
);
},
{
closed = 1;
nodes = (
"284 126 OFFCURVE",
"188 223 OFFCURVE",
"188 350 CURVE SMOOTH",
"188 476 OFFCURVE",
"283 574 OFFCURVE",
"399 574 CURVE SMOOTH",
"513 574 OFFCURVE",
"610 478 OFFCURVE",
"610 350 CURVE SMOOTH",
"610 208 OFFCURVE",
"501 126 OFFCURVE",
"399 126 CURVE SMOOTH"
);
}
);
width = 798;
}
);
leftKerningGroup = C;
note = O;
rightKerningGroup = D;
unicode = 004F;
},
{
glyphname = Oslash;
lastChange = "2023-07-27 12:03:26 +0000";
layers = (
{
anchors = (
{
name = top;
position = "{393, 700}";
}
);
hints = (
{
horizontal = 1;
place = "{0, 64}";
type = Stem;
},
{
horizontal = 1;
place = "{638, 64}";
type = Stem;
},
{
place = "{36, 70}";
type = Stem;
},
{
place = "{669, 70}";
type = Stem;
}
);
layerId = "1041D826-7B5A-4F1A-81FD-3B5FB25AF0FC";
paths = (
{
closed = 1;
nodes = (
"557 0 OFFCURVE",
"739 130 OFFCURVE",
"739 351 CURVE SMOOTH",
"739 545 OFFCURVE",
"581 702 OFFCURVE",
"387 702 CURVE SMOOTH",
"190 702 OFFCURVE",
"36 542 OFFCURVE",
"36 351 CURVE SMOOTH",
"36 157 OFFCURVE",
"193 0 OFFCURVE",
"387 0 CURVE SMOOTH"
);
},
{
closed = 1;
nodes = (
"546 766 LINE",
"485 785 LINE",
"230 -59 LINE",
"292 -77 LINE"
);
},
{
closed = 1;
nodes = (
"234 64 OFFCURVE",
"106 192 OFFCURVE",
"106 351 CURVE SMOOTH",
"106 509 OFFCURVE",
"231 638 OFFCURVE",
"387 638 CURVE SMOOTH",
"541 638 OFFCURVE",
"669 511 OFFCURVE",
"669 351 CURVE SMOOTH",
"669 171 OFFCURVE",
"523 64 OFFCURVE",
"387 64 CURVE SMOOTH"
);
}
);
width = 774;
},
{
anchors = (
{
name = top;
position = "{396, 700}";
}
);
hints = (
{
horizontal = 1;
place = "{0, 132}";
type = Stem;
},
{
horizontal = 1;
place = "{570, 132}";
type = Stem;
},
{
place = "{45, 143}";
type = Stem;
},
{
place = "{610, 143}";
type = Stem;
}
);
layerId = "3B5F2A21-9AC0-43BD-916B-7DC2040966BF";
paths = (
{
closed = 1;
nodes = (
"569 0 OFFCURVE",
"753 130 OFFCURVE",
"753 351 CURVE SMOOTH",
"753 545 OFFCURVE",
"595 702 OFFCURVE",
"399 702 CURVE SMOOTH",
"199 702 OFFCURVE",
"45 542 OFFCURVE",
"45 351 CURVE SMOOTH",
"45 158 OFFCURVE",
"203 0 OFFCURVE",
"399 0 CURVE SMOOTH"
);
},
{
closed = 1;
nodes = (
"568 750 LINE",
"457 786 LINE",
"208 -44 LINE",
"320 -78 LINE"
);
},
{
closed = 1;
nodes = (
"284 132 OFFCURVE",
"188 229 OFFCURVE",
"188 351 CURVE SMOOTH",
"188 472 OFFCURVE",
"283 570 OFFCURVE",
"399 570 CURVE SMOOTH",
"513 570 OFFCURVE",
"610 474 OFFCURVE",
"610 351 CURVE SMOOTH",
"610 214 OFFCURVE",
"501 132 OFFCURVE",
"399 132 CURVE SMOOTH"
);
}
);
width = 798;
}
);
leftKerningGroup = C;
note = Oslash;
rightKerningGroup = D;
unicode = 00D8;
},
{
glyphname = OE;
lastChange = "2023-07-27 12:03:26 +0000";
layers = (
{
hints = (
{
horizontal = 1;
place = "{0, 64}";
type = Stem;
},
{
horizontal = 1;
place = "{322, 64}";
type = Stem;
},
{
horizontal = 1;
place = "{636, 64}";
type = Stem;
},
{
place = "{36, 70}";
type = Stem;
},
{
place = "{581, 70}";
type = Stem;
}
);
layerId = "1041D826-7B5A-4F1A-81FD-3B5FB25AF0FC";
paths = (
{
closed = 1;
nodes = (
"454 0 OFFCURVE",
"522 20 OFFCURVE",
"581 58 CURVE",
"581 0 LINE",
"1034 0 LINE",
"1034 64 LINE",
"651 64 LINE",
"651 322 LINE",
"959 322 LINE",
"959 386 LINE",
"651 386 LINE",
"651 636 LINE",
"1033 636 LINE",
"1033 700 LINE",
"581 700 LINE",
"581 644 LINE",
"525 681 OFFCURVE",
"459 702 OFFCURVE",
"387 702 CURVE SMOOTH",
"190 702 OFFCURVE",
"36 542 OFFCURVE",
"36 351 CURVE SMOOTH",
"36 157 OFFCURVE",
"193 0 OFFCURVE",
"387 0 CURVE SMOOTH"
);
},
{
closed = 1;
nodes = (
"234 64 OFFCURVE",
"106 192 OFFCURVE",
"106 351 CURVE SMOOTH",
"106 509 OFFCURVE",
"231 638 OFFCURVE",
"387 638 CURVE SMOOTH",
"462 638 OFFCURVE",
"530 608 OFFCURVE",
"581 559 CURVE",
"581 142 LINE",
"527 91 OFFCURVE",
"456 64 OFFCURVE",
"387 64 CURVE SMOOTH"
);
}
);
width = 1065;
},
{
hints = (
{
horizontal = 1;
place = "{0, 132}";
type = Stem;
},
{
horizontal = 1;
place = "{287, 132}";
type = Stem;
},
{
horizontal = 1;
place = "{568, 132}";
type = Stem;
},
{
place = "{36, 138}";
type = Stem;
},
{
place = "{515, 143}";
type = Stem;
},
{
horizontal = 1;
place = "{558, 144}";
type = Stem;
}
);
layerId = "3B5F2A21-9AC0-43BD-916B-7DC2040966BF";
paths = (
{
closed = 1;
nodes = (
"430 0 OFFCURVE",
"474 8 OFFCURVE",
"515 24 CURVE",
"515 0 LINE",
"1000 0 LINE",
"1000 132 LINE",
"658 132 LINE",
"658 287 LINE",
"933 287 LINE",
"933 419 LINE",
"658 419 LINE",
"658 568 LINE",
"999 568 LINE",
"999 700 LINE",
"515 700 LINE",
"515 679 LINE",
"475 694 OFFCURVE",
"432 702 OFFCURVE",
"387 702 CURVE SMOOTH",
"190 702 OFFCURVE",
"36 542 OFFCURVE",
"36 351 CURVE SMOOTH",
"36 157 OFFCURVE",
"193 0 OFFCURVE",
"387 0 CURVE SMOOTH"
);
},
{
closed = 1;
nodes = (
"266 145 OFFCURVE",
"174 236 OFFCURVE",
"174 351 CURVE SMOOTH",
"174 464 OFFCURVE",
"264 558 OFFCURVE",
"376 558 CURVE SMOOTH",
"429 558 OFFCURVE",
"479 536 OFFCURVE",
"515 501 CURVE",
"515 200 LINE",
"476 164 OFFCURVE",
"425 145 OFFCURVE",
"376 145 CURVE SMOOTH"
);
}
);
width = 1045;
}
);
leftKerningGroup = C;
note = OE;
rightKerningGroup = E;
unicode = 0152;
},
{
glyphname = P;
lastChange = "2023-07-27 12:03:26 +0000";
layers = (
{
anchors = (
{
name = bottom;
position = "{279, 0}";
},
{
name = top;
position = "{279, 700}";
}
);
hints = (
{
horizontal = 1;
place = "{322, 64}";
type = Stem;
},
{
horizontal = 1;
place = "{643, 64}";
type = Stem;
},
{
place = "{86, 70}";
type = Stem;
},
{
place = "{466, 70}";
type = Stem;
}
);
layerId = "1041D826-7B5A-4F1A-81FD-3B5FB25AF0FC";
paths = (
{
closed = 1;
nodes = (
"150 0 LINE",
"150 322 LINE",
"337 322 LINE SMOOTH",
"443 322 OFFCURVE",
"530 409 OFFCURVE",
"530 514 CURVE SMOOTH",
"530 567 OFFCURVE",
"508 616 OFFCURVE",
"473 650 CURVE SMOOTH",
"439 685 OFFCURVE",
"390 707 OFFCURVE",
"337 707 CURVE SMOOTH",
"80 707 LINE",
"80 0 LINE"
);
},
{
closed = 1;
nodes = (
"150 643 LINE",
"337 643 LINE SMOOTH",
"371 643 OFFCURVE",
"398 631 OFFCURVE",
"424 605 CURVE SMOOTH",
"445 584 OFFCURVE",
"460 550 OFFCURVE",
"460 514 CURVE SMOOTH",
"460 441 OFFCURVE",
"404 386 OFFCURVE",
"337 386 CURVE SMOOTH",
"150 386 LINE"
);
}
);
width = 565;
},
{
anchors = (
{
name = bottom;
position = "{297, 0}";
},
{
name = top;
position = "{297, 700}";
}
);
hints = (
{
horizontal = 1;
place = "{288, 132}";
type = Stem;
},
{
horizontal = 1;
place = "{574, 132}";
type = Stem;
},
{
place = "{75, 143}";
type = Stem;
},
{
place = "{414, 143}";
type = Stem;
}
);
layerId = "3B5F2A21-9AC0-43BD-916B-7DC2040966BF";
paths = (
{
closed = 1;
nodes = (
"223 0 LINE",
"223 288 LINE",
"349 288 LINE SMOOTH",
"467 288 OFFCURVE",
"562 383 OFFCURVE",
"562 497 CURVE SMOOTH",
"562 551 OFFCURVE",
"537 608 OFFCURVE",
"500 645 CURVE SMOOTH",
"465 680 OFFCURVE",
"406 706 OFFCURVE",
"349 706 CURVE SMOOTH",
"80 706 LINE",
"80 0 LINE"
);
},
{
closed = 1;
nodes = (
"223 574 LINE",
"349 574 LINE SMOOTH",
"369 574 OFFCURVE",
"381 569 OFFCURVE",
"399 552 CURVE",
"410 540 OFFCURVE",
"419 520 OFFCURVE",
"419 497 CURVE SMOOTH",
"419 452 OFFCURVE",
"387 420 OFFCURVE",
"349 420 CURVE SMOOTH",
"223 420 LINE"
);
}
);
width = 590;
}
);
leftKerningGroup = H;
note = P;
rightKerningGroup = P;
unicode = 0050;
},
{
glyphname = Thorn;
lastChange = "2023-07-27 12:03:26 +0000";
layers = (
{
hints = (
{
horizontal = 1;
place = "{164, 64}";
type = Stem;
},
{
horizontal = 1;
place = "{533, 64}";
type = Stem;
},
{
place = "{73, 70}";
type = Stem;
},
{
place = "{479, 70}";
type = Stem;
}
);
layerId = "1041D826-7B5A-4F1A-81FD-3B5FB25AF0FC";
paths = (
{
closed = 1;
nodes = (
"143 0 LINE",
"143 164 LINE",
"330 164 LINE SMOOTH",
"451 164 OFFCURVE",
"549 262 OFFCURVE",
"549 381 CURVE SMOOTH",
"549 438 OFFCURVE",
"524 495 OFFCURVE",
"485 534 CURVE SMOOTH",
"448 570 OFFCURVE",
"389 597 OFFCURVE",
"330 597 CURVE SMOOTH",
"143 597 LINE",
"143 694 LINE",
"73 694 LINE",
"73 0 LINE"
);
},
{
closed = 1;
nodes = (
"143 533 LINE",
"330 533 LINE SMOOTH",
"371 533 OFFCURVE",
"407 517 OFFCURVE",
"435 488 CURVE",
"462 462 OFFCURVE",
"479 423 OFFCURVE",
"479 381 CURVE SMOOTH",
"479 295 OFFCURVE",
"412 228 OFFCURVE",
"330 228 CURVE SMOOTH",
"143 228 LINE"
);
}
);
width = 600;
},
{
hints = (
{
horizontal = 1;
place = "{146, 133}";
type = Stem;
},
{
horizontal = 1;
place = "{475, 133}";
type = Stem;
},
{
place = "{58, 143}";
type = Stem;
},
{
place = "{421, 143}";
type = Stem;
}
);
layerId = "3B5F2A21-9AC0-43BD-916B-7DC2040966BF";
paths = (
{
closed = 1;
nodes = (
"201 0 LINE",
"201 146 LINE",
"328 146 LINE SMOOTH",
"459 146 OFFCURVE",
"564 251 OFFCURVE",
"564 377 CURVE SMOOTH",
"564 436 OFFCURVE",
"535 500 OFFCURVE",
"495 540 CURVE SMOOTH",
"458 577 OFFCURVE",
"390 608 OFFCURVE",
"328 608 CURVE SMOOTH",
"201 608 LINE",
"201 694 LINE",
"58 694 LINE",
"58 0 LINE"
);
},
{
closed = 1;
nodes = (
"201 475 LINE",
"328 475 LINE SMOOTH",
"353 475 OFFCURVE",
"374 466 OFFCURVE",
"394 447 CURVE",
"410 430 OFFCURVE",
"421 406 OFFCURVE",
"421 377 CURVE SMOOTH",
"421 321 OFFCURVE",
"379 279 OFFCURVE",
"328 279 CURVE SMOOTH",
"201 279 LINE"
);
}
);
width = 600;
}
);
leftKerningGroup = H;
note = Thorn;
rightKerningGroup = Thorn;
unicode = 00DE;
},
{
glyphname = Q;
lastChange = "2023-07-27 12:03:26 +0000";
layers = (
{
anchors = (
{
name = bottom;
position = "{387, 0}";
},
{
name = top;
position = "{387, 700}";
}
);
components = (
{
name = O;
}
);
hints = (
{
horizontal = 1;
place = "{0, 64}";
type = Stem;
},
{
horizontal = 1;
place = "{638, 64}";
type = Stem;
},
{
place = "{35, 70}";
type = Stem;
},
{
place = "{668, 70}";
type = Stem;
}
);
layerId = "1041D826-7B5A-4F1A-81FD-3B5FB25AF0FC";
paths = (
{
closed = 1;
nodes = (
"659 0 LINE",
"759 0 LINE",
"444 291 LINE",
"344 291 LINE"
);
}
);
width = 774;
},
{
anchors = (
{
name = bottom;
position = "{413, 0}";
},
{
name = top;
position = "{413, 700}";
}
);
components = (
{
name = O;
}
);
hints = (
{
horizontal = 1;
place = "{0, 292}";
type = Stem;
},
{
horizontal = 1;
place = "{568, 132}";
type = Stem;
},
{
place = "{44, 143}";
type = Stem;
},
{
place = "{609, 143}";
type = Stem;
},
{
horizontal = 1;
place = "{-2, 132}";
type = Stem;
}
);
layerId = "3B5F2A21-9AC0-43BD-916B-7DC2040966BF";
paths = (
{
closed = 1;
nodes = (
"609 0 LINE",
"812 0 LINE",
"497 292 LINE",
"294 292 LINE"
);
}
);
width = 827;
}
);
leftKerningGroup = C;
note = Q;
rightKerningGroup = Q;
unicode = 0051;
},
{
glyphname = R;
lastChange = "2023-07-27 12:03:26 +0000";
layers = (
{
anchors = (
{
name = bottom;
position = "{322, 0}";
},
{
name = top;
position = "{322, 700}";
}
);
hints = (
{
horizontal = 1;
place = "{363, 64}";
type = Stem;
},
{
horizontal = 1;
place = "{643, 64}";
type = Stem;
},
{
place = "{86, 70}";
type = Stem;
},
{
place = "{485, 70}";
type = Stem;
}
);
layerId = "1041D826-7B5A-4F1A-81FD-3B5FB25AF0FC";
paths = (
{
closed = 1;
nodes = (
"303 371 LINE",
"542 0 LINE",
"625 0 LINE",
"384 372 LINE"
);
},
{
closed = 1;
nodes = (
"150 636 LINE",
"357 636 LINE SMOOTH",
"438 636 OFFCURVE",
"479 589 OFFCURVE",
"479 528 CURVE SMOOTH",
"479 466 OFFCURVE",
"441 420 OFFCURVE",
"363 420 CURVE SMOOTH",
"150 420 LINE"
);
},
{
closed = 1;
nodes = (
"368 356 LINE SMOOTH",
"482 356 OFFCURVE",
"549 434 OFFCURVE",
"549 528 CURVE SMOOTH",
"549 622 OFFCURVE",
"481 700 OFFCURVE",
"357 700 CURVE SMOOTH",
"80 700 LINE",
"80 0 LINE",
"150 0 LINE",
"150 356 LINE"
);
}
);
width = 640;
},
{
anchors = (
{
name = bottom;
position = "{347, 0}";
},
{
name = top;
position = "{347, 700}";
}
);
hints = (
{
horizontal = 1;
place = "{324, 133}";
type = Stem;
},
{
horizontal = 1;
place = "{574, 132}";
type = Stem;
},
{
place = "{77, 143}";
type = Stem;
},
{
place = "{436, 140}";
type = Stem;
}
);
layerId = "3B5F2A21-9AC0-43BD-916B-7DC2040966BF";
paths = (
{
closed = 1;
nodes = (
"287 347 LINE",
"509 0 LINE",
"675 0 LINE",
"453 347 LINE"
);
},
{
closed = 1;
nodes = (
"223 568 LINE",
"375 568 LINE SMOOTH",
"409 568 OFFCURVE",
"439 547 OFFCURVE",
"439 510 CURVE SMOOTH",
"439 472 OFFCURVE",
"419 451 OFFCURVE",
"377 451 CURVE SMOOTH",
"223 451 LINE"
);
},
{
closed = 1;
nodes = (
"394 318 LINE SMOOTH",
"497 318 OFFCURVE",
"579 409 OFFCURVE",
"579 509 CURVE SMOOTH",
"579 613 OFFCURVE",
"499 700 OFFCURVE",
"372 700 CURVE SMOOTH",
"80 700 LINE",
"80 0 LINE",
"223 0 LINE",
"223 318 LINE"
);
}
);
width = 690;
}
);
leftKerningGroup = H;
note = R;
rightKerningGroup = R;
unicode = 0052;
},
{
glyphname = S;
lastChange = "2023-07-27 12:03:26 +0000";
layers = (
{
anchors = (
{
name = bottom;
position = "{257, 0}";
},
{
name = top;
position = "{257, 700}";
}
);
hints = (
{
horizontal = 1;
place = "{-2, 64}";
type = Stem;
},
{
horizontal = 1;
place = "{638, 64}";
type = Stem;
},
{
place = "{57, 70}";
type = Stem;
},
{
place = "{396, 70}";
type = Stem;
}
);
layerId = "1041D826-7B5A-4F1A-81FD-3B5FB25AF0FC";
paths = (
{
closed = 1;
nodes = (
"366 -6 OFFCURVE",
"479 54 OFFCURVE",
"479 180 CURVE SMOOTH",
"479 323 OFFCURVE",
"380 360 OFFCURVE",
"270 405 CURVE SMOOTH",
"191 437 OFFCURVE",
"140 469 OFFCURVE",
"140 533 CURVE SMOOTH",
"140 598 OFFCURVE",
"192 642 OFFCURVE",
"256 642 CURVE SMOOTH",
"326 642 OFFCURVE",
"361 611 OFFCURVE",
"389 584 CURVE",
"438 629 LINE",
"402 667 OFFCURVE",
"351 706 OFFCURVE",
"256 706 CURVE SMOOTH",
"158 706 OFFCURVE",
"70 634 OFFCURVE",
"70 533 CURVE SMOOTH",
"70 425 OFFCURVE",
"163 376 OFFCURVE",
"242 344 CURVE SMOOTH",
"329 308 OFFCURVE",
"409 284 OFFCURVE",
"409 180 CURVE SMOOTH",
"409 97 OFFCURVE",
"331 58 OFFCURVE",
"249 58 CURVE SMOOTH",
"174 58 OFFCURVE",
"121 93 OFFCURVE",
"87 131 CURVE",
"35 88 LINE",
"74 45 OFFCURVE",
"149 -6 OFFCURVE",
"249 -6 CURVE SMOOTH"
);
}
);
width = 514;
},
{
anchors = (
{
name = bottom;
position = "{278, 0}";
},
{
name = top;
position = "{278, 700}";
}
);
hints = (
{
horizontal = 1;
place = "{-2, 133}";
type = Stem;
},
{
horizontal = 1;
place = "{573, 132}";
type = Stem;
},
{
place = "{47, 143}";
type = Stem;
},
{
place = "{350, 142}";
type = Stem;
}
);
layerId = "3B5F2A21-9AC0-43BD-916B-7DC2040966BF";
paths = (
{
closed = 1;
nodes = (
"396 -6 OFFCURVE",
"522 61 OFFCURVE",
"521 200 CURVE SMOOTH",
"520 349 OFFCURVE",
"408 397 OFFCURVE",
"310 437 CURVE SMOOTH",
"244 464 OFFCURVE",
"219 480 OFFCURVE",
"219 514 CURVE SMOOTH",
"219 550 OFFCURVE",
"246 574 OFFCURVE",
"282 574 CURVE SMOOTH",
"344 574 OFFCURVE",
"369 543 OFFCURVE",
"401 506 CURVE",
"499 596 LINE",
"457 654 OFFCURVE",
"394 706 OFFCURVE",
"282 706 CURVE SMOOTH",
"174 706 OFFCURVE",
"76 626 OFFCURVE",
"76 514 CURVE SMOOTH",
"76 394 OFFCURVE",
"184 344 OFFCURVE",
"256 315 CURVE SMOOTH",
"335 282 OFFCURVE",
"379 260 OFFCURVE",
"379 200 CURVE SMOOTH",
"379 152 OFFCURVE",
"342 123 OFFCURVE",
"276 123 CURVE SMOOTH",
"206 123 OFFCURVE",
"166 167 OFFCURVE",
"139 209 CURVE",
"35 124 LINE",
"40 92 OFFCURVE",
"141 -6 OFFCURVE",
"276 -6 CURVE SMOOTH"
);
}
);
width = 556;
}
);
leftKerningGroup = S;
note = S;
rightKerningGroup = S;
unicode = 0053;
},
{
glyphname = Germandbls;
lastChange = "2023-07-27 12:03:26 +0000";
layers = (
{
hints = (
{
horizontal = 1;
place = "{-164, 933}";
type = Stem;
},
{
place = "{36, 70}";
type = Stem;
},
{
horizontal = 1;
place = "{-3, 64}";
type = Stem;
},
{
horizontal = 1;
place = "{355, 64}";
type = Stem;
},
{
horizontal = 1;
place = "{640, 64}";
type = Stem;
},
{
place = "{366, 70}";
type = Stem;
},
{
place = "{325, 70}";
type = Stem;
},
{
horizontal = 1;
place = "{-3, 64}";
type = Stem;
},
{
horizontal = 1;
place = "{355, 64}";
type = Stem;
},
{
horizontal = 1;
place = "{640, 64}";
type = Stem;
},
{
place = "{555, 70}";
type = Stem;
},
{
place = "{514, 70}";
type = Stem;
}
);
layerId = "1041D826-7B5A-4F1A-81FD-3B5FB25AF0FC";
paths = (
{
closed = 1;
nodes = (
"120 0 LINE",
"120 700 LINE",
"50 700 LINE",
"50 0 LINE"
);
},
{
closed = 1;
nodes = (
"527 -3 OFFCURVE",
"615 94 OFFCURVE",
"615 208 CURVE SMOOTH",
"615 335 OFFCURVE",
"529 407 OFFCURVE",
"366 407 CURVE",
"366 389 LINE",
"609 700 LINE",
"488 630 LINE",
"314 416 LINE",
"314 358 LINE",
"376 358 LINE SMOOTH",
"496 358 OFFCURVE",
"545 290 OFFCURVE",
"545 208 CURVE SMOOTH",
"545 125 OFFCURVE",
"486 65 OFFCURVE",
"396 65 CURVE SMOOTH",
"331 65 OFFCURVE",
"288 95 OFFCURVE",
"256 159 CURVE",
"193 130 LINE",
"228 48 OFFCURVE",
"307 -3 OFFCURVE",
"396 -3 CURVE SMOOTH"
);
},
{
closed = 1;
nodes = (
"50 630 LINE",
"488 630 LINE",
"609 700 LINE",
"50 700 LINE"
);
}
);
width = 630;
},
{
hints = (
{
horizontal = 1;
place = "{-3, 133}";
type = Stem;
},
{
horizontal = 1;
place = "{323, 116}";
type = Stem;
},
{
horizontal = 1;
place = "{571, 133}";
type = Stem;
},
{
place = "{52, 125}";
type = Stem;
},
{
place = "{331, 142}";
type = Stem;
},
{
place = "{294, 143}";
type = Stem;
},
{
horizontal = 1;
place = "{-152, 909}";
type = Stem;
},
{
place = "{0, 143}";
type = Stem;
},
{
horizontal = 1;
place = "{-3, 133}";
type = Stem;
},
{
horizontal = 1;
place = "{323, 116}";
type = Stem;
},
{
horizontal = 1;
place = "{571, 133}";
type = Stem;
},
{
place = "{275, 125}";
type = Stem;
},
{
place = "{554, 142}";
type = Stem;
},
{
place = "{517, 143}";
type = Stem;
}
);
layerId = "3B5F2A21-9AC0-43BD-916B-7DC2040966BF";
paths = (
{
closed = 1;
nodes = (
"193 0 LINE",
"193 700 LINE",
"50 700 LINE",
"50 0 LINE"
);
},
{
closed = 1;
nodes = (
"602 -3 OFFCURVE",
"696 102 OFFCURVE",
"696 223 CURVE SMOOTH",
"696 349 OFFCURVE",
"603 418 OFFCURVE",
"444 418 CURVE",
"443 388 LINE",
"681 700 LINE",
"438 557 LINE",
"345 449 LINE",
"345 323 LINE",
"456 323 LINE SMOOTH",
"519 323 OFFCURVE",
"554 277 OFFCURVE",
"554 223 CURVE SMOOTH",
"554 168 OFFCURVE",
"518 130 OFFCURVE",
"461 130 CURVE SMOOTH",
"394 130 OFFCURVE",
"370 180 OFFCURVE",
"363 221 CURVE",
"233 165 LINE",
"248 95 OFFCURVE",
"331 -3 OFFCURVE",
"461 -3 CURVE SMOOTH"
);
},
{
closed = 1;
nodes = (
"50 557 LINE",
"438 557 LINE",
"681 700 LINE",
"50 700 LINE"
);
}
);
width = 733;
},
{
associatedMasterId = "1041D826-7B5A-4F1A-81FD-3B5FB25AF0FC";
hints = (
{
horizontal = 1;
place = "{-164, 933}";
type = Stem;
},
{
place = "{36, 70}";
type = Stem;
},
{
horizontal = 1;
place = "{-3, 64}";
type = Stem;
},
{
horizontal = 1;
place = "{355, 64}";
type = Stem;
},
{
horizontal = 1;
place = "{640, 64}";
type = Stem;
},
{
place = "{366, 70}";
type = Stem;
},
{
place = "{325, 70}";
type = Stem;
},
{
horizontal = 1;
place = "{-3, 64}";
type = Stem;
},
{
horizontal = 1;
place = "{355, 64}";
type = Stem;
},
{
horizontal = 1;
place = "{640, 64}";
type = Stem;
},
{
place = "{555, 70}";
type = Stem;
},
{
place = "{514, 70}";
type = Stem;
}
);
layerId = "A2B7EBD0-345C-4216-B4F3-E973222430BD";
name = "26 juil. 23 à 17:28";
paths = (
{
closed = 1;
nodes = (
"120 0 LINE",
"120 700 LINE",
"50 700 LINE",
"50 0 LINE"
);
},
{
closed = 1;
nodes = (
"527 -3 OFFCURVE",
"615 94 OFFCURVE",
"615 208 CURVE SMOOTH",
"615 335 OFFCURVE",
"528 404 OFFCURVE",
"433 404 CURVE",
"433 375 LINE",
"522 375 OFFCURVE",
"574 456 OFFCURVE",
"574 529 CURVE SMOOTH",
"574 621 OFFCURVE",
"494 700 OFFCURVE",
"396 700 CURVE",
"396 632 LINE",
"456 632 OFFCURVE",
"504 588 OFFCURVE",
"504 529 CURVE SMOOTH",
"504 467 OFFCURVE",
"466 416 OFFCURVE",
"376 416 CURVE SMOOTH",
"364 416 LINE",
"364 358 LINE",
"376 358 LINE SMOOTH",
"486 358 OFFCURVE",
"545 290 OFFCURVE",
"545 208 CURVE SMOOTH",
"545 125 OFFCURVE",
"486 65 OFFCURVE",
"396 65 CURVE SMOOTH",
"331 65 OFFCURVE",
"288 95 OFFCURVE",
"256 159 CURVE",
"193 130 LINE",
"228 48 OFFCURVE",
"307 -3 OFFCURVE",
"396 -3 CURVE SMOOTH"
);
},
{
closed = 1;
nodes = (
"50 632 LINE",
"396 632 LINE",
"396 700 LINE",
"50 700 LINE"
);
}
);
width = 630;
},
{
associatedMasterId = "3B5F2A21-9AC0-43BD-916B-7DC2040966BF";
hints = (
{
horizontal = 1;
place = "{-3, 133}";
type = Stem;
},
{
horizontal = 1;
place = "{323, 116}";
type = Stem;
},
{
horizontal = 1;
place = "{571, 133}";
type = Stem;
},
{
place = "{52, 125}";
type = Stem;
},
{
place = "{331, 142}";
type = Stem;
},
{
place = "{294, 143}";
type = Stem;
},
{
horizontal = 1;
place = "{-152, 909}";
type = Stem;
},
{
place = "{0, 143}";
type = Stem;
},
{
horizontal = 1;
place = "{-3, 133}";
type = Stem;
},
{
horizontal = 1;
place = "{323, 116}";
type = Stem;
},
{
horizontal = 1;
place = "{571, 133}";
type = Stem;
},
{
place = "{275, 125}";
type = Stem;
},
{
place = "{554, 142}";
type = Stem;
},
{
place = "{517, 143}";
type = Stem;
}
);
layerId = "A9EC8282-FF15-49F1-9D5A-663D9E134332";
name = "26 juil. 23 à 17:28";
paths = (
{
closed = 1;
nodes = (
"193 0 LINE",
"193 700 LINE",
"50 700 LINE",
"50 0 LINE"
);
},
{
closed = 1;
nodes = (
"602 -3 OFFCURVE",
"696 102 OFFCURVE",
"696 223 CURVE SMOOTH",
"696 349 OFFCURVE",
"627 418 OFFCURVE",
"518 418 CURVE",
"518 355 LINE",
"624 355 OFFCURVE",
"664 451 OFFCURVE",
"664 505 CURVE SMOOTH",
"664 606 OFFCURVE",
"576 700 OFFCURVE",
"461 700 CURVE",
"461 557 LINE",
"500 557 OFFCURVE",
"524 537 OFFCURVE",
"524 505 CURVE SMOOTH",
"524 468 OFFCURVE",
"502 439 OFFCURVE",
"437 439 CURVE SMOOTH",
"423 439 LINE",
"423 323 LINE",
"434 323 LINE SMOOTH",
"518 323 OFFCURVE",
"554 277 OFFCURVE",
"554 223 CURVE SMOOTH",
"554 168 OFFCURVE",
"518 130 OFFCURVE",
"461 130 CURVE SMOOTH",
"394 130 OFFCURVE",
"370 180 OFFCURVE",
"363 221 CURVE",
"233 165 LINE",
"248 95 OFFCURVE",
"331 -3 OFFCURVE",
"461 -3 CURVE SMOOTH"
);
},
{
closed = 1;
nodes = (
"50 557 LINE",
"461 557 LINE",
"461 700 LINE",
"50 700 LINE"
);
}
);
width = 733;
}
);
unicode = 1E9E;
},
{
glyphname = T;
lastChange = "2023-07-27 12:03:26 +0000";
layers = (
{
anchors = (
{
name = bottom;
position = "{317, 0}";
},
{
name = top;
position = "{317, 700}";
}
);
hints = (
{
horizontal = 1;
place = "{636, 64}";
type = Stem;
},
{
place = "{223, 70}";
type = Stem;
}
);
layerId = "1041D826-7B5A-4F1A-81FD-3B5FB25AF0FC";
paths = (
{
closed = 1;
nodes = (
"352 0 LINE",
"352 636 LINE",
"609 636 LINE",
"609 700 LINE",
"25 700 LINE",
"25 636 LINE",
"282 636 LINE",
"282 0 LINE"
);
}
);
width = 634;
},
{
anchors = (
{
name = bottom;
position = "{330, 0}";
},
{
name = top;
position = "{330, 700}";
}
);
hints = (
{
horizontal = 1;
place = "{568, 132}";
type = Stem;
},
{
place = "{207, 143}";
type = Stem;
}
);
layerId = "3B5F2A21-9AC0-43BD-916B-7DC2040966BF";
paths = (
{
closed = 1;
nodes = (
"402 0 LINE",
"402 568 LINE",
"635 568 LINE",
"635 700 LINE",
"25 700 LINE",
"25 568 LINE",
"259 568 LINE",
"259 0 LINE"
);
}
);
width = 660;
}
);
leftKerningGroup = T;
note = T;
rightKerningGroup = T;
unicode = 0054;
},
{
glyphname = U;
lastChange = "2023-07-27 12:03:26 +0000";
layers = (
{
anchors = (
{
name = bottom;
position = "{354, 0}";
},
{
name = ogonek;
position = "{342, -11}";
},
{
name = top;
position = "{354, 700}";
}
);
hints = (
{
horizontal = 1;
place = "{-9, 64}";
type = Stem;
},
{
place = "{69, 70}";
type = Stem;
},
{
place = "{527, 70}";
type = Stem;
}
);
layerId = "1041D826-7B5A-4F1A-81FD-3B5FB25AF0FC";
paths = (
{
closed = 1;
nodes = (
"499 -6 OFFCURVE",
"628 70 OFFCURVE",
"628 265 CURVE SMOOTH",
"628 700 LINE",
"558 700 LINE",
"558 265 LINE SMOOTH",
"558 125 OFFCURVE",
"470 58 OFFCURVE",
"354 58 CURVE SMOOTH",
"238 58 OFFCURVE",
"150 125 OFFCURVE",
"150 265 CURVE SMOOTH",
"150 700 LINE",
"80 700 LINE",
"80 265 LINE SMOOTH",
"80 70 OFFCURVE",
"209 -6 OFFCURVE",
"354 -6 CURVE SMOOTH"
);
}
);
width = 708;
},
{
anchors = (
{
name = bottom;
position = "{364, 0}";
},
{
name = ogonek;
position = "{342, -11}";
},
{
name = top;
position = "{364, 700}";
}
);
hints = (
{
horizontal = 1;
place = "{-9, 132}";
type = Stem;
},
{
place = "{67, 143}";
type = Stem;
},
{
place = "{476, 143}";
type = Stem;
}
);
layerId = "3B5F2A21-9AC0-43BD-916B-7DC2040966BF";
paths = (
{
closed = 1;
nodes = (
"519 -6 OFFCURVE",
"648 70 OFFCURVE",
"648 265 CURVE SMOOTH",
"648 700 LINE",
"508 700 LINE",
"508 259 LINE SMOOTH",
"508 167 OFFCURVE",
"450 123 OFFCURVE",
"364 123 CURVE SMOOTH",
"278 123 OFFCURVE",
"220 167 OFFCURVE",
"220 259 CURVE SMOOTH",
"220 700 LINE",
"80 700 LINE",
"80 265 LINE SMOOTH",
"80 70 OFFCURVE",
"209 -6 OFFCURVE",
"364 -6 CURVE SMOOTH"
);
}
);
width = 728;
}
);
leftKerningGroup = U;
note = U;
rightKerningGroup = U;
unicode = 0055;
},
{
glyphname = V;
lastChange = "2023-07-27 12:03:26 +0000";
layers = (
{
anchors = (
{
name = bottom;
position = "{328, 0}";
},
{
name = top;
position = "{328, 700}";
}
);
hints = (
{
horizontal = 1;
place = "{0, 700}";
type = Stem;
},
{
place = "{14, 617}";
type = Stem;
}
);
layerId = "1041D826-7B5A-4F1A-81FD-3B5FB25AF0FC";
paths = (
{
closed = 1;
nodes = (
"357 0 LINE",
"628 700 LINE",
"554 700 LINE",
"315 82 LINE",
"334 82 LINE",
"94 700 LINE",
"20 700 LINE",
"292 0 LINE"
);
}
);
width = 648;
},
{
anchors = (
{
name = bottom;
position = "{352, 0}";
},
{
name = top;
position = "{352, 700}";
}
);
hints = (
{
horizontal = 1;
place = "{0, 700}";
type = Stem;
},
{
place = "{10, 665}";
type = Stem;
}
);
layerId = "3B5F2A21-9AC0-43BD-916B-7DC2040966BF";
paths = (
{
closed = 1;
nodes = (
"441 0 LINE",
"712 700 LINE",
"560 700 LINE",
"350 158 LINE",
"382 158 LINE",
"172 700 LINE",
"20 700 LINE",
"291 0 LINE"
);
}
);
width = 732;
}
);
leftKerningGroup = V;
note = V;
rightKerningGroup = V;
unicode = 0056;
},
{
glyphname = W;
lastChange = "2023-07-27 12:03:26 +0000";
layers = (
{
anchors = (
{
name = bottom;
position = "{478, 0}";
},
{
name = top;
position = "{478, 700}";
}
);
hints = (
{
horizontal = 1;
place = "{0, 700}";
type = Stem;
},
{
place = "{23, 917}";
type = Stem;
}
);
layerId = "1041D826-7B5A-4F1A-81FD-3B5FB25AF0FC";
paths = (
{
closed = 1;
nodes = (
"266 0 LINE",
"478 597 LINE",
"690 0 LINE",
"763 0 LINE",
"937 700 LINE",
"865 700 LINE",
"721 120 LINE",
"515 700 LINE",
"441 700 LINE",
"235 121 LINE",
"92 700 LINE",
"20 700 LINE",
"194 0 LINE"
);
}
);
width = 957;
},
{
anchors = (
{
name = bottom;
position = "{480, 0}";
},
{
name = top;
position = "{480, 700}";
}
);
hints = (
{
horizontal = 1;
place = "{0, 700}";
type = Stem;
},
{
place = "{11, 920}";
type = Stem;
}
);
layerId = "3B5F2A21-9AC0-43BD-916B-7DC2040966BF";
paths = (
{
closed = 1;
nodes = (
"319 0 LINE",
"480 452 LINE",
"640 0 LINE",
"766 0 LINE",
"940 700 LINE",
"793 700 LINE",
"690 284 LINE",
"542 700 LINE",
"418 700 LINE",
"270 284 LINE",
"167 700 LINE",
"20 700 LINE",
"194 0 LINE"
);
}
);
width = 960;
}
);
leftKerningGroup = W;
note = W;
rightKerningGroup = W;
unicode = 0057;
},
{
glyphname = X;
lastChange = "2023-07-27 12:03:26 +0000";
layers = (
{
anchors = (
{
name = bottom;
position = "{360, 0}";
},
{
name = top;
position = "{360, 700}";
}
);
hints = (
{
horizontal = 1;
place = "{0, 700}";
type = Stem;
},
{
place = "{18, 741}";
type = Stem;
}
);
layerId = "1041D826-7B5A-4F1A-81FD-3B5FB25AF0FC";
paths = (
{
closed = 1;
nodes = (
"325 383 LINE",
"15 0 LINE",
"102 0 LINE",
"369 330 LINE"
);
},
{
closed = 1;
nodes = (
"619 0 LINE",
"706 0 LINE",
"137 700 LINE",
"50 700 LINE"
);
},
{
closed = 1;
nodes = (
"398 360 LINE",
"675 700 LINE",
"588 700 LINE",
"354 414 LINE"
);
}
);
width = 721;
},
{
anchors = (
{
name = bottom;
position = "{401, 0}";
},
{
name = top;
position = "{401, 700}";
}
);
hints = (
{
horizontal = 1;
place = "{0, 700}";
type = Stem;
},
{
place = "{7, 823}";
type = Stem;
}
);
layerId = "3B5F2A21-9AC0-43BD-916B-7DC2040966BF";
paths = (
{
closed = 1;
nodes = (
"327 380 LINE",
"15 0 LINE",
"193 0 LINE",
"417 270 LINE"
);
},
{
closed = 1;
nodes = (
"610 0 LINE",
"788 0 LINE",
"219 700 LINE",
"40 700 LINE"
);
},
{
closed = 1;
nodes = (
"482 346 LINE",
"767 700 LINE",
"588 700 LINE",
"391 455 LINE"
);
}
);
width = 803;
}
);
leftKerningGroup = X;
note = X;
rightKerningGroup = X;
unicode = 0058;
},
{
glyphname = Y;
lastChange = "2023-07-27 12:03:26 +0000";
layers = (
{
anchors = (
{
name = bottom;
position = "{330, 0}";
},
{
name = top;
position = "{330, 700}";
}
);
hints = (
{
horizontal = 1;
place = "{0, 700}";
type = Stem;
},
{
place = "{284, 70}";
type = Stem;
}
);
layerId = "1041D826-7B5A-4F1A-81FD-3B5FB25AF0FC";
paths = (
{
closed = 1;
nodes = (
"365 0 LINE",
"365 339 LINE",
"645 700 LINE",
"559 700 LINE",
"330 405 LINE",
"101 700 LINE",
"15 700 LINE",
"295 339 LINE",
"295 0 LINE"
);
}
);
width = 660;
},
{
anchors = (
{
name = bottom;
position = "{375, 0}";
},
{
name = top;
position = "{375, 700}";
}
);
hints = (
{
horizontal = 1;
place = "{0, 700}";
type = Stem;
},
{
place = "{298, 142}";
type = Stem;
}
);
layerId = "3B5F2A21-9AC0-43BD-916B-7DC2040966BF";
paths = (
{
closed = 1;
nodes = (
"446 0 LINE",
"446 328 LINE",
"735 700 LINE",
"559 700 LINE",
"375 463 LINE",
"191 700 LINE",
"15 700 LINE",
"304 328 LINE",
"304 0 LINE"
);
}
);
width = 750;
}
);
leftKerningGroup = Y;
note = Y;
rightKerningGroup = Y;
unicode = 0059;
},
{
glyphname = Z;
lastChange = "2023-07-27 12:03:26 +0000";
layers = (
{
anchors = (
{
name = bottom;
position = "{306, 0}";
},
{
name = top;
position = "{306, 700}";
}
);
hints = (
{
horizontal = 1;
place = "{0, 64}";
type = Stem;
},
{
horizontal = 1;
place = "{636, 64}";
type = Stem;
},
{
place = "{20, 591}";
type = Stem;
}
);
layerId = "1041D826-7B5A-4F1A-81FD-3B5FB25AF0FC";
paths = (
{
closed = 1;
nodes = (
"594 0 LINE",
"594 64 LINE",
"141 64 LINE",
"602 700 LINE",
"73 700 LINE",
"73 636 LINE",
"472 636 LINE",
"10 0 LINE"
);
}
);
width = 612;
},
{
anchors = (
{
name = bottom;
position = "{354, 0}";
},
{
name = top;
position = "{354, 700}";
}
);
hints = (
{
horizontal = 1;
place = "{0, 132}";
type = Stem;
},
{
horizontal = 1;
place = "{568, 132}";
type = Stem;
},
{
place = "{6, 679}";
type = Stem;
}
);
layerId = "3B5F2A21-9AC0-43BD-916B-7DC2040966BF";
paths = (
{
closed = 1;
nodes = (
"687 0 LINE",
"687 132 LINE",
"278 132 LINE",
"689 700 LINE",
"51 700 LINE",
"51 568 LINE",
"422 568 LINE",
"10 0 LINE"
);
}
);
width = 709;
}
);
leftKerningGroup = Z;
note = Z;
rightKerningGroup = Z;
unicode = 005A;
},
{
glyphname = a;
lastChange = "2023-07-27 12:03:26 +0000";
layers = (
{
anchors = (
{
name = bottom;
position = "{251, 0}";
},
{
name = ogonek;
position = "{365, -6}";
},
{
name = top;
position = "{251, 500}";
}
);
hints = (
{
horizontal = 1;
place = "{-6, 64}";
type = Stem;
},
{
horizontal = 1;
place = "{246, 57}";
type = Stem;
},
{
horizontal = 1;
place = "{445, 64}";
type = Stem;
},
{
place = "{47, 70}";
type = Stem;
},
{
place = "{371, 70}";
type = Stem;
}
);
layerId = "1041D826-7B5A-4F1A-81FD-3B5FB25AF0FC";
paths = (
{
closed = 1;
nodes = (
"298 -6 OFFCURVE",
"352 48 OFFCURVE",
"364 108 CURVE",
"364 0 LINE",
"434 0 LINE",
"434 336 LINE SMOOTH",
"434 456 OFFCURVE",
"342 506 OFFCURVE",
"239 506 CURVE SMOOTH",
"143 506 OFFCURVE",
"87 459 OFFCURVE",
"52 415 CURVE",
"100 373 LINE",
"136 416 OFFCURVE",
"176 442 OFFCURVE",
"239 442 CURVE SMOOTH",
"317 442 OFFCURVE",
"364 410 OFFCURVE",
"364 336 CURVE SMOOTH",
"364 290 LINE",
"333 297 OFFCURVE",
"296 301 OFFCURVE",
"263 301 CURVE SMOOTH",
"147 301 OFFCURVE",
"40 267 OFFCURVE",
"40 137 CURVE SMOOTH",
"40 71 OFFCURVE",
"87 -6 OFFCURVE",
"208 -6 CURVE SMOOTH"
);
},
{
closed = 1;
nodes = (
"142 60 OFFCURVE",
"110 104 OFFCURVE",
"110 145 CURVE SMOOTH",
"110 219 OFFCURVE",
"173 247 OFFCURVE",
"277 247 CURVE SMOOTH",
"310 247 OFFCURVE",
"343 242 OFFCURVE",
"364 237 CURVE",
"364 123 OFFCURVE",
"305 60 OFFCURVE",
"208 60 CURVE SMOOTH"
);
}
);
width = 509;
},
{
anchors = (
{
name = bottom;
position = "{253, 0}";
},
{
name = ogonek;
position = "{326, -6}";
},
{
name = top;
position = "{253, 500}";
}
);
hints = (
{
horizontal = 1;
place = "{-5, 126}";
type = Stem;
},
{
horizontal = 1;
place = "{220, 99}";
type = Stem;
},
{
horizontal = 1;
place = "{392, 117}";
type = Stem;
},
{
place = "{37, 127}";
type = Stem;
},
{
place = "{324, 137}";
type = Stem;
}
);
layerId = "3B5F2A21-9AC0-43BD-916B-7DC2040966BF";
paths = (
{
closed = 1;
nodes = (
"272 -5 OFFCURVE",
"311 19 OFFCURVE",
"324 54 CURVE",
"324 0 LINE",
"461 0 LINE",
"461 316 LINE SMOOTH",
"461 441 OFFCURVE",
"358 506 OFFCURVE",
"239 506 CURVE SMOOTH",
"142 506 OFFCURVE",
"73 458 OFFCURVE",
"36 406 CURVE",
"129 322 LINE",
"158 364 OFFCURVE",
"194 382 OFFCURVE",
"239 382 CURVE SMOOTH",
"298 382 OFFCURVE",
"324 358 OFFCURVE",
"324 322 CURVE SMOOTH",
"324 311 LINE",
"302 317 OFFCURVE",
"270 322 OFFCURVE",
"239 322 CURVE SMOOTH",
"133 322 OFFCURVE",
"27 276 OFFCURVE",
"27 153 CURVE SMOOTH",
"27 72 OFFCURVE",
"81 -5 OFFCURVE",
"213 -5 CURVE SMOOTH"
);
},
{
closed = 1;
nodes = (
"181 121 OFFCURVE",
"164 141 OFFCURVE",
"164 161 CURVE SMOOTH",
"164 203 OFFCURVE",
"201 220 OFFCURVE",
"263 220 CURVE SMOOTH",
"282 220 OFFCURVE",
"306 217 OFFCURVE",
"324 211 CURVE",
"323 157 OFFCURVE",
"284 121 OFFCURVE",
"220 121 CURVE SMOOTH"
);
}
);
width = 506;
}
);
leftKerningGroup = a;
note = a;
rightKerningGroup = a;
unicode = 0061;
},
{
glyphname = ae;
lastChange = "2023-07-27 12:03:26 +0000";
layers = (
{
anchors = (
{
name = top;
position = "{445, 500}";
}
);
hints = (
{
horizontal = 1;
place = "{-10, 64}";
type = Stem;
},
{
horizontal = 1;
place = "{247, 61}";
type = Stem;
},
{
horizontal = 1;
place = "{454, 64}";
type = Stem;
},
{
place = "{47, 70}";
type = Stem;
},
{
place = "{371, 74}";
type = Stem;
},
{
place = "{776, 67.88}";
type = Stem;
},
{
horizontal = 1;
place = "{-6, 64}";
type = Stem;
},
{
horizontal = 1;
place = "{246, 57}";
type = Stem;
},
{
horizontal = 1;
place = "{445, 64}";
type = Stem;
}
);
layerId = "1041D826-7B5A-4F1A-81FD-3B5FB25AF0FC";
paths = (
{
closed = 1;
nodes = (
"728 -10 OFFCURVE",
"802 42 OFFCURVE",
"842 107 CURVE",
"785 154 LINE",
"754 92 OFFCURVE",
"699 54 OFFCURVE",
"628 54 CURVE SMOOTH",
"509 54 OFFCURVE",
"447 143 OFFCURVE",
"445 247 CURVE",
"839 247 LINE",
"853 348 OFFCURVE",
"836 402 OFFCURVE",
"801 444 CURVE SMOOTH",
"762 491 OFFCURVE",
"702 518 OFFCURVE",
"626 518 CURVE SMOOTH",
"531 518 OFFCURVE",
"463 475 OFFCURVE",
"421 413 CURVE",
"391 473 OFFCURVE",
"327 509 OFFCURVE",
"254 509 CURVE SMOOTH",
"165 509 OFFCURVE",
"109 464 OFFCURVE",
"84 436 CURVE",
"133 394 LINE",
"159 417 OFFCURVE",
"201 445 OFFCURVE",
"254 445 CURVE SMOOTH",
"322 445 OFFCURVE",
"371 403 OFFCURVE",
"371 329 CURVE SMOOTH",
"371 292 LINE",
"340 299 OFFCURVE",
"303 303 OFFCURVE",
"270 303 CURVE SMOOTH",
"154 303 OFFCURVE",
"47 267 OFFCURVE",
"47 137 CURVE SMOOTH",
"47 71 OFFCURVE",
"97 -6 OFFCURVE",
"208 -6 CURVE SMOOTH",
"274 -6 OFFCURVE",
"337 14 OFFCURVE",
"380 62 CURVE SMOOTH",
"394 78 OFFCURVE",
"404 93 OFFCURVE",
"412 109 CURVE",
"452 40 OFFCURVE",
"524 -10 OFFCURVE",
"628 -10 CURVE SMOOTH"
);
},
{
closed = 1;
nodes = (
"145 58 OFFCURVE",
"117 96 OFFCURVE",
"117 137 CURVE SMOOTH",
"117 220 OFFCURVE",
"180 246 OFFCURVE",
"284 246 CURVE SMOOTH",
"317 246 OFFCURVE",
"348 242 OFFCURVE",
"371 237 CURVE",
"371 123 OFFCURVE",
"314 58 OFFCURVE",
"208 58 CURVE SMOOTH"
);
},
{
closed = 1;
nodes = (
"468 390 OFFCURVE",
"528 454 OFFCURVE",
"626 454 CURVE SMOOTH",
"720 454 OFFCURVE",
"786 395 OFFCURVE",
"776 308 CURVE",
"450 308 LINE"
);
}
);
width = 890;
},
{
anchors = (
{
name = top;
position = "{445, 500}";
}
);
hints = (
{
horizontal = 1;
place = "{-11, 123}";
type = Stem;
},
{
horizontal = 1;
place = "{219, 108}";
type = Stem;
},
{
horizontal = 1;
place = "{402, 111}";
type = Stem;
},
{
place = "{27, 127}";
type = Stem;
},
{
place = "{314, 194}";
type = Stem;
},
{
place = "{713, 130.08}";
type = Stem;
},
{
horizontal = 1;
place = "{-5, 126}";
type = Stem;
},
{
horizontal = 1;
place = "{216, 101}";
type = Stem;
},
{
horizontal = 1;
place = "{389, 119}";
type = Stem;
}
);
layerId = "3B5F2A21-9AC0-43BD-916B-7DC2040966BF";
paths = (
{
closed = 1;
nodes = (
"732 -11 OFFCURVE",
"803 40 OFFCURVE",
"842 107 CURVE",
"739 191 LINE",
"725 147 OFFCURVE",
"685 112 OFFCURVE",
"627 112 CURVE SMOOTH",
"558 112 OFFCURVE",
"508 147 OFFCURVE",
"508 219 CURVE",
"837 219 LINE",
"854 329 OFFCURVE",
"834 390 OFFCURVE",
"795 437 CURVE SMOOTH",
"757 484 OFFCURVE",
"699 513 OFFCURVE",
"626 513 CURVE SMOOTH",
"534 513 OFFCURVE",
"467 473 OFFCURVE",
"425 417 CURVE",
"390 474 OFFCURVE",
"325 508 OFFCURVE",
"252 508 CURVE SMOOTH",
"155 508 OFFCURVE",
"93 458 OFFCURVE",
"56 406 CURVE",
"149 323 LINE",
"178 364 OFFCURVE",
"207 389 OFFCURVE",
"252 389 CURVE SMOOTH",
"291 389 OFFCURVE",
"314 360 OFFCURVE",
"314 318 CURVE SMOOTH",
"314 311 LINE",
"300 314 OFFCURVE",
"285 316 OFFCURVE",
"266 317 CURVE SMOOTH",
"147 327 OFFCURVE",
"27 293 OFFCURVE",
"27 153 CURVE SMOOTH",
"27 82 OFFCURVE",
"81 -5 OFFCURVE",
"203 -5 CURVE SMOOTH",
"266 -5 OFFCURVE",
"301 8 OFFCURVE",
"332 26 CURVE SMOOTH",
"362 44 OFFCURVE",
"390 70 OFFCURVE",
"413 101 CURVE",
"454 36 OFFCURVE",
"525 -11 OFFCURVE",
"627 -11 CURVE SMOOTH"
);
},
{
closed = 1;
nodes = (
"170 121 OFFCURVE",
"154 141 OFFCURVE",
"154 161 CURVE SMOOTH",
"154 204 OFFCURVE",
"191 216 OFFCURVE",
"253 216 CURVE SMOOTH",
"272 216 OFFCURVE",
"300 214 OFFCURVE",
"314 212 CURVE",
"314 154 OFFCURVE",
"271 121 OFFCURVE",
"207 121 CURVE SMOOTH"
);
},
{
closed = 1;
nodes = (
"532 369 OFFCURVE",
"570 402 OFFCURVE",
"626 402 CURVE SMOOTH",
"677 402 OFFCURVE",
"716 359 OFFCURVE",
"713 327 CURVE",
"521 327 LINE"
);
}
);
width = 890;
}
);
leftKerningGroup = a;
note = ae;
rightKerningGroup = e;
unicode = 00E6;
},
{
glyphname = b;
lastChange = "2023-07-27 12:03:26 +0000";
layers = (
{
anchors = (
{
name = bottom;
position = "{283, 0}";
},
{
name = top;
position = "{283, 500}";
}
);
components = (
{
name = p;
transform = "{1, 0, 0, -1, 0, 500}";
}
);
hints = (
{
horizontal = 1;
place = "{-6, 64}";
type = Stem;
},
{
horizontal = 1;
place = "{454, 64}";
type = Stem;
},
{
place = "{76, 70}";
type = Stem;
},
{
place = "{488, 70}";
type = Stem;
}
);
layerId = "1041D826-7B5A-4F1A-81FD-3B5FB25AF0FC";
width = 576;
},
{
anchors = (
{
name = bottom;
position = "{298, 0}";
},
{
name = top;
position = "{298, 500}";
}
);
components = (
{
name = p;
transform = "{1, 0, 0, -1, 0, 500}";
}
);
hints = (
{
horizontal = 1;
place = "{-7, 128}";
type = Stem;
},
{
horizontal = 1;
place = "{382, 127}";
type = Stem;
},
{
place = "{72, 137}";
type = Stem;
},
{
place = "{425, 137}";
type = Stem;
}
);
layerId = "3B5F2A21-9AC0-43BD-916B-7DC2040966BF";
width = 606;
},
{
anchors = (
{
name = bottom;
position = "{293, 0}";
},
{
name = top;
position = "{293, 500}";
}
);
associatedMasterId = "3B5F2A21-9AC0-43BD-916B-7DC2040966BF";
hints = (
{
horizontal = 1;
place = "{-7, 128}";
type = Stem;
},
{
horizontal = 1;
place = "{382, 127}";
type = Stem;
},
{
place = "{72, 137}";
type = Stem;
},
{
place = "{425, 137}";
type = Stem;
}
);
layerId = "503A9756-814F-4858-832D-3855755A0157";
name = "26 juil. 23 à 11:52";
paths = (
{
closed = 1;
nodes = (
"453 -7 OFFCURVE",
"562 110 OFFCURVE",
"562 253 CURVE SMOOTH",
"562 397 OFFCURVE",
"448 509 OFFCURVE",
"304 509 CURVE SMOOTH",
"263 509 OFFCURVE",
"232 499 OFFCURVE",
"209 483 CURVE",
"209 700 LINE",
"72 700 LINE",
"72 0 LINE",
"209 0 LINE",
"209 20 LINE",
"236 3 OFFCURVE",
"269 -7 OFFCURVE",
"310 -7 CURVE SMOOTH"
);
},
{
closed = 1;
nodes = (
"263 121 OFFCURVE",
"229 139 OFFCURVE",
"209 163 CURVE",
"209 333 LINE",
"222 360 OFFCURVE",
"252 382 OFFCURVE",
"304 382 CURVE SMOOTH",
"368 382 OFFCURVE",
"425 330 OFFCURVE",
"425 253 CURVE SMOOTH",
"425 176 OFFCURVE",
"373 121 OFFCURVE",
"310 121 CURVE SMOOTH"
);
}
);
width = 587;
},
{
anchors = (
{
name = bottom;
position = "{293, 0}";
},
{
name = top;
position = "{293, 500}";
}
);
associatedMasterId = "1041D826-7B5A-4F1A-81FD-3B5FB25AF0FC";
hints = (
{
horizontal = 1;
place = "{-6, 64}";
type = Stem;
},
{
horizontal = 1;
place = "{454, 64}";
type = Stem;
},
{
place = "{76, 70}";
type = Stem;
},
{
place = "{488, 70}";
type = Stem;
}
);
layerId = "8130054F-8247-43B9-AA21-8BD55B4CF1A9";
name = "26 juil. 23 à 11:52";
paths = (
{
closed = 1;
nodes = (
"450 -6 OFFCURVE",
"558 108 OFFCURVE",
"558 254 CURVE SMOOTH",
"558 399 OFFCURVE",
"443 518 OFFCURVE",
"302 518 CURVE SMOOTH",
"232 518 OFFCURVE",
"181 489 OFFCURVE",
"146 453 CURVE",
"146 700 LINE",
"76 700 LINE",
"76 0 LINE",
"146 0 LINE",
"146 59 LINE",
"185 18 OFFCURVE",
"240 -6 OFFCURVE",
"309 -6 CURVE SMOOTH"
);
},
{
closed = 1;
nodes = (
"223 58 OFFCURVE",
"166 107 OFFCURVE",
"146 158 CURVE",
"146 356 LINE",
"163 403 OFFCURVE",
"214 454 OFFCURVE",
"302 454 CURVE SMOOTH",
"402 454 OFFCURVE",
"488 366 OFFCURVE",
"488 254 CURVE SMOOTH",
"488 141 OFFCURVE",
"408 58 OFFCURVE",
"309 58 CURVE SMOOTH"
);
}
);
width = 587;
}
);
leftKerningGroup = b;
note = b;
rightKerningGroup = b;
unicode = 0062;
},
{
glyphname = c;
lastChange = "2023-07-27 12:03:26 +0000";
layers = (
{
anchors = (
{
name = bottom;
position = "{260, 0}";
},
{
name = top;
position = "{260, 500}";
}
);
hints = (
{
horizontal = 1;
place = "{-11, 64}";
type = Stem;
},
{
horizontal = 1;
place = "{452, 64}";
type = Stem;
},
{
place = "{37, 70}";
type = Stem;
}
);
layerId = "1041D826-7B5A-4F1A-81FD-3B5FB25AF0FC";
paths = (
{
closed = 1;
nodes = (
"396 -6 OFFCURVE",
"463 38 OFFCURVE",
"501 93 CURVE",
"448 136 LINE",
"421 94 OFFCURVE",
"380 58 OFFCURVE",
"298 58 CURVE SMOOTH",
"193 58 OFFCURVE",
"105 126 OFFCURVE",
"105 251 CURVE SMOOTH",
"105 369 OFFCURVE",
"191 442 OFFCURVE",
"298 442 CURVE SMOOTH",
"363 442 OFFCURVE",
"420 410 OFFCURVE",
"442 361 CURVE",
"494 406 LINE",
"458 474 OFFCURVE",
"372 506 OFFCURVE",
"298 506 CURVE SMOOTH",
"149 506 OFFCURVE",
"35 402 OFFCURVE",
"35 251 CURVE SMOOTH",
"35 92 OFFCURVE",
"153 -6 OFFCURVE",
"298 -6 CURVE SMOOTH"
);
}
);
width = 531;
},
{
anchors = (
{
name = bottom;
position = "{279, 0}";
},
{
name = top;
position = "{279, 500}";
}
);
hints = (
{
horizontal = 1;
place = "{-9, 126}";
type = Stem;
},
{
horizontal = 1;
place = "{388, 127}";
type = Stem;
},
{
place = "{32, 137}";
type = Stem;
}
);
layerId = "3B5F2A21-9AC0-43BD-916B-7DC2040966BF";
paths = (
{
closed = 1;
nodes = (
"419 -6 OFFCURVE",
"498 45 OFFCURVE",
"538 111 CURVE",
"436 194 LINE",
"411 143 OFFCURVE",
"367 120 OFFCURVE",
"309 120 CURVE SMOOTH",
"231 120 OFFCURVE",
"172 168 OFFCURVE",
"172 250 CURVE SMOOTH",
"172 327 OFFCURVE",
"230 379 OFFCURVE",
"309 379 CURVE SMOOTH",
"353 379 OFFCURVE",
"406 359 OFFCURVE",
"431 313 CURVE",
"527 404 LINE",
"487 461 OFFCURVE",
"403 506 OFFCURVE",
"309 506 CURVE SMOOTH",
"148 506 OFFCURVE",
"35 392 OFFCURVE",
"35 250 CURVE SMOOTH",
"35 100 OFFCURVE",
"153 -6 OFFCURVE",
"309 -6 CURVE SMOOTH"
);
}
);
width = 568;
}
);
leftKerningGroup = c;
note = c;
rightKerningGroup = c;
unicode = 0063;
},
{
glyphname = eth;
lastChange = "2023-07-27 12:03:26 +0000";
layers = (
{
hints = (
{
horizontal = 1;
place = "{-9, 64}";
type = Stem;
},
{
horizontal = 1;
place = "{403, 64}";
type = Stem;
},
{
horizontal = 1;
place = "{674, 64}";
type = Stem;
},
{
place = "{93, 70}";
type = Stem;
},
{
place = "{425, 70}";
type = Stem;
}
);
layerId = "1041D826-7B5A-4F1A-81FD-3B5FB25AF0FC";
paths = (
{
closed = 1;
nodes = (
"411 -9 OFFCURVE",
"495 106 OFFCURVE",
"495 229 CURVE SMOOTH",
"495 407 OFFCURVE",
"432 567 OFFCURVE",
"320 658 CURVE",
"395 744 LINE",
"342 786 LINE",
"264 696 LINE",
"213 723 OFFCURVE",
"155 738 OFFCURVE",
"90 738 CURVE",
"90 674 LINE",
"137 674 OFFCURVE",
"180 664 OFFCURVE",
"219 644 CURVE",
"179 598 LINE",
"232 556 LINE",
"276 607 LINE",
"326 566 OFFCURVE",
"364 508 OFFCURVE",
"390 439 CURVE",
"361 457 OFFCURVE",
"329 467 OFFCURVE",
"294 467 CURVE SMOOTH",
"174 467 OFFCURVE",
"93 351 OFFCURVE",
"93 229 CURVE SMOOTH",
"93 98 OFFCURVE",
"183 -9 OFFCURVE",
"294 -9 CURVE SMOOTH"
);
},
{
closed = 1;
nodes = (
"227 55 OFFCURVE",
"163 129 OFFCURVE",
"163 229 CURVE SMOOTH",
"163 316 OFFCURVE",
"217 403 OFFCURVE",
"294 403 CURVE SMOOTH",
"361 403 OFFCURVE",
"425 329 OFFCURVE",
"425 229 CURVE SMOOTH",
"425 148 OFFCURVE",
"375 55 OFFCURVE",
"294 55 CURVE SMOOTH"
);
}
);
width = 600;
},
{
hints = (
{
horizontal = 1;
place = "{-3, 133}";
type = Stem;
},
{
horizontal = 1;
place = "{366, 132}";
type = Stem;
},
{
horizontal = 1;
place = "{607.13, 129.87}";
type = Stem;
},
{
place = "{74, 143}";
type = Stem;
},
{
place = "{371, 142}";
type = Stem;
}
);
layerId = "3B5F2A21-9AC0-43BD-916B-7DC2040966BF";
paths = (
{
closed = 1;
nodes = (
"421 -3 OFFCURVE",
"513 114 OFFCURVE",
"513 261 CURVE SMOOTH",
"513 412 OFFCURVE",
"460 564 OFFCURVE",
"349 655 CURVE",
"413 728 LINE",
"331 798 LINE",
"256 711 LINE",
"202 733 OFFCURVE",
"140 744 OFFCURVE",
"71 737 CURVE",
"71 604 LINE",
"103 609 OFFCURVE",
"133 608 OFFCURVE",
"161 602 CURVE",
"135 572 LINE",
"216 502 LINE",
"258 551 LINE",
"275 536 OFFCURVE",
"294 516 OFFCURVE",
"307 496 CURVE",
"305 497 OFFCURVE",
"299 498 OFFCURVE",
"294 498 CURVE SMOOTH",
"171 498 OFFCURVE",
"74 381 OFFCURVE",
"74 248 CURVE SMOOTH",
"74 112 OFFCURVE",
"170 -3 OFFCURVE",
"294 -3 CURVE SMOOTH"
);
},
{
closed = 1;
nodes = (
"258 130 OFFCURVE",
"217 177 OFFCURVE",
"217 248 CURVE SMOOTH",
"217 319 OFFCURVE",
"249 366 OFFCURVE",
"294 366 CURVE SMOOTH",
"329 366 OFFCURVE",
"371 319 OFFCURVE",
"371 249 CURVE SMOOTH",
"371 174 OFFCURVE",
"338 130 OFFCURVE",
"294 130 CURVE SMOOTH"
);
}
);
width = 600;
}
);
leftKerningGroup = c;
note = eth;
rightKerningGroup = eth;
unicode = 00F0;
},
{
glyphname = e;
lastChange = "2023-07-27 12:03:26 +0000";
layers = (
{
anchors = (
{
name = bottom;
position = "{286, 0}";
},
{
name = ogonek;
position = "{405, 33}";
},
{
name = top;
position = "{286, 500}";
}
);
background = {
paths = (
{
closed = 1;
nodes = (
"111 292 LINE",
"144 282 LINE",
"128 376 OFFCURVE",
"189 449 OFFCURVE",
"287 449 CURVE SMOOTH",
"380 449 OFFCURVE",
"469 394 OFFCURVE",
"469 260 CURVE SMOOTH",
"469 115 OFFCURVE",
"381 54 OFFCURVE",
"286 54 CURVE SMOOTH",
"214 54 OFFCURVE",
"157 89 OFFCURVE",
"126 151 CURVE",
"71 107 LINE",
"111 42 OFFCURVE",
"185 -10 OFFCURVE",
"286 -10 CURVE SMOOTH",
"455 -10 OFFCURVE",
"539 118 OFFCURVE",
"539 260 CURVE SMOOTH",
"539 401 OFFCURVE",
"444 513 OFFCURVE",
"287 513 CURVE SMOOTH",
"138 513 OFFCURVE",
"47 398 OFFCURVE",
"76 237 CURVE",
"503 237 LINE",
"503 292 LINE"
);
}
);
};
hints = (
{
horizontal = 1;
place = "{-10, 64}";
type = Stem;
},
{
horizontal = 1;
place = "{247, 61}";
type = Stem;
},
{
horizontal = 1;
place = "{454, 64}";
type = Stem;
},
{
place = "{38, 70}";
type = Stem;
},
{
place = "{439, 68.04}";
type = Stem;
}
);
layerId = "1041D826-7B5A-4F1A-81FD-3B5FB25AF0FC";
paths = (
{
closed = 1;
nodes = (
"71 237 LINE",
"498 237 LINE",
"525 380 OFFCURVE",
"444 513 OFFCURVE",
"277 513 CURVE SMOOTH",
"120 513 OFFCURVE",
"35 401 OFFCURVE",
"35 260 CURVE SMOOTH",
"35 118 OFFCURVE",
"119 -10 OFFCURVE",
"288 -10 CURVE SMOOTH",
"427 -10 OFFCURVE",
"485 78 OFFCURVE",
"501 108 CURVE",
"447 150 LINE",
"425 97 OFFCURVE",
"378 54 OFFCURVE",
"288 54 CURVE SMOOTH",
"183 54 OFFCURVE",
"105 125 OFFCURVE",
"105 260 CURVE SMOOTH",
"105 394 OFFCURVE",
"184 455 OFFCURVE",
"277 455 CURVE SMOOTH",
"385 455 OFFCURVE",
"444 383 OFFCURVE",
"428 272 CURVE",
"447 292 LINE",
"71 292 LINE"
);
}
);
width = 533;
},
{
anchors = (
{
name = bottom;
position = "{298, 0}";
},
{
name = ogonek;
position = "{409, 38}";
},
{
name = top;
position = "{298, 500}";
}
);
background = {
paths = (
{
closed = 1;
nodes = (
"187 322 LINE",
"224 300 LINE",
"210 350 OFFCURVE",
"231 402 OFFCURVE",
"316 402 CURVE SMOOTH",
"396 402 OFFCURVE",
"430 345 OFFCURVE",
"430 257 CURVE SMOOTH",
"430 142 OFFCURVE",
"379 112 OFFCURVE",
"301 112 CURVE SMOOTH",
"232 112 OFFCURVE",
"192 147 OFFCURVE",
"179 191 CURVE",
"75 107 LINE",
"115 40 OFFCURVE",
"186 -11 OFFCURVE",
"301 -11 CURVE SMOOTH",
"483 -11 OFFCURVE",
"566 119 OFFCURVE",
"566 257 CURVE SMOOTH",
"566 405 OFFCURVE",
"475 513 OFFCURVE",
"316 513 CURVE SMOOTH",
"202 513 OFFCURVE",
"47 458 OFFCURVE",
"80 219 CURVE",
"500 219 LINE",
"500 322 LINE"
);
}
);
};
hints = (
{
horizontal = 1;
place = "{-11, 123}";
type = Stem;
},
{
horizontal = 1;
place = "{219, 108}";
type = Stem;
},
{
horizontal = 1;
place = "{402, 111}";
type = Stem;
},
{
place = "{35, 137}";
type = Stem;
},
{
place = "{377, 129.53}";
type = Stem;
}
);
layerId = "3B5F2A21-9AC0-43BD-916B-7DC2040966BF";
paths = (
{
closed = 1;
nodes = (
"101 219 LINE",
"521 219 LINE",
"554 458 OFFCURVE",
"399 513 OFFCURVE",
"285 513 CURVE SMOOTH",
"126 513 OFFCURVE",
"35 405 OFFCURVE",
"35 257 CURVE SMOOTH",
"35 119 OFFCURVE",
"118 -11 OFFCURVE",
"300 -11 CURVE SMOOTH",
"415 -11 OFFCURVE",
"487 40 OFFCURVE",
"527 107 CURVE",
"423 191 LINE",
"410 147 OFFCURVE",
"379 112 OFFCURVE",
"300 112 CURVE SMOOTH",
"222 112 OFFCURVE",
"171 152 OFFCURVE",
"171 257 CURVE SMOOTH",
"171 355 OFFCURVE",
"205 400 OFFCURVE",
"285 400 CURVE SMOOTH",
"370 400 OFFCURVE",
"391 350 OFFCURVE",
"377 290 CURVE",
"417 322 LINE",
"101 322 LINE"
);
}
);
width = 557;
}
);
leftKerningGroup = c;
note = e;
rightKerningGroup = e;
unicode = 0065;
},
{
glyphname = f;
lastChange = "2023-07-27 12:03:26 +0000";
layers = (
{
anchors = (
{
name = bottom;
position = "{172, 0}";
},
{
name = top;
position = "{172, 500}";
}
);
hints = (
{
horizontal = 1;
place = "{443, 64}";
type = Stem;
},
{
horizontal = 1;
place = "{653, 62}";
type = Stem;
},
{
place = "{103, 70}";
type = Stem;
}
);
layerId = "1041D826-7B5A-4F1A-81FD-3B5FB25AF0FC";
paths = (
{
closed = 1;
nodes = (
"173 0 LINE",
"173 436 LINE",
"316 436 LINE",
"316 500 LINE",
"173 500 LINE",
"173 571 LINE SMOOTH",
"173 622 OFFCURVE",
"190 653 OFFCURVE",
"236 653 CURVE SMOOTH",
"255 653 OFFCURVE",
"283 646 OFFCURVE",
"309 616 CURVE",
"345 667 LINE",
"323 698 OFFCURVE",
"279 715 OFFCURVE",
"231 715 CURVE SMOOTH",
"133 715 OFFCURVE",
"103 653 OFFCURVE",
"103 571 CURVE SMOOTH",
"103 500 LINE",
"9 500 LINE",
"9 436 LINE",
"103 436 LINE",
"103 0 LINE"
);
}
);
width = 344;
},
{
anchors = (
{
name = bottom;
position = "{197, 0}";
},
{
name = top;
position = "{197, 500}";
}
);
hints = (
{
horizontal = 1;
place = "{380, 127}";
type = Stem;
},
{
horizontal = 1;
place = "{591, 120}";
type = Stem;
},
{
place = "{96, 137}";
type = Stem;
}
);
layerId = "3B5F2A21-9AC0-43BD-916B-7DC2040966BF";
paths = (
{
closed = 1;
nodes = (
"233 0 LINE",
"233 373 LINE",
"355 373 LINE",
"355 500 LINE",
"233 500 LINE",
"233 542 LINE SMOOTH",
"233 579 OFFCURVE",
"249 591 OFFCURVE",
"265 591 CURVE SMOOTH",
"283 591 OFFCURVE",
"302 580 OFFCURVE",
"323 551 CURVE",
"388 653 LINE",
"349 699 OFFCURVE",
"296 711 OFFCURVE",
"248 711 CURVE SMOOTH",
"120 711 OFFCURVE",
"96 622 OFFCURVE",
"96 542 CURVE SMOOTH",
"96 500 LINE",
"15 500 LINE",
"15 373 LINE",
"96 373 LINE",
"96 0 LINE"
);
}
);
width = 394;
}
);
leftKerningGroup = f;
note = f;
rightKerningGroup = f;
unicode = 0066;
},
{
glyphname = g;
lastChange = "2023-07-27 12:03:26 +0000";
layers = (
{
anchors = (
{
name = bottom;
position = "{280, 0}";
},
{
name = top;
position = "{280, 500}";
}
);
hints = (
{
horizontal = 1;
place = "{-301, 64}";
type = Stem;
},
{
horizontal = 1;
place = "{-20, 64}";
type = Stem;
},
{
horizontal = 1;
place = "{147, 64}";
type = Stem;
},
{
horizontal = 1;
place = "{436, 58.5}";
type = Stem;
},
{
place = "{38.87, 70.13}";
type = Stem;
},
{
place = "{455, 70}";
type = Stem;
},
{
horizontal = 1;
place = "{446, 64}";
type = Stem;
},
{
place = "{90, 70}";
type = Stem;
},
{
place = "{33, 67}";
type = Stem;
},
{
place = "{385, 70}";
type = Stem;
}
);
layerId = "1041D826-7B5A-4F1A-81FD-3B5FB25AF0FC";
paths = (
{
closed = 1;
nodes = (
"404 434 LINE",
"520 417 LINE",
"531 495 LINE",
"342 484 LINE"
);
},
{
closed = 1;
nodes = (
"212 207 OFFCURVE",
"160 255 OFFCURVE",
"160 325 CURVE SMOOTH",
"160 395 OFFCURVE",
"212 442 OFFCURVE",
"272 442 CURVE SMOOTH",
"332 442 OFFCURVE",
"385 395 OFFCURVE",
"385 325 CURVE SMOOTH",
"385 255 OFFCURVE",
"333 207 OFFCURVE",
"272 207 CURVE SMOOTH"
);
},
{
closed = 1;
nodes = (
"372 506 OFFCURVE",
"272 506 CURVE SMOOTH",
"172 506 OFFCURVE",
"90 425 OFFCURVE",
"90 325 CURVE SMOOTH",
"90 269 OFFCURVE",
"114 220 OFFCURVE",
"154 186 CURVE",
"189 199 LINE",
"98 211 OFFCURVE",
"39 156 OFFCURVE",
"39 91 CURVE SMOOTH",
"39 -27 OFFCURVE",
"175 -24 OFFCURVE",
"297 -24 CURVE SMOOTH",
"390 -24 OFFCURVE",
"456 -37 OFFCURVE",
"456 -111 CURVE SMOOTH",
"456 -201 OFFCURVE",
"371 -241 OFFCURVE",
"251 -241 CURVE SMOOTH",
"131 -241 OFFCURVE",
"95 -184 OFFCURVE",
"96 -124 CURVE SMOOTH",
"97 -75 OFFCURVE",
"138 -28 OFFCURVE",
"184 -17 CURVE",
"139 2 LINE",
"78 -25 OFFCURVE",
"33 -79 OFFCURVE",
"33 -149 CURVE SMOOTH",
"33 -228 OFFCURVE",
"95 -305 OFFCURVE",
"250 -305 CURVE SMOOTH",
"444 -305 OFFCURVE",
"525 -213 OFFCURVE",
"525 -107 CURVE SMOOTH",
"525 26 OFFCURVE",
"411 40 OFFCURVE",
"284 40 CURVE SMOOTH",
"256 40 OFFCURVE",
"230 39 OFFCURVE",
"209 39 CURVE SMOOTH",
"150 39 OFFCURVE",
"103 51 OFFCURVE",
"103 100 CURVE SMOOTH",
"103 163 OFFCURVE",
"166 169 OFFCURVE",
"192 159 CURVE SMOOTH",
"227 146 OFFCURVE",
"245 143 OFFCURVE",
"272 143 CURVE SMOOTH",
"373 143 OFFCURVE",
"455 224 OFFCURVE",
"455 325 CURVE SMOOTH",
"455 425 OFFCURVE"
);
}
);
width = 561;
},
{
anchors = (
{
name = bottom;
position = "{283, 0}";
},
{
name = top;
position = "{283, 500}";
}
);
hints = (
{
horizontal = 1;
place = "{-301, 111}";
type = Stem;
},
{
horizontal = 1;
place = "{-51, 120}";
type = Stem;
},
{
horizontal = 1;
place = "{126, 126}";
type = Stem;
},
{
horizontal = 1;
place = "{382, 127}";
type = Stem;
},
{
place = "{77, 137}";
type = Stem;
},
{
place = "{409, 129}";
type = Stem;
},
{
place = "{20, 102}";
type = Stem;
},
{
place = "{21, 121}";
type = Stem;
},
{
place = "{331, 137}";
type = Stem;
}
);
layerId = "3B5F2A21-9AC0-43BD-916B-7DC2040966BF";
paths = (
{
closed = 1;
nodes = (
"437 390 LINE",
"549 371 LINE",
"555 496 LINE",
"337 487 LINE"
);
},
{
closed = 1;
nodes = (
"242 249 OFFCURVE",
"214 272 OFFCURVE",
"214 314 CURVE SMOOTH",
"214 356 OFFCURVE",
"242 379 OFFCURVE",
"272 379 CURVE SMOOTH",
"302 379 OFFCURVE",
"331 356 OFFCURVE",
"331 314 CURVE SMOOTH",
"331 272 OFFCURVE",
"303 249 OFFCURVE",
"272 249 CURVE SMOOTH"
);
},
{
closed = 1;
nodes = (
"380 506 OFFCURVE",
"272 506 CURVE SMOOTH",
"164 506 OFFCURVE",
"77 420 OFFCURVE",
"77 314 CURVE SMOOTH",
"77 263 OFFCURVE",
"98 216 OFFCURVE",
"131 182 CURVE",
"197 203 LINE",
"108 231 OFFCURVE",
"6 191 OFFCURVE",
"6 88 CURVE SMOOTH",
"6 -39 OFFCURVE",
"110 -54 OFFCURVE",
"319 -54 CURVE SMOOTH",
"361 -54 OFFCURVE",
"406 -66 OFFCURVE",
"406 -114 CURVE SMOOTH",
"406 -166 OFFCURVE",
"327 -180 OFFCURVE",
"251 -180 CURVE SMOOTH",
"173 -180 OFFCURVE",
"141 -155 OFFCURVE",
"141 -119 CURVE SMOOTH",
"141 -73 OFFCURVE",
"184 -46 OFFCURVE",
"201 -46 CURVE",
"128 -17 LINE",
"72 -39 OFFCURVE",
"20 -90 OFFCURVE",
"20 -156 CURVE SMOOTH",
"20 -262 OFFCURVE",
"119 -304 OFFCURVE",
"249 -304 CURVE SMOOTH",
"435 -304 OFFCURVE",
"538 -239 OFFCURVE",
"538 -95 CURVE SMOOTH",
"538 49 OFFCURVE",
"398 66 OFFCURVE",
"282 66 CURVE SMOOTH",
"255 66 OFFCURVE",
"230 65 OFFCURVE",
"210 65 CURVE SMOOTH",
"152 65 OFFCURVE",
"125 75 OFFCURVE",
"125 106 CURVE SMOOTH",
"125 141 OFFCURVE",
"167 141 OFFCURVE",
"194 133 CURVE SMOOTH",
"216 126 OFFCURVE",
"243 123 OFFCURVE",
"272 123 CURVE SMOOTH",
"380 123 OFFCURVE",
"468 209 OFFCURVE",
"468 314 CURVE SMOOTH",
"468 420 OFFCURVE"
);
}
);
width = 567;
},
{
anchors = (
{
name = bottom;
position = "{283, 0}";
},
{
name = top;
position = "{283, 500}";
}
);
associatedMasterId = "3B5F2A21-9AC0-43BD-916B-7DC2040966BF";
hints = (
{
horizontal = 1;
place = "{-301, 111}";
type = Stem;
},
{
horizontal = 1;
place = "{-51, 120}";
type = Stem;
},
{
horizontal = 1;
place = "{126, 126}";
type = Stem;
},
{
horizontal = 1;
place = "{382, 127}";
type = Stem;
},
{
place = "{77, 137}";
type = Stem;
},
{
place = "{409, 129}";
type = Stem;
},
{
place = "{20, 102}";
type = Stem;
},
{
place = "{21, 121}";
type = Stem;
},
{
place = "{331, 137}";
type = Stem;
}
);
layerId = "00060772-D605-4FE6-B0F1-D2CD124D3AFE";
name = "26 juil. 23 à 10:57";
paths = (
{
closed = 1;
nodes = (
"435 -301 OFFCURVE",
"538 -236 OFFCURVE",
"538 -92 CURVE SMOOTH",
"538 52 OFFCURVE",
"398 69 OFFCURVE",
"282 69 CURVE SMOOTH",
"255 69 OFFCURVE",
"230 68 OFFCURVE",
"210 68 CURVE SMOOTH",
"152 68 OFFCURVE",
"125 78 OFFCURVE",
"125 109 CURVE SMOOTH",
"125 131 OFFCURVE",
"152 153 OFFCURVE",
"194 136 CURVE SMOOTH",
"217 127 OFFCURVE",
"243 126 OFFCURVE",
"272 126 CURVE SMOOTH",
"380 126 OFFCURVE",
"468 212 OFFCURVE",
"468 317 CURVE SMOOTH",
"468 343 OFFCURVE",
"462 367 OFFCURVE",
"453 390 CURVE",
"533 379 LINE",
"539 504 LINE",
"353 491 LINE",
"328 503 OFFCURVE",
"301 509 OFFCURVE",
"272 509 CURVE SMOOTH",
"164 509 OFFCURVE",
"77 423 OFFCURVE",
"77 317 CURVE SMOOTH",
"77 266 OFFCURVE",
"98 219 OFFCURVE",
"131 185 CURVE",
"197 206 LINE",
"99 236 OFFCURVE",
"6 186 OFFCURVE",
"6 91 CURVE SMOOTH",
"6 32 OFFCURVE",
"50 -10 OFFCURVE",
"94 -27 CURVE",
"84 -32 OFFCURVE",
"27 -55 OFFCURVE",
"21 -125 CURVE SMOOTH",
"10 -243 OFFCURVE",
"112 -301 OFFCURVE",
"249 -301 CURVE SMOOTH"
);
},
{
closed = 1;
nodes = (
"164 -190 OFFCURVE",
"134 -151 OFFCURVE",
"142 -115 CURVE SMOOTH",
"148 -84 OFFCURVE",
"177 -58 OFFCURVE",
"192 -49 CURVE",
"205 -49 OFFCURVE",
"253 -51 OFFCURVE",
"319 -51 CURVE SMOOTH",
"365 -51 OFFCURVE",
"405 -65 OFFCURVE",
"409 -100 CURVE SMOOTH",
"419 -175 OFFCURVE",
"331 -190 OFFCURVE",
"251 -190 CURVE SMOOTH"
);
},
{
closed = 1;
nodes = (
"242 252 OFFCURVE",
"214 280 OFFCURVE",
"214 317 CURVE SMOOTH",
"214 354 OFFCURVE",
"242 382 OFFCURVE",
"272 382 CURVE SMOOTH",
"303 382 OFFCURVE",
"331 354 OFFCURVE",
"331 317 CURVE SMOOTH",
"331 280 OFFCURVE",
"303 252 OFFCURVE",
"272 252 CURVE SMOOTH"
);
}
);
width = 567;
}
);
leftKerningGroup = g;
note = g;
rightKerningGroup = g;
unicode = 0067;
},
{
glyphname = h;
lastChange = "2023-07-27 12:03:26 +0000";
layers = (
{
anchors = (
{
name = bottom;
position = "{280, 0}";
},
{
name = top;
position = "{280, 500}";
}
);
hints = (
{
horizontal = 1;
place = "{450, 63}";
type = Stem;
},
{
place = "{76, 70}";
type = Stem;
},
{
place = "{425, 70}";
type = Stem;
}
);
layerId = "1041D826-7B5A-4F1A-81FD-3B5FB25AF0FC";
paths = (
{
closed = 1;
nodes = (
"120 0 LINE",
"120 318 LINE",
"130 376 OFFCURVE",
"191 442 OFFCURVE",
"271 442 CURVE SMOOTH",
"359 442 OFFCURVE",
"406 396 OFFCURVE",
"406 293 CURVE SMOOTH",
"406 0 LINE",
"476 0 LINE",
"476 294 LINE SMOOTH",
"476 437 OFFCURVE",
"411 506 OFFCURVE",
"281 506 CURVE SMOOTH",
"202 506 OFFCURVE",
"140 449 OFFCURVE",
"120 396 CURVE",
"120 700 LINE",
"50 700 LINE",
"50 0 LINE"
);
}
);
width = 526;
},
{
anchors = (
{
name = bottom;
position = "{280, 0}";
},
{
name = top;
position = "{280, 500}";
}
);
hints = (
{
horizontal = 1;
place = "{385, 126}";
type = Stem;
},
{
place = "{67, 137}";
type = Stem;
},
{
place = "{384, 137}";
type = Stem;
}
);
layerId = "3B5F2A21-9AC0-43BD-916B-7DC2040966BF";
paths = (
{
closed = 1;
nodes = (
"187 0 LINE",
"187 319 LINE",
"207 360 OFFCURVE",
"255 379 OFFCURVE",
"292 379 CURVE SMOOTH",
"354 379 OFFCURVE",
"387 347 OFFCURVE",
"387 282 CURVE SMOOTH",
"387 0 LINE",
"524 0 LINE",
"524 282 LINE SMOOTH",
"524 403 OFFCURVE",
"466 506 OFFCURVE",
"317 506 CURVE SMOOTH",
"257 506 OFFCURVE",
"207 476 OFFCURVE",
"187 436 CURVE",
"187 700 LINE",
"50 700 LINE",
"50 0 LINE"
);
}
);
width = 574;
},
{
anchors = (
{
name = bottom;
position = "{280, 0}";
},
{
name = top;
position = "{280, 500}";
}
);
associatedMasterId = "3B5F2A21-9AC0-43BD-916B-7DC2040966BF";
hints = (
{
horizontal = 1;
place = "{385, 126}";
type = Stem;
},
{
place = "{67, 137}";
type = Stem;
},
{
place = "{384, 137}";
type = Stem;
}
);
layerId = "CDA2E786-E03E-4F7E-9EC4-3A8C577C3254";
name = "26 juil. 23 à 12:20";
paths = (
{
closed = 1;
nodes = (
"204 0 LINE",
"204 325 LINE",
"227 370 OFFCURVE",
"268 385 OFFCURVE",
"299 385 CURVE SMOOTH",
"351 385 OFFCURVE",
"384 352 OFFCURVE",
"384 297 CURVE SMOOTH",
"384 0 LINE",
"521 0 LINE",
"521 297 LINE SMOOTH",
"521 418 OFFCURVE",
"434 511 OFFCURVE",
"304 511 CURVE SMOOTH",
"265 511 OFFCURVE",
"232 500 OFFCURVE",
"204 481 CURVE",
"204 700 LINE",
"67 700 LINE",
"67 0 LINE"
);
}
);
width = 561;
},
{
anchors = (
{
name = bottom;
position = "{280, 0}";
},
{
name = top;
position = "{280, 500}";
}
);
associatedMasterId = "1041D826-7B5A-4F1A-81FD-3B5FB25AF0FC";
hints = (
{
horizontal = 1;
place = "{450, 63}";
type = Stem;
},
{
place = "{76, 70}";
type = Stem;
},
{
place = "{425, 70}";
type = Stem;
}
);
layerId = "2875B733-FB26-4244-AA3B-27AD42F863E3";
name = "26 juil. 23 à 12:20";
paths = (
{
closed = 1;
nodes = (
"146 0 LINE",
"146 352 LINE",
"164 402 OFFCURVE",
"212 450 OFFCURVE",
"280 450 CURVE SMOOTH",
"367 450 OFFCURVE",
"425 395 OFFCURVE",
"425 285 CURVE SMOOTH",
"425 0 LINE",
"495 0 LINE",
"495 285 LINE SMOOTH",
"495 433 OFFCURVE",
"406 513 OFFCURVE",
"280 513 CURVE SMOOTH",
"227 513 OFFCURVE",
"181 491 OFFCURVE",
"146 437 CURVE",
"146 700 LINE",
"76 700 LINE",
"76 0 LINE"
);
}
);
width = 561;
}
);
leftKerningGroup = b;
note = h;
rightKerningGroup = h;
rightMetricsKey = n;
unicode = 0068;
},
{
glyphname = dotlessi;
lastChange = "2023-07-27 12:03:26 +0000";
layers = (
{
anchors = (
{
name = bottom;
position = "{96, 0}";
},
{
name = top;
position = "{96, 500}";
}
);
layerId = "1041D826-7B5A-4F1A-81FD-3B5FB25AF0FC";
paths = (
{
closed = 1;
nodes = (
"132 0 LINE",
"132 500 LINE",
"62 500 LINE",
"62 0 LINE"
);
}
);
width = 193;
},
{
anchors = (
{
name = bottom;
position = "{118, 0}";
},
{
name = top;
position = "{118, 500}";
}
);
layerId = "3B5F2A21-9AC0-43BD-916B-7DC2040966BF";
paths = (
{
closed = 1;
nodes = (
"187 0 LINE",
"187 500 LINE",
"50 500 LINE",
"50 0 LINE"
);
}
);
width = 237;
}
);
leftKerningGroup = i;
rightKerningGroup = i;
unicode = 0131;
},
{
glyphname = jdotless;
lastChange = "2023-07-27 12:03:26 +0000";
layers = (
{
anchors = (
{
name = top;
position = "{97, 500}";
}
);
layerId = "1041D826-7B5A-4F1A-81FD-3B5FB25AF0FC";
paths = (
{
closed = 1;
nodes = (
"34 -204 OFFCURVE",
"132 -136 OFFCURVE",
"132 -9 CURVE SMOOTH",
"132 500 LINE",
"62 500 LINE",
"62 -9 LINE SMOOTH",
"62 -95 OFFCURVE",
"-1 -140 OFFCURVE",
"-74 -140 CURVE",
"-74 -204 LINE"
);
}
);
width = 182;
},
{
anchors = (
{
name = top;
position = "{118, 500}";
}
);
layerId = "3B5F2A21-9AC0-43BD-916B-7DC2040966BF";
paths = (
{
closed = 1;
nodes = (
"56 -197 OFFCURVE",
"187 -126 OFFCURVE",
"187 22 CURVE SMOOTH",
"187 500 LINE",
"50 500 LINE",
"50 22 LINE SMOOTH",
"50 -43 OFFCURVE",
"-5 -66 OFFCURVE",
"-67 -49 CURVE",
"-67 -178 LINE"
);
}
);
width = 237;
}
);
leftKerningGroup = j;
rightKerningGroup = j;
unicode = 0237;
},
{
glyphname = k;
lastChange = "2023-07-27 12:03:26 +0000";
layers = (
{
anchors = (
{
name = bottom;
position = "{234, 0}";
},
{
name = top;
position = "{234, 500}";
}
);
hints = (
{
horizontal = 1;
place = "{0, 700}";
type = Stem;
},
{
place = "{76, 70}";
type = Stem;
}
);
layerId = "1041D826-7B5A-4F1A-81FD-3B5FB25AF0FC";
paths = (
{
closed = 1;
nodes = (
"130 0 LINE",
"130 297 LINE",
"109 219 LINE",
"198 290 LINE",
"379 0 LINE",
"457 0 LINE",
"234 358 LINE",
"217 305 LINE",
"467 500 LINE",
"355 500 LINE",
"116 314 LINE",
"130 301 LINE",
"130 700 LINE",
"60 700 LINE",
"60 0 LINE"
);
}
);
width = 482;
},
{
anchors = (
{
name = bottom;
position = "{282, 0}";
},
{
name = top;
position = "{282, 500}";
}
);
hints = (
{
horizontal = 1;
place = "{0, 700}";
type = Stem;
},
{
place = "{71, 137}";
type = Stem;
}
);
layerId = "3B5F2A21-9AC0-43BD-916B-7DC2040966BF";
paths = (
{
closed = 1;
nodes = (
"197 0 LINE",
"197 280 LINE",
"165 185 LINE",
"252 255 LINE",
"412 0 LINE",
"560 0 LINE",
"324 377 LINE",
"323 311 LINE",
"566 500 LINE",
"349 500 LINE",
"182 373 LINE",
"197 356 LINE",
"197 700 LINE",
"60 700 LINE",
"60 0 LINE"
);
}
);
width = 581;
}
);
leftKerningGroup = b;
note = k;
rightKerningGroup = k;
unicode = 006B;
},
{
glyphname = kgreenlandic;
lastChange = "2023-07-27 12:03:26 +0000";
layers = (
{
anchors = (
{
name = bottom;
position = "{249, 0}";
},
{
name = top;
position = "{249, 500}";
}
);
hints = (
{
horizontal = 1;
place = "{0, 700}";
type = Stem;
},
{
place = "{76, 70}";
type = Stem;
}
);
layerId = "1041D826-7B5A-4F1A-81FD-3B5FB25AF0FC";
paths = (
{
closed = 1;
nodes = (
"145 0 LINE",
"145 297 LINE",
"124 219 LINE",
"213 290 LINE",
"394 0 LINE",
"472 0 LINE",
"249 358 LINE",
"232 305 LINE",
"482 500 LINE",
"370 500 LINE",
"131 314 LINE",
"145 301 LINE",
"145 500 LINE",
"75 500 LINE",
"75 0 LINE"
);
}
);
width = 498;
},
{
anchors = (
{
name = bottom;
position = "{297, 0}";
},
{
name = top;
position = "{297, 500}";
}
);
hints = (
{
horizontal = 1;
place = "{0, 700}";
type = Stem;
},
{
place = "{71, 137}";
type = Stem;
}
);
layerId = "3B5F2A21-9AC0-43BD-916B-7DC2040966BF";
paths = (
{
closed = 1;
nodes = (
"212 0 LINE",
"212 280 LINE",
"180 185 LINE",
"267 255 LINE",
"427 0 LINE",
"575 0 LINE",
"339 377 LINE",
"338 311 LINE",
"578 500 LINE",
"361 500 LINE",
"197 373 LINE",
"212 356 LINE",
"212 500 LINE",
"75 500 LINE",
"75 0 LINE"
);
}
);
width = 595;
}
);
leftKerningGroup = b;
rightKerningGroup = k;
unicode = 0138;
},
{
glyphname = l;
lastChange = "2023-07-27 12:03:26 +0000";
layers = (
{
anchors = (
{
name = bottom;
position = "{96, 0}";
},
{
name = top;
position = "{96, 700}";
}
);
hints = (
{
horizontal = 1;
place = "{0, 700}";
type = Stem;
},
{
place = "{76, 70}";
type = Stem;
}
);
layerId = "1041D826-7B5A-4F1A-81FD-3B5FB25AF0FC";
paths = (
{
closed = 1;
nodes = (
"130 0 LINE",
"130 700 LINE",
"60 700 LINE",
"60 0 LINE"
);
}
);
width = 190;
},
{
anchors = (
{
name = bottom;
position = "{128, 0}";
},
{
name = top;
position = "{120, 700}";
}
);
hints = (
{
horizontal = 1;
place = "{0, 700}";
type = Stem;
},
{
place = "{52, 137}";
type = Stem;
}
);
layerId = "3B5F2A21-9AC0-43BD-916B-7DC2040966BF";
paths = (
{
closed = 1;
nodes = (
"197 0 LINE",
"197 700 LINE",
"60 700 LINE",
"60 0 LINE"
);
}
);
width = 257;
}
);
leftKerningGroup = b;
note = l;
rightKerningGroup = l;
unicode = 006C;
},
{
glyphname = lslash;
lastChange = "2023-07-27 12:03:26 +0000";
layers = (
{
hints = (
{
horizontal = 1;
place = "{0, 700}";
type = Stem;
},
{
place = "{136, 70}";
type = Stem;
}
);
layerId = "1041D826-7B5A-4F1A-81FD-3B5FB25AF0FC";
paths = (
{
closed = 1;
nodes = (
"206 0 LINE",
"206 351 LINE",
"325 405 LINE",
"296 464 LINE",
"206 423 LINE",
"206 700 LINE",
"136 700 LINE",
"136 391 LINE",
"33 344 LINE",
"62 286 LINE",
"136 320 LINE",
"136 0 LINE"
);
}
);
width = 355;
},
{
hints = (
{
horizontal = 1;
place = "{0, 700}";
type = Stem;
},
{
place = "{112, 138}";
type = Stem;
}
);
layerId = "3B5F2A21-9AC0-43BD-916B-7DC2040966BF";
paths = (
{
closed = 1;
nodes = (
"250 0 LINE",
"250 359 LINE",
"350 405 LINE",
"304 501 LINE",
"250 476 LINE",
"250 700 LINE",
"112 700 LINE",
"112 412 LINE",
"19 369 LINE",
"65 273 LINE",
"112 295 LINE",
"112 0 LINE"
);
}
);
width = 355;
}
);
leftKerningGroup = lslash;
note = lslash;
unicode = 0142;
},
{
glyphname = m;
lastChange = "2023-07-27 12:03:26 +0000";
layers = (
{
anchors = (
{
name = bottom;
position = "{436, 0}";
},
{
name = top;
position = "{436, 500}";
}
);
hints = (
{
horizontal = 1;
place = "{450, 63}";
type = Stem;
},
{
place = "{76, 70}";
type = Stem;
},
{
place = "{409, 70}";
type = Stem;
},
{
place = "{744, 70}";
type = Stem;
}
);
layerId = "1041D826-7B5A-4F1A-81FD-3B5FB25AF0FC";
paths = (
{
closed = 1;
nodes = (
"120 0 LINE",
"120 318 LINE",
"130 376 OFFCURVE",
"191 442 OFFCURVE",
"271 442 CURVE SMOOTH",
"359 442 OFFCURVE",
"406 396 OFFCURVE",
"406 293 CURVE SMOOTH",
"406 0 LINE",
"476 0 LINE",
"476 294 LINE SMOOTH",
"476 437 OFFCURVE",
"411 506 OFFCURVE",
"281 506 CURVE SMOOTH",
"202 506 OFFCURVE",
"140 449 OFFCURVE",
"120 396 CURVE",
"120 500 LINE",
"50 500 LINE",
"50 0 LINE"
);
},
{
closed = 1;
nodes = (
"476 0 LINE",
"476 318 LINE",
"486 376 OFFCURVE",
"547 442 OFFCURVE",
"627 442 CURVE SMOOTH",
"715 442 OFFCURVE",
"762 396 OFFCURVE",
"762 293 CURVE SMOOTH",
"762 0 LINE",
"832 0 LINE",
"832 294 LINE SMOOTH",
"832 437 OFFCURVE",
"767 506 OFFCURVE",
"637 506 CURVE SMOOTH",
"508 506 OFFCURVE",
"455 383 OFFCURVE",
"455 323 CURVE SMOOTH",
"455 0 LINE"
);
}
);
width = 882;
},
{
anchors = (
{
name = bottom;
position = "{450, 0}";
},
{
name = top;
position = "{450, 500}";
}
);
hints = (
{
horizontal = 1;
place = "{385, 120}";
type = Stem;
},
{
place = "{78, 137}";
type = Stem;
},
{
place = "{393, 137}";
type = Stem;
},
{
place = "{713, 137}";
type = Stem;
},
{
horizontal = 1;
place = "{385, 125}";
type = Stem;
}
);
layerId = "3B5F2A21-9AC0-43BD-916B-7DC2040966BF";
paths = (
{
closed = 1;
nodes = (
"187 0 LINE",
"187 319 LINE",
"207 360 OFFCURVE",
"255 379 OFFCURVE",
"292 379 CURVE SMOOTH",
"354 379 OFFCURVE",
"387 347 OFFCURVE",
"387 282 CURVE SMOOTH",
"387 0 LINE",
"524 0 LINE",
"524 282 LINE SMOOTH",
"524 403 OFFCURVE",
"476 506 OFFCURVE",
"317 506 CURVE SMOOTH",
"257 506 OFFCURVE",
"207 476 OFFCURVE",
"187 436 CURVE",
"187 500 LINE",
"50 500 LINE",
"50 0 LINE"
);
},
{
closed = 1;
nodes = (
"524 0 LINE",
"524 319 LINE",
"544 360 OFFCURVE",
"592 379 OFFCURVE",
"629 379 CURVE SMOOTH",
"691 379 OFFCURVE",
"724 347 OFFCURVE",
"724 282 CURVE SMOOTH",
"724 0 LINE",
"861 0 LINE",
"861 282 LINE SMOOTH",
"861 403 OFFCURVE",
"813 506 OFFCURVE",
"654 506 CURVE SMOOTH",
"526 506 OFFCURVE",
"486 375 OFFCURVE",
"487 320 CURVE SMOOTH",
"490 0 LINE"
);
}
);
width = 911;
}
);
leftKerningGroup = m;
note = m;
rightKerningGroup = h;
unicode = 006D;
},
{
glyphname = n;
lastChange = "2023-07-27 12:03:26 +0000";
layers = (
{
anchors = (
{
name = bottom;
position = "{258, 0}";
},
{
name = top;
position = "{258, 500}";
}
);
hints = (
{
horizontal = 1;
place = "{450, 63}";
type = Stem;
},
{
place = "{76, 70}";
type = Stem;
},
{
place = "{432, 70}";
type = Stem;
}
);
layerId = "1041D826-7B5A-4F1A-81FD-3B5FB25AF0FC";
paths = (
{
closed = 1;
nodes = (
"120 0 LINE",
"120 318 LINE",
"130 376 OFFCURVE",
"191 442 OFFCURVE",
"271 442 CURVE SMOOTH",
"359 442 OFFCURVE",
"406 396 OFFCURVE",
"406 293 CURVE SMOOTH",
"406 0 LINE",
"476 0 LINE",
"476 294 LINE SMOOTH",
"476 437 OFFCURVE",
"411 506 OFFCURVE",
"281 506 CURVE SMOOTH",
"202 506 OFFCURVE",
"140 449 OFFCURVE",
"120 396 CURVE",
"120 500 LINE",
"50 500 LINE",
"50 0 LINE"
);
}
);
width = 526;
},
{
anchors = (
{
name = bottom;
position = "{282, 0}";
},
{
name = top;
position = "{282, 500}";
}
);
hints = (
{
horizontal = 1;
place = "{385, 126}";
type = Stem;
},
{
place = "{57, 137}";
type = Stem;
},
{
place = "{374, 137}";
type = Stem;
}
);
layerId = "3B5F2A21-9AC0-43BD-916B-7DC2040966BF";
paths = (
{
closed = 1;
nodes = (
"187 0 LINE",
"187 319 LINE",
"207 360 OFFCURVE",
"255 379 OFFCURVE",
"292 379 CURVE SMOOTH",
"354 379 OFFCURVE",
"387 347 OFFCURVE",
"387 282 CURVE SMOOTH",
"387 0 LINE",
"524 0 LINE",
"524 282 LINE SMOOTH",
"524 403 OFFCURVE",
"476 506 OFFCURVE",
"317 506 CURVE SMOOTH",
"257 506 OFFCURVE",
"207 476 OFFCURVE",
"187 436 CURVE",
"187 500 LINE",
"50 500 LINE",
"50 0 LINE"
);
}
);
width = 574;
}
);
leftKerningGroup = m;
note = n;
rightKerningGroup = h;
unicode = 006E;
},
{
glyphname = nhookleft;
lastChange = "2023-07-27 12:03:26 +0000";
layers = (
{
components = (
{
name = n;
}
);
layerId = "1041D826-7B5A-4F1A-81FD-3B5FB25AF0FC";
paths = (
{
closed = 1;
nodes = (
"50 0 LINE",
"50 -96 LINE SMOOTH",
"50 -130 OFFCURVE",
"36 -140 OFFCURVE",
"20 -140 CURVE SMOOTH",
"-5 -140 OFFCURVE",
"-30 -130 OFFCURVE",
"-56 -108 CURVE",
"-56 -169 LINE",
"-42 -183 OFFCURVE",
"-13 -203 OFFCURVE",
"30 -203 CURVE SMOOTH",
"95 -203 OFFCURVE",
"120 -149 OFFCURVE",
"120 -85 CURVE SMOOTH",
"120 0 LINE"
);
}
);
width = 516;
},
{
components = (
{
name = n;
}
);
layerId = "3B5F2A21-9AC0-43BD-916B-7DC2040966BF";
paths = (
{
closed = 1;
nodes = (
"50 0 LINE",
"50 -35 LINE SMOOTH",
"50 -69 OFFCURVE",
"39 -76 OFFCURVE",
"23 -76 CURVE SMOOTH",
"1 -76 OFFCURVE",
"-30 -66 OFFCURVE",
"-56 -45 CURVE",
"-56 -169 LINE",
"-31 -185 OFFCURVE",
"-6 -203 OFFCURVE",
"48 -203 CURVE SMOOTH",
"130 -203 OFFCURVE",
"187 -159 OFFCURVE",
"187 -35 CURVE SMOOTH",
"187 0 LINE"
);
}
);
width = 564;
}
);
leftKerningGroup = m;
rightKerningGroup = h;
unicode = 0272;
},
{
glyphname = eng;
lastChange = "2023-07-27 12:03:26 +0000";
layers = (
{
components = (
{
name = n;
}
);
layerId = "1041D826-7B5A-4F1A-81FD-3B5FB25AF0FC";
paths = (
{
closed = 1;
nodes = (
"406 0 LINE",
"406 -96 LINE SMOOTH",
"406 -130 OFFCURVE",
"392 -140 OFFCURVE",
"376 -140 CURVE SMOOTH",
"351 -140 OFFCURVE",
"326 -130 OFFCURVE",
"300 -108 CURVE",
"300 -169 LINE",
"314 -183 OFFCURVE",
"343 -203 OFFCURVE",
"386 -203 CURVE SMOOTH",
"451 -203 OFFCURVE",
"476 -149 OFFCURVE",
"476 -85 CURVE SMOOTH",
"476 0 LINE"
);
}
);
width = 516;
},
{
components = (
{
name = n;
}
);
layerId = "3B5F2A21-9AC0-43BD-916B-7DC2040966BF";
paths = (
{
closed = 1;
nodes = (
"387 0 LINE",
"387 -35 LINE SMOOTH",
"387 -69 OFFCURVE",
"376 -76 OFFCURVE",
"360 -76 CURVE SMOOTH",
"338 -76 OFFCURVE",
"307 -66 OFFCURVE",
"281 -45 CURVE",
"281 -169 LINE",
"306 -185 OFFCURVE",
"331 -203 OFFCURVE",
"385 -203 CURVE SMOOTH",
"467 -203 OFFCURVE",
"524 -159 OFFCURVE",
"524 -35 CURVE SMOOTH",
"524 0 LINE"
);
}
);
width = 564;
}
);
leftKerningGroup = m;
rightKerningGroup = h;
unicode = 014B;
},
{
glyphname = o;
lastChange = "2023-07-27 12:03:26 +0000";
layers = (
{
anchors = (
{
name = bottom;
position = "{293, 0}";
},
{
name = top;
position = "{293, 500}";
}
);
hints = (
{
horizontal = 1;
place = "{0, 64}";
type = Stem;
},
{
horizontal = 1;
place = "{454, 64}";
type = Stem;
},
{
place = "{37, 70}";
type = Stem;
},
{
place = "{483, 70}";
type = Stem;
}
);
layerId = "1041D826-7B5A-4F1A-81FD-3B5FB25AF0FC";
paths = (
{
closed = 1;
nodes = (
"436 -6 OFFCURVE",
"551 101 OFFCURVE",
"551 250 CURVE SMOOTH",
"551 400 OFFCURVE",
"435 506 OFFCURVE",
"293 506 CURVE SMOOTH",
"152 506 OFFCURVE",
"35 400 OFFCURVE",
"35 250 CURVE SMOOTH",
"35 100 OFFCURVE",
"151 -6 OFFCURVE",
"293 -6 CURVE SMOOTH"
);
},
{
closed = 1;
nodes = (
"191 58 OFFCURVE",
"105 134 OFFCURVE",
"105 250 CURVE SMOOTH",
"105 366 OFFCURVE",
"192 442 OFFCURVE",
"293 442 CURVE SMOOTH",
"395 442 OFFCURVE",
"481 366 OFFCURVE",
"481 250 CURVE SMOOTH",
"481 135 OFFCURVE",
"395 58 OFFCURVE",
"293 58 CURVE SMOOTH"
);
}
);
width = 586;
},
{
anchors = (
{
name = bottom;
position = "{295, 0}";
},
{
name = top;
position = "{295, 500}";
}
);
hints = (
{
horizontal = 1;
place = "{-8, 128}";
type = Stem;
},
{
horizontal = 1;
place = "{382, 128}";
type = Stem;
},
{
place = "{35, 137}";
type = Stem;
},
{
place = "{418, 137}";
type = Stem;
}
);
layerId = "3B5F2A21-9AC0-43BD-916B-7DC2040966BF";
paths = (
{
closed = 1;
nodes = (
"440 -6 OFFCURVE",
"555 102 OFFCURVE",
"555 250 CURVE SMOOTH",
"555 399 OFFCURVE",
"439 506 OFFCURVE",
"295 506 CURVE SMOOTH",
"152 506 OFFCURVE",
"35 400 OFFCURVE",
"35 250 CURVE SMOOTH",
"35 101 OFFCURVE",
"150 -6 OFFCURVE",
"295 -6 CURVE SMOOTH"
);
},
{
closed = 1;
nodes = (
"229 122 OFFCURVE",
"172 169 OFFCURVE",
"172 250 CURVE SMOOTH",
"172 331 OFFCURVE",
"230 378 OFFCURVE",
"295 378 CURVE SMOOTH",
"361 378 OFFCURVE",
"418 331 OFFCURVE",
"418 250 CURVE SMOOTH",
"418 170 OFFCURVE",
"361 122 OFFCURVE",
"295 122 CURVE SMOOTH"
);
}
);
width = 590;
}
);
leftKerningGroup = c;
note = o;
rightKerningGroup = o;
unicode = 006F;
},
{
glyphname = oslash;
lastChange = "2023-07-27 12:03:26 +0000";
layers = (
{
hints = (
{
horizontal = 1;
place = "{0, 64}";
type = Stem;
},
{
horizontal = 1;
place = "{454, 64}";
type = Stem;
},
{
place = "{37, 70}";
type = Stem;
},
{
place = "{483, 70}";
type = Stem;
}
);
layerId = "1041D826-7B5A-4F1A-81FD-3B5FB25AF0FC";
paths = (
{
closed = 1;
nodes = (
"454 624 LINE",
"394 640 LINE",
"147 -109 LINE",
"207 -125 LINE"
);
},
{
closed = 1;
nodes = (
"438 0 OFFCURVE",
"553 117 OFFCURVE",
"553 259 CURVE SMOOTH",
"553 402 OFFCURVE",
"437 518 OFFCURVE",
"295 518 CURVE SMOOTH",
"154 518 OFFCURVE",
"37 402 OFFCURVE",
"37 259 CURVE SMOOTH",
"37 116 OFFCURVE",
"153 0 OFFCURVE",
"295 0 CURVE SMOOTH"
);
},
{
closed = 1;
nodes = (
"193 64 OFFCURVE",
"107 150 OFFCURVE",
"107 259 CURVE SMOOTH",
"107 368 OFFCURVE",
"194 454 OFFCURVE",
"295 454 CURVE SMOOTH",
"397 454 OFFCURVE",
"483 368 OFFCURVE",
"483 259 CURVE SMOOTH",
"483 151 OFFCURVE",
"397 64 OFFCURVE",
"295 64 CURVE SMOOTH"
);
}
);
width = 591;
},
{
hints = (
{
horizontal = 1;
place = "{-126, 783}";
type = Stem;
},
{
place = "{35, 137}";
type = Stem;
},
{
place = "{418, 137}";
type = Stem;
},
{
horizontal = 1;
place = "{381, 129}";
type = Stem;
}
);
layerId = "3B5F2A21-9AC0-43BD-916B-7DC2040966BF";
paths = (
{
closed = 1;
nodes = (
"476 623 LINE",
"368 657 LINE",
"125 -95 LINE",
"233 -126 LINE"
);
},
{
closed = 1;
nodes = (
"440 -8 OFFCURVE",
"555 110 OFFCURVE",
"555 251 CURVE SMOOTH",
"555 393 OFFCURVE",
"439 510 OFFCURVE",
"295 510 CURVE SMOOTH",
"152 510 OFFCURVE",
"35 394 OFFCURVE",
"35 251 CURVE SMOOTH",
"35 109 OFFCURVE",
"150 -8 OFFCURVE",
"295 -8 CURVE SMOOTH"
);
},
{
closed = 1;
nodes = (
"229 120 OFFCURVE",
"172 177 OFFCURVE",
"172 251 CURVE SMOOTH",
"172 325 OFFCURVE",
"230 382 OFFCURVE",
"295 382 CURVE SMOOTH",
"361 382 OFFCURVE",
"418 325 OFFCURVE",
"418 251 CURVE SMOOTH",
"418 178 OFFCURVE",
"361 120 OFFCURVE",
"295 120 CURVE SMOOTH"
);
}
);
width = 591;
}
);
leftKerningGroup = c;
note = oslash;
rightKerningGroup = o;
unicode = 00F8;
},
{
glyphname = oe;
lastChange = "2023-07-27 12:03:26 +0000";
layers = (
{
hints = (
{
horizontal = 1;
place = "{0, 64}";
type = Stem;
},
{
horizontal = 1;
place = "{247, 61}";
type = Stem;
},
{
horizontal = 1;
place = "{454, 64}";
type = Stem;
},
{
place = "{37, 70}";
type = Stem;
},
{
place = "{483, 73}";
type = Stem;
},
{
place = "{887, 68.04}";
type = Stem;
},
{
horizontal = 1;
place = "{-10, 64}";
type = Stem;
}
);
layerId = "1041D826-7B5A-4F1A-81FD-3B5FB25AF0FC";
paths = (
{
closed = 1;
nodes = (
"840 -10 OFFCURVE",
"914 42 OFFCURVE",
"954 107 CURVE",
"896 154 LINE",
"865 92 OFFCURVE",
"811 54 OFFCURVE",
"739 54 CURVE SMOOTH",
"621 54 OFFCURVE",
"559 143 OFFCURVE",
"556 247 CURVE",
"950 247 LINE",
"964 348 OFFCURVE",
"948 402 OFFCURVE",
"913 444 CURVE SMOOTH",
"873 491 OFFCURVE",
"813 518 OFFCURVE",
"738 518 CURVE SMOOTH",
"630 518 OFFCURVE",
"557 463 OFFCURVE",
"518 389 CURVE",
"474 466 OFFCURVE",
"390 518 OFFCURVE",
"295 518 CURVE SMOOTH",
"154 518 OFFCURVE",
"37 402 OFFCURVE",
"37 259 CURVE SMOOTH",
"37 116 OFFCURVE",
"153 0 OFFCURVE",
"295 0 CURVE SMOOTH",
"389 0 OFFCURVE",
"470 50 OFFCURVE",
"515 124 CURVE",
"553 47 OFFCURVE",
"628 -10 OFFCURVE",
"739 -10 CURVE SMOOTH"
);
},
{
closed = 1;
nodes = (
"193 64 OFFCURVE",
"107 150 OFFCURVE",
"107 259 CURVE SMOOTH",
"107 368 OFFCURVE",
"194 454 OFFCURVE",
"295 454 CURVE SMOOTH",
"397 454 OFFCURVE",
"483 368 OFFCURVE",
"483 259 CURVE SMOOTH",
"483 151 OFFCURVE",
"397 64 OFFCURVE",
"295 64 CURVE SMOOTH"
);
},
{
closed = 1;
nodes = (
"580 390 OFFCURVE",
"640 454 OFFCURVE",
"738 454 CURVE SMOOTH",
"832 454 OFFCURVE",
"897 395 OFFCURVE",
"887 308 CURVE",
"562 308 LINE"
);
}
);
width = 1001;
},
{
hints = (
{
horizontal = 1;
place = "{-8, 128}";
type = Stem;
},
{
horizontal = 1;
place = "{219, 108}";
type = Stem;
},
{
horizontal = 1;
place = "{382, 128}";
type = Stem;
},
{
place = "{35, 137}";
type = Stem;
},
{
place = "{418, 202}";
type = Stem;
},
{
place = "{825, 129.53}";
type = Stem;
},
{
horizontal = 1;
place = "{402, 111}";
type = Stem;
},
{
horizontal = 1;
place = "{-11, 123}";
type = Stem;
}
);
layerId = "3B5F2A21-9AC0-43BD-916B-7DC2040966BF";
paths = (
{
closed = 1;
nodes = (
"843 -11 OFFCURVE",
"914 40 OFFCURVE",
"954 107 CURVE",
"850 191 LINE",
"837 147 OFFCURVE",
"797 112 OFFCURVE",
"738 112 CURVE SMOOTH",
"669 112 OFFCURVE",
"620 147 OFFCURVE",
"620 219 CURVE",
"949 219 LINE",
"965 329 OFFCURVE",
"945 390 OFFCURVE",
"907 437 CURVE SMOOTH",
"869 483 OFFCURVE",
"811 513 OFFCURVE",
"737 513 CURVE SMOOTH",
"629 513 OFFCURVE",
"556 459 OFFCURVE",
"517 387 CURVE",
"471 460 OFFCURVE",
"389 510 OFFCURVE",
"295 510 CURVE SMOOTH",
"152 510 OFFCURVE",
"35 394 OFFCURVE",
"35 251 CURVE SMOOTH",
"35 109 OFFCURVE",
"150 -8 OFFCURVE",
"295 -8 CURVE SMOOTH",
"389 -8 OFFCURVE",
"471 42 OFFCURVE",
"516 115 CURVE",
"556 43 OFFCURVE",
"629 -11 OFFCURVE",
"738 -11 CURVE SMOOTH"
);
},
{
closed = 1;
nodes = (
"229 120 OFFCURVE",
"172 177 OFFCURVE",
"172 251 CURVE SMOOTH",
"172 325 OFFCURVE",
"230 382 OFFCURVE",
"295 382 CURVE SMOOTH",
"361 382 OFFCURVE",
"418 325 OFFCURVE",
"418 251 CURVE SMOOTH",
"418 178 OFFCURVE",
"361 120 OFFCURVE",
"295 120 CURVE SMOOTH"
);
},
{
closed = 1;
nodes = (
"644 369 OFFCURVE",
"681 402 OFFCURVE",
"737 402 CURVE SMOOTH",
"789 402 OFFCURVE",
"828 359 OFFCURVE",
"825 327 CURVE",
"632 327 LINE"
);
}
);
width = 1003;
}
);
leftKerningGroup = c;
note = oe;
rightKerningGroup = e;
unicode = 0153;
},
{
glyphname = p;
lastChange = "2023-07-27 12:03:26 +0000";
layers = (
{
anchors = (
{
name = bottom;
position = "{293, 0}";
},
{
name = top;
position = "{293, 500}";
}
);
hints = (
{
horizontal = 1;
place = "{-6, 64}";
type = Stem;
},
{
horizontal = 1;
place = "{454, 64}";
type = Stem;
},
{
place = "{75, 70}";
type = Stem;
},
{
place = "{486, 70}";
type = Stem;
}
);
layerId = "1041D826-7B5A-4F1A-81FD-3B5FB25AF0FC";
paths = (
{
closed = 1;
nodes = (
"130 -200 LINE",
"130 71 LINE",
"169 15 OFFCURVE",
"224 -6 OFFCURVE",
"292 -6 CURVE SMOOTH",
"433 -6 OFFCURVE",
"541 104 OFFCURVE",
"541 250 CURVE SMOOTH",
"541 395 OFFCURVE",
"427 506 OFFCURVE",
"286 506 CURVE SMOOTH",
"216 506 OFFCURVE",
"165 480 OFFCURVE",
"130 429 CURVE",
"130 500 LINE",
"60 500 LINE",
"60 -200 LINE"
);
},
{
closed = 1;
nodes = (
"208 58 OFFCURVE",
"151 106 OFFCURVE",
"130 157 CURVE",
"130 345 LINE",
"148 392 OFFCURVE",
"199 442 OFFCURVE",
"286 442 CURVE SMOOTH",
"386 442 OFFCURVE",
"471 362 OFFCURVE",
"471 250 CURVE SMOOTH",
"471 137 OFFCURVE",
"391 58 OFFCURVE",
"292 58 CURVE SMOOTH"
);
}
);
width = 576;
},
{
anchors = (
{
name = bottom;
position = "{308, 0}";
},
{
name = top;
position = "{308, 500}";
}
);
hints = (
{
horizontal = 1;
place = "{-10, 127}";
type = Stem;
},
{
horizontal = 1;
place = "{384, 127}";
type = Stem;
},
{
place = "{69, 138}";
type = Stem;
},
{
place = "{423, 137}";
type = Stem;
}
);
layerId = "3B5F2A21-9AC0-43BD-916B-7DC2040966BF";
paths = (
{
closed = 1;
nodes = (
"198 -200 LINE",
"198 26 LINE",
"225 4 OFFCURVE",
"259 -6 OFFCURVE",
"309 -6 CURVE SMOOTH",
"463 -6 OFFCURVE",
"571 107 OFFCURVE",
"571 250 CURVE SMOOTH",
"571 394 OFFCURVE",
"457 506 OFFCURVE",
"304 506 CURVE SMOOTH",
"255 506 OFFCURVE",
"219 494 OFFCURVE",
"198 471 CURVE",
"198 500 LINE",
"60 500 LINE",
"60 -200 LINE"
);
},
{
closed = 1;
nodes = (
"247 121 OFFCURVE",
"212 150 OFFCURVE",
"198 180 CURVE",
"198 324 LINE",
"210 353 OFFCURVE",
"241 379 OFFCURVE",
"304 379 CURVE SMOOTH",
"377 379 OFFCURVE",
"434 327 OFFCURVE",
"434 250 CURVE SMOOTH",
"434 177 OFFCURVE",
"382 121 OFFCURVE",
"309 121 CURVE SMOOTH"
);
}
);
width = 606;
}
);
leftKerningGroup = m;
note = p;
rightKerningGroup = b;
unicode = 0070;
},
{
glyphname = thorn;
lastChange = "2023-07-27 12:03:26 +0000";
layers = (
{
hints = (
{
horizontal = 1;
place = "{-8, 70}";
type = Stem;
},
{
horizontal = 1;
place = "{434, 70}";
type = Stem;
},
{
place = "{88, 70}";
type = Stem;
},
{
place = "{460, 70}";
type = Stem;
}
);
layerId = "1041D826-7B5A-4F1A-81FD-3B5FB25AF0FC";
paths = (
{
closed = 1;
nodes = (
"120 -200 LINE",
"120 71 LINE",
"159 15 OFFCURVE",
"214 -6 OFFCURVE",
"282 -6 CURVE SMOOTH",
"423 -6 OFFCURVE",
"531 104 OFFCURVE",
"531 250 CURVE SMOOTH",
"531 395 OFFCURVE",
"417 506 OFFCURVE",
"276 506 CURVE SMOOTH",
"206 506 OFFCURVE",
"155 480 OFFCURVE",
"120 429 CURVE",
"120 700 LINE",
"50 700 LINE",
"50 -200 LINE"
);
},
{
closed = 1;
nodes = (
"198 58 OFFCURVE",
"141 106 OFFCURVE",
"120 157 CURVE",
"120 345 LINE",
"138 392 OFFCURVE",
"189 442 OFFCURVE",
"276 442 CURVE SMOOTH",
"376 442 OFFCURVE",
"461 362 OFFCURVE",
"461 250 CURVE SMOOTH",
"461 137 OFFCURVE",
"381 58 OFFCURVE",
"282 58 CURVE SMOOTH"
);
}
);
width = 566;
},
{
hints = (
{
horizontal = 1;
place = "{-19, 137}";
type = Stem;
},
{
horizontal = 1;
place = "{376, 137}";
type = Stem;
},
{
place = "{56, 143}";
type = Stem;
},
{
place = "{402, 143}";
type = Stem;
}
);
layerId = "3B5F2A21-9AC0-43BD-916B-7DC2040966BF";
paths = (
{
closed = 1;
nodes = (
"188 -200 LINE",
"188 26 LINE",
"215 4 OFFCURVE",
"249 -6 OFFCURVE",
"299 -6 CURVE SMOOTH",
"453 -6 OFFCURVE",
"561 107 OFFCURVE",
"561 250 CURVE SMOOTH",
"561 394 OFFCURVE",
"447 506 OFFCURVE",
"294 506 CURVE SMOOTH",
"245 506 OFFCURVE",
"209 494 OFFCURVE",
"188 471 CURVE",
"188 700 LINE",
"50 700 LINE",
"50 -200 LINE"
);
},
{
closed = 1;
nodes = (
"237 121 OFFCURVE",
"202 150 OFFCURVE",
"188 180 CURVE",
"188 324 LINE",
"200 353 OFFCURVE",
"231 379 OFFCURVE",
"294 379 CURVE SMOOTH",
"367 379 OFFCURVE",
"424 327 OFFCURVE",
"424 250 CURVE SMOOTH",
"424 177 OFFCURVE",
"372 121 OFFCURVE",
"299 121 CURVE SMOOTH"
);
}
);
width = 596;
}
);
leftKerningGroup = b;
note = thorn;
rightKerningGroup = b;
unicode = 00FE;
},
{
glyphname = r;
lastChange = "2023-07-27 12:03:26 +0000";
layers = (
{
anchors = (
{
name = bottom;
position = "{177, 0}";
},
{
name = top;
position = "{177, 500}";
}
);
associatedMasterId = "1041D826-7B5A-4F1A-81FD-3B5FB25AF0FC";
hints = (
{
horizontal = 1;
place = "{449, 64}";
type = Stem;
},
{
place = "{76, 70}";
type = Stem;
}
);
layerId = "2DCBAEF4-D124-4A69-B9EC-BEAEF1F10B0E";
name = "26 juil. 23 à 11:04";
paths = (
{
closed = 1;
nodes = (
"146 0 LINE",
"146 306 LINE",
"151 401 OFFCURVE",
"210 449 OFFCURVE",
"266 449 CURVE SMOOTH",
"281 449 OFFCURVE",
"311 434 OFFCURVE",
"321 426 CURVE",
"357 479 LINE",
"334 499 OFFCURVE",
"294 513 OFFCURVE",
"266 513 CURVE SMOOTH",
"221 513 OFFCURVE",
"174 498 OFFCURVE",
"146 449 CURVE",
"146 509 LINE",
"76 509 LINE",
"76 0 LINE"
);
}
);
width = 355;
},
{
anchors = (
{
name = bottom;
position = "{212, 0}";
},
{
name = top;
position = "{212, 500}";
}
);
associatedMasterId = "3B5F2A21-9AC0-43BD-916B-7DC2040966BF";
hints = (
{
horizontal = 1;
place = "{389, 119}";
type = Stem;
},
{
place = "{76, 137}";
type = Stem;
}
);
layerId = "D946D553-B63A-49FE-94BF-95A2E7CD35B5";
name = "26 juil. 23 à 11:04";
paths = (
{
closed = 1;
nodes = (
"213 0 LINE",
"213 297 LINE",
"219 364 OFFCURVE",
"258 391 OFFCURVE",
"293 389 CURVE SMOOTH",
"322 388 OFFCURVE",
"339 369 OFFCURVE",
"352 349 CURVE",
"419 456 LINE",
"373 502 OFFCURVE",
"329 508 OFFCURVE",
"301 508 CURVE SMOOTH",
"264 508 OFFCURVE",
"235 490 OFFCURVE",
"213 463 CURVE",
"213 506 LINE",
"76 506 LINE",
"76 0 LINE"
);
}
);
width = 424;
},
{
anchors = (
{
name = bottom;
position = "{212, 0}";
},
{
name = top;
position = "{212, 500}";
}
);
associatedMasterId = "3B5F2A21-9AC0-43BD-916B-7DC2040966BF";
hints = (
{
horizontal = 1;
place = "{389, 119}";
type = Stem;
},
{
place = "{76, 137}";
type = Stem;
}
);
layerId = "4E7030BA-164F-4FE0-A81E-A9879C058B58";
name = "26 juil. 23 à 11:10";
paths = (
{
closed = 1;
nodes = (
"383 509 LINE",
"343 509 OFFCURVE",
"232 508 OFFCURVE",
"194 418 CURVE",
"194 505 LINE",
"57 505 LINE",
"57 0 LINE",
"194 0 LINE",
"194 324 LINE",
"228 394 OFFCURVE",
"346 392 OFFCURVE",
"383 392 CURVE"
);
}
);
width = 424;
},
{
anchors = (
{
name = bottom;
position = "{117, 0}";
},
{
name = top;
position = "{201, 500}";
}
);
hints = (
{
horizontal = 1;
place = "{389, 119}";
type = Stem;
},
{
place = "{76, 137}";
type = Stem;
}
);
layerId = "3B5F2A21-9AC0-43BD-916B-7DC2040966BF";
name = Bold;
paths = (
{
closed = 1;
nodes = (
"187 0 LINE",
"187 295 LINE",
"193 362 OFFCURVE",
"237 385 OFFCURVE",
"272 383 CURVE SMOOTH",
"301 382 OFFCURVE",
"330 367 OFFCURVE",
"343 317 CURVE",
"423 410 LINE",
"403 470 OFFCURVE",
"360 506 OFFCURVE",
"289 506 CURVE SMOOTH",
"246 506 OFFCURVE",
"203 477 OFFCURVE",
"187 442 CURVE",
"187 500 LINE",
"50 500 LINE",
"50 0 LINE"
);
}
);
width = 428;
},
{
anchors = (
{
name = bottom;
position = "{177, 0}";
},
{
name = top;
position = "{177, 500}";
}
);
associatedMasterId = "1041D826-7B5A-4F1A-81FD-3B5FB25AF0FC";
hints = (
{
horizontal = 1;
place = "{449, 64}";
type = Stem;
},
{
place = "{76, 70}";
type = Stem;
}
);
layerId = "E78445FF-9038-4F8B-90C2-436FB124B7F7";
name = "26 juil. 23 à 11:10";
paths = (
{
closed = 1;
nodes = (
"310 513 LINE",
"254 513 OFFCURVE",
"171 487 OFFCURVE",
"146 415 CURVE",
"146 507 LINE",
"76 507 LINE",
"76 0 LINE",
"146 0 LINE",
"146 325 LINE",
"156 383 OFFCURVE",
"230 450 OFFCURVE",
"310 450 CURVE"
);
}
);
width = 355;
},
{
anchors = (
{
name = bottom;
position = "{112, 0}";
},
{
name = top;
position = "{196, 500}";
}
);
hints = (
{
horizontal = 1;
place = "{449, 64}";
type = Stem;
},
{
place = "{76, 70}";
type = Stem;
}
);
layerId = "1041D826-7B5A-4F1A-81FD-3B5FB25AF0FC";
name = Regular;
paths = (
{
closed = 1;
nodes = (
"145 0 LINE",
"145 299 LINE",
"150 394 OFFCURVE",
"199 442 OFFCURVE",
"255 442 CURVE SMOOTH",
"294 442 OFFCURVE",
"326 423 OFFCURVE",
"338 366 CURVE",
"383 410 LINE",
"374 452 OFFCURVE",
"346 506 OFFCURVE",
"262 506 CURVE SMOOTH",
"213 506 OFFCURVE",
"162 472 OFFCURVE",
"145 398 CURVE",
"145 500 LINE",
"75 500 LINE",
"75 0 LINE"
);
}
);
width = 393;
}
);
leftKerningGroup = m;
note = r;
rightKerningGroup = r;
unicode = 0072;
},
{
glyphname = s;
lastChange = "2023-07-27 12:03:26 +0000";
layers = (
{
anchors = (
{
name = bottom;
position = "{194, 0}";
},
{
name = top;
position = "{194, 500}";
}
);
background = {
paths = (
{
closed = 1;
nodes = (
"292 -6 OFFCURVE",
"383 39 OFFCURVE",
"383 139 CURVE SMOOTH",
"383 260 OFFCURVE",
"263 289 OFFCURVE",
"220 304 CURVE SMOOTH",
"155 327 OFFCURVE",
"121 339 OFFCURVE",
"121 382 CURVE SMOOTH",
"121 420 OFFCURVE",
"149 443 OFFCURVE",
"199 443 CURVE SMOOTH",
"236 443 OFFCURVE",
"270 425 OFFCURVE",
"298 390 CURVE",
"346 436 LINE",
"305 485 OFFCURVE",
"259 506 OFFCURVE",
"196 506 CURVE SMOOTH",
"107 506 OFFCURVE",
"51 450 OFFCURVE",
"51 376 CURVE SMOOTH",
"51 290 OFFCURVE",
"135 263 OFFCURVE",
"219 233 CURVE SMOOTH",
"262 219 OFFCURVE",
"313 199 OFFCURVE",
"313 139 CURVE SMOOTH",
"313 85 OFFCURVE",
"270 58 OFFCURVE",
"208 58 CURVE SMOOTH",
"141 58 OFFCURVE",
"109 83 OFFCURVE",
"75 127 CURVE",
"20 80 LINE",
"64 34 OFFCURVE",
"115 -6 OFFCURVE",
"208 -6 CURVE SMOOTH"
);
}
);
};
hints = (
{
horizontal = 1;
place = "{-5, 64}";
type = Stem;
},
{
horizontal = 1;
place = "{445, 63}";
type = Stem;
},
{
place = "{61, 70}";
type = Stem;
},
{
place = "{323, 70}";
type = Stem;
}
);
layerId = "1041D826-7B5A-4F1A-81FD-3B5FB25AF0FC";
paths = (
{
closed = 1;
nodes = (
"301 -6 OFFCURVE",
"383 49 OFFCURVE",
"383 149 CURVE SMOOTH",
"383 328 OFFCURVE",
"121 281 OFFCURVE",
"121 379 CURVE SMOOTH",
"121 417 OFFCURVE",
"149 443 OFFCURVE",
"199 443 CURVE SMOOTH",
"237 443 OFFCURVE",
"270 425 OFFCURVE",
"298 390 CURVE",
"348 435 LINE",
"307 484 OFFCURVE",
"259 506 OFFCURVE",
"196 506 CURVE SMOOTH",
"107 506 OFFCURVE",
"51 453 OFFCURVE",
"51 379 CURVE SMOOTH",
"51 229 OFFCURVE",
"313 284 OFFCURVE",
"313 149 CURVE SMOOTH",
"313 95 OFFCURVE",
"270 58 OFFCURVE",
"208 58 CURVE SMOOTH",
"151 58 OFFCURVE",
"104 83 OFFCURVE",
"70 126 CURVE",
"20 80 LINE",
"64 34 OFFCURVE",
"125 -6 OFFCURVE",
"208 -6 CURVE SMOOTH"
);
}
);
width = 408;
},
{
anchors = (
{
name = bottom;
position = "{235, 0}";
},
{
name = top;
position = "{235, 500}";
}
);
hints = (
{
horizontal = 1;
place = "{-4, 123}";
type = Stem;
},
{
horizontal = 1;
place = "{392, 116}";
type = Stem;
},
{
place = "{42, 137}";
type = Stem;
},
{
place = "{277, 127}";
type = Stem;
}
);
layerId = "3B5F2A21-9AC0-43BD-916B-7DC2040966BF";
paths = (
{
closed = 1;
nodes = (
"339 -6 OFFCURVE",
"436 44 OFFCURVE",
"436 157 CURVE SMOOTH",
"436 321 OFFCURVE",
"206 311 OFFCURVE",
"206 360 CURVE SMOOTH",
"206 379 OFFCURVE",
"222 385 OFFCURVE",
"238 385 CURVE SMOOTH",
"271 385 OFFCURVE",
"297 362 OFFCURVE",
"314 338 CURVE",
"410 428 LINE",
"360 482 OFFCURVE",
"308 506 OFFCURVE",
"233 506 CURVE SMOOTH",
"136 506 OFFCURVE",
"69 440 OFFCURVE",
"69 362 CURVE SMOOTH",
"69 206 OFFCURVE",
"299 244 OFFCURVE",
"299 157 CURVE SMOOTH",
"299 134 OFFCURVE",
"279 117 OFFCURVE",
"242 117 CURVE SMOOTH",
"194 117 OFFCURVE",
"158 140 OFFCURVE",
"125 185 CURVE",
"30 96 LINE",
"69 53 OFFCURVE",
"137 -6 OFFCURVE",
"242 -6 CURVE SMOOTH"
);
}
);
width = 471;
}
);
leftKerningGroup = s;
note = s;
rightKerningGroup = s;
unicode = 0073;
},
{
glyphname = germandbls;
lastChange = "2023-07-27 12:03:26 +0000";
layers = (
{
hints = (
{
horizontal = 1;
place = "{0, 70}";
type = Stem;
},
{
horizontal = 1;
place = "{341, 70}";
type = Stem;
},
{
horizontal = 1;
place = "{657, 70}";
type = Stem;
},
{
place = "{55, 70}";
type = Stem;
},
{
place = "{448, 70}";
type = Stem;
},
{
place = "{404, 70}";
type = Stem;
}
);
layerId = "1041D826-7B5A-4F1A-81FD-3B5FB25AF0FC";
paths = (
{
closed = 1;
nodes = (
"120 0 LINE",
"120 700 LINE",
"50 700 LINE",
"50 0 LINE"
);
},
{
closed = 1;
nodes = (
"527 -3 OFFCURVE",
"615 94 OFFCURVE",
"615 208 CURVE SMOOTH",
"615 335 OFFCURVE",
"528 404 OFFCURVE",
"433 404 CURVE",
"433 375 LINE",
"522 375 OFFCURVE",
"574 456 OFFCURVE",
"574 529 CURVE SMOOTH",
"574 621 OFFCURVE",
"494 700 OFFCURVE",
"396 700 CURVE",
"396 632 LINE",
"456 632 OFFCURVE",
"504 588 OFFCURVE",
"504 529 CURVE SMOOTH",
"504 467 OFFCURVE",
"466 416 OFFCURVE",
"376 416 CURVE SMOOTH",
"364 416 LINE",
"364 358 LINE",
"376 358 LINE SMOOTH",
"486 358 OFFCURVE",
"545 290 OFFCURVE",
"545 208 CURVE SMOOTH",
"545 125 OFFCURVE",
"486 65 OFFCURVE",
"396 65 CURVE SMOOTH",
"331 65 OFFCURVE",
"288 95 OFFCURVE",
"256 159 CURVE",
"193 130 LINE",
"228 48 OFFCURVE",
"307 -3 OFFCURVE",
"396 -3 CURVE SMOOTH"
);
},
{
closed = 1;
nodes = (
"50 632 LINE",
"396 632 LINE",
"396 700 LINE",
"50 700 LINE"
);
}
);
width = 645;
},
{
hints = (
{
horizontal = 1;
place = "{1, 138}";
type = Stem;
},
{
horizontal = 1;
place = "{306, 138}";
type = Stem;
},
{
horizontal = 1;
place = "{588, 138}";
type = Stem;
},
{
place = "{49, 143}";
type = Stem;
},
{
place = "{371, 143}";
type = Stem;
},
{
place = "{453, 143}";
type = Stem;
}
);
layerId = "3B5F2A21-9AC0-43BD-916B-7DC2040966BF";
paths = (
{
closed = 1;
nodes = (
"193 0 LINE",
"193 700 LINE",
"50 700 LINE",
"50 0 LINE"
);
},
{
closed = 1;
nodes = (
"602 -3 OFFCURVE",
"696 102 OFFCURVE",
"696 223 CURVE SMOOTH",
"696 349 OFFCURVE",
"627 418 OFFCURVE",
"518 418 CURVE",
"518 355 LINE",
"624 355 OFFCURVE",
"664 451 OFFCURVE",
"664 505 CURVE SMOOTH",
"664 606 OFFCURVE",
"576 700 OFFCURVE",
"461 700 CURVE",
"461 557 LINE",
"500 557 OFFCURVE",
"524 537 OFFCURVE",
"524 505 CURVE SMOOTH",
"524 468 OFFCURVE",
"502 439 OFFCURVE",
"437 439 CURVE SMOOTH",
"423 439 LINE",
"423 323 LINE",
"434 323 LINE SMOOTH",
"518 323 OFFCURVE",
"554 277 OFFCURVE",
"554 223 CURVE SMOOTH",
"554 168 OFFCURVE",
"518 130 OFFCURVE",
"461 130 CURVE SMOOTH",
"394 130 OFFCURVE",
"370 180 OFFCURVE",
"363 221 CURVE",
"233 165 LINE",
"248 95 OFFCURVE",
"331 -3 OFFCURVE",
"461 -3 CURVE SMOOTH"
);
},
{
closed = 1;
nodes = (
"50 557 LINE",
"461 557 LINE",
"461 700 LINE",
"50 700 LINE"
);
}
);
width = 726;
},
{
associatedMasterId = "3B5F2A21-9AC0-43BD-916B-7DC2040966BF";
hints = (
{
horizontal = 1;
place = "{1, 138}";
type = Stem;
},
{
horizontal = 1;
place = "{306, 138}";
type = Stem;
},
{
horizontal = 1;
place = "{588, 138}";
type = Stem;
},
{
place = "{49, 143}";
type = Stem;
},
{
place = "{371, 143}";
type = Stem;
},
{
place = "{453, 143}";
type = Stem;
}
);
layerId = "303FFCB4-ADD2-46EF-A357-D55CF55319A4";
name = "26 juil. 23 à 17:33";
paths = (
{
closed = 1;
nodes = (
"192 1 LINE",
"192 495 LINE SMOOTH",
"192 537 OFFCURVE",
"196 588 OFFCURVE",
"274 588 CURVE SMOOTH",
"352 588 OFFCURVE",
"371 551 OFFCURVE",
"371 514 CURVE SMOOTH",
"371 480 OFFCURVE",
"348 445 OFFCURVE",
"311 444 CURVE SMOOTH",
"297 444 LINE",
"297 306 LINE",
"363 306 LINE SMOOTH",
"427 306 OFFCURVE",
"453 273 OFFCURVE",
"453 223 CURVE SMOOTH",
"453 176 OFFCURVE",
"417 139 OFFCURVE",
"372 139 CURVE SMOOTH",
"354 139 OFFCURVE",
"346 142 OFFCURVE",
"330 151 CURVE",
"226 58 LINE",
"253 27 OFFCURVE",
"315 1 OFFCURVE",
"372 1 CURVE SMOOTH",
"496 1 OFFCURVE",
"596 101 OFFCURVE",
"596 223 CURVE SMOOTH",
"596 303 OFFCURVE",
"553 374 OFFCURVE",
"488 412 CURVE",
"506 447 OFFCURVE",
"514 484 OFFCURVE",
"514 514 CURVE SMOOTH",
"514 578 OFFCURVE",
"473 726 OFFCURVE",
"274 726 CURVE SMOOTH",
"62 726 OFFCURVE",
"49 577 OFFCURVE",
"49 495 CURVE SMOOTH",
"49 1 LINE"
);
}
);
width = 600;
},
{
associatedMasterId = "1041D826-7B5A-4F1A-81FD-3B5FB25AF0FC";
hints = (
{
horizontal = 1;
place = "{0, 70}";
type = Stem;
},
{
horizontal = 1;
place = "{341, 70}";
type = Stem;
},
{
horizontal = 1;
place = "{657, 70}";
type = Stem;
},
{
place = "{55, 70}";
type = Stem;
},
{
place = "{448, 70}";
type = Stem;
},
{
place = "{404, 70}";
type = Stem;
}
);
layerId = "B3C8B24E-FFA1-4B57-9FC8-C3351EBC4C0C";
name = "26 juil. 23 à 17:33";
paths = (
{
closed = 1;
nodes = (
"125 0 LINE",
"125 510 LINE SMOOTH",
"125 559 OFFCURVE",
"132 657 OFFCURVE",
"262 657 CURVE SMOOTH",
"387 657 OFFCURVE",
"404 580 OFFCURVE",
"404 532 CURVE SMOOTH",
"404 485 OFFCURVE",
"383 411 OFFCURVE",
"302 411 CURVE SMOOTH",
"273 411 LINE",
"273 341 LINE",
"302 341 LINE SMOOTH",
"403 341 OFFCURVE",
"448 281 OFFCURVE",
"448 206 CURVE SMOOTH",
"448 131 OFFCURVE",
"387 70 OFFCURVE",
"312 70 CURVE SMOOTH",
"285 70 OFFCURVE",
"263 77 OFFCURVE",
"241 90 CURVE",
"205 30 LINE",
"236 11 OFFCURVE",
"273 0 OFFCURVE",
"312 0 CURVE SMOOTH",
"426 0 OFFCURVE",
"518 92 OFFCURVE",
"518 206 CURVE SMOOTH",
"518 282 OFFCURVE",
"476 349 OFFCURVE",
"414 384 CURVE",
"459 428 OFFCURVE",
"474 494 OFFCURVE",
"474 532 CURVE SMOOTH",
"474 589 OFFCURVE",
"447 727 OFFCURVE",
"262 727 CURVE SMOOTH",
"67 727 OFFCURVE",
"55 562 OFFCURVE",
"55 510 CURVE SMOOTH",
"55 0 LINE"
);
}
);
width = 600;
}
);
leftKerningGroup = germandbls;
note = germandbls;
rightKerningGroup = germandbls;
unicode = 00DF;
},
{
glyphname = t;
lastChange = "2023-07-27 12:03:26 +0000";
layers = (
{
anchors = (
{
name = bottom;
position = "{210, 0}";
},
{
name = top;
position = "{143, 700}";
}
);
hints = (
{
horizontal = 1;
place = "{-2, 61.64}";
type = Stem;
},
{
horizontal = 1;
place = "{443, 64}";
type = Stem;
},
{
place = "{86, 70}";
type = Stem;
}
);
layerId = "1041D826-7B5A-4F1A-81FD-3B5FB25AF0FC";
paths = (
{
closed = 1;
nodes = (
"254 -6 OFFCURVE",
"304 7 OFFCURVE",
"334 28 CURVE",
"304 84 LINE",
"282 69 OFFCURVE",
"256 60 OFFCURVE",
"223 60 CURVE SMOOTH",
"175 60 OFFCURVE",
"160 95 OFFCURVE",
"160 160 CURVE SMOOTH",
"160 443 LINE",
"317 443 LINE",
"317 507 LINE",
"160 507 LINE",
"160 700 LINE",
"90 700 LINE",
"90 507 LINE",
"10 507 LINE",
"10 443 LINE",
"90 443 LINE",
"90 155 LINE SMOOTH",
"90 61 OFFCURVE",
"112 -6 OFFCURVE",
"218 -6 CURVE SMOOTH"
);
}
);
width = 341;
},
{
anchors = (
{
name = bottom;
position = "{220, 0}";
},
{
name = top;
position = "{183, 700}";
}
);
hints = (
{
horizontal = 1;
place = "{-5, 114}";
type = Stem;
},
{
horizontal = 1;
place = "{394, 112}";
type = Stem;
},
{
place = "{63, 137}";
type = Stem;
}
);
layerId = "3B5F2A21-9AC0-43BD-916B-7DC2040966BF";
paths = (
{
closed = 1;
nodes = (
"297 -6 OFFCURVE",
"339 16 OFFCURVE",
"367 37 CURVE",
"310 144 LINE",
"299 131 OFFCURVE",
"281 120 OFFCURVE",
"258 120 CURVE SMOOTH",
"236 120 OFFCURVE",
"221 130 OFFCURVE",
"221 161 CURVE SMOOTH",
"221 382 LINE",
"350 382 LINE",
"350 506 LINE",
"221 506 LINE",
"221 700 LINE",
"84 700 LINE",
"84 506 LINE",
"10 506 LINE",
"10 382 LINE",
"84 382 LINE",
"84 134 LINE SMOOTH",
"84 37 OFFCURVE",
"133 -6 OFFCURVE",
"228 -6 CURVE SMOOTH"
);
}
);
width = 367;
}
);
leftKerningGroup = t;
note = t;
rightKerningGroup = t;
unicode = 0074;
},
{
glyphname = v;
lastChange = "2023-07-27 12:03:26 +0000";
layers = (
{
anchors = (
{
name = bottom;
position = "{246, 0}";
},
{
name = top;
position = "{246, 500}";
}
);
hints = (
{
horizontal = 1;
place = "{0, 500}";
type = Stem;
},
{
place = "{10, 449}";
type = Stem;
}
);
layerId = "1041D826-7B5A-4F1A-81FD-3B5FB25AF0FC";
paths = (
{
closed = 1;
nodes = (
"275 0 LINE",
"482 500 LINE",
"407 500 LINE",
"241 92 LINE",
"251 92 LINE",
"85 500 LINE",
"10 500 LINE",
"217 0 LINE"
);
}
);
width = 492;
},
{
anchors = (
{
name = bottom;
position = "{275, 0}";
},
{
name = top;
position = "{275, 500}";
}
);
hints = (
{
horizontal = 1;
place = "{0, 506}";
type = Stem;
},
{
place = "{-15, 498}";
type = Stem;
}
);
layerId = "3B5F2A21-9AC0-43BD-916B-7DC2040966BF";
paths = (
{
closed = 1;
nodes = (
"330 0 LINE",
"540 500 LINE",
"392 500 LINE",
"270 196 LINE",
"280 196 LINE",
"158 500 LINE",
"10 500 LINE",
"220 0 LINE"
);
}
);
width = 550;
}
);
leftKerningGroup = v;
note = v;
rightKerningGroup = v;
unicode = 0076;
},
{
glyphname = w;
lastChange = "2023-07-27 12:03:26 +0000";
layers = (
{
anchors = (
{
name = bottom;
position = "{362, 0}";
},
{
name = top;
position = "{362, 500}";
}
);
hints = (
{
horizontal = 1;
place = "{0, 500}";
type = Stem;
},
{
place = "{15, 650}";
type = Stem;
}
);
layerId = "1041D826-7B5A-4F1A-81FD-3B5FB25AF0FC";
paths = (
{
closed = 1;
nodes = (
"10 500 LINE",
"177 0 LINE",
"234 0 LINE",
"371 415 LINE",
"354 415 LINE",
"491 0 LINE",
"548 0 LINE",
"715 500 LINE",
"640 500 LINE",
"512 79 LINE",
"527 79 LINE",
"399 500 LINE",
"326 500 LINE",
"198 79 LINE",
"213 79 LINE",
"85 500 LINE"
);
}
);
width = 725;
},
{
anchors = (
{
name = bottom;
position = "{388, 0}";
},
{
name = top;
position = "{388, 500}";
}
);
hints = (
{
horizontal = 1;
place = "{0, 506}";
type = Stem;
},
{
place = "{9, 662}";
type = Stem;
}
);
layerId = "3B5F2A21-9AC0-43BD-916B-7DC2040966BF";
paths = (
{
closed = 1;
nodes = (
"10 500 LINE",
"180 0 LINE",
"292 0 LINE",
"403 325 LINE",
"373 325 LINE",
"484 0 LINE",
"596 0 LINE",
"766 500 LINE",
"618 500 LINE",
"528 166 LINE",
"552 166 LINE",
"462 500 LINE",
"314 500 LINE",
"224 166 LINE",
"248 166 LINE",
"158 500 LINE"
);
}
);
width = 776;
}
);
leftKerningGroup = w;
note = w;
rightKerningGroup = w;
unicode = 0077;
},
{
glyphname = x;
lastChange = "2023-07-27 12:03:26 +0000";
layers = (
{
anchors = (
{
name = bottom;
position = "{264, 0}";
},
{
name = top;
position = "{264, 500}";
}
);
hints = (
{
horizontal = 1;
place = "{0, 500}";
type = Stem;
},
{
place = "{15, 518}";
type = Stem;
}
);
layerId = "1041D826-7B5A-4F1A-81FD-3B5FB25AF0FC";
paths = (
{
closed = 1;
nodes = (
"93 0 LINE",
"264 201 LINE",
"435 0 LINE",
"523 0 LINE",
"311 251 LINE",
"517 500 LINE",
"429 500 LINE",
"267 303 LINE",
"100 500 LINE",
"11 500 LINE",
"220 254 LINE",
"5 0 LINE"
);
}
);
width = 528;
},
{
anchors = (
{
name = bottom;
position = "{307, 0}";
},
{
name = top;
position = "{307, 500}";
}
);
hints = (
{
horizontal = 1;
place = "{0, 506}";
type = Stem;
},
{
place = "{2, 605}";
type = Stem;
}
);
layerId = "3B5F2A21-9AC0-43BD-916B-7DC2040966BF";
paths = (
{
closed = 1;
nodes = (
"180 0 LINE",
"307 150 LINE",
"435 0 LINE",
"609 0 LINE",
"398 248 LINE",
"606 500 LINE",
"432 500 LINE",
"311 351 LINE",
"192 500 LINE",
"18 500 LINE",
"220 253 LINE",
"5 0 LINE"
);
}
);
width = 614;
}
);
leftKerningGroup = x;
note = x;
rightKerningGroup = x;
unicode = 0078;
},
{
glyphname = y;
lastChange = "2023-07-27 12:03:26 +0000";
layers = (
{
anchors = (
{
name = bottom;
position = "{297, 0}";
},
{
name = top;
position = "{297, 500}";
}
);
hints = (
{
horizontal = 1;
place = "{-200, 700}";
type = Stem;
},
{
place = "{9, 579}";
type = Stem;
}
);
layerId = "1041D826-7B5A-4F1A-81FD-3B5FB25AF0FC";
paths = (
{
closed = 1;
nodes = (
"180 -200 LINE",
"589 500 LINE",
"510 500 LINE",
"301 143 LINE",
"91 500 LINE",
"10 500 LINE",
"261 75 LINE",
"100 -200 LINE"
);
}
);
width = 594;
},
{
anchors = (
{
name = bottom;
position = "{327, 0}";
},
{
name = top;
position = "{327, 500}";
}
);
hints = (
{
horizontal = 1;
place = "{-186, 692}";
type = Stem;
},
{
place = "{9, 638}";
type = Stem;
}
);
layerId = "3B5F2A21-9AC0-43BD-916B-7DC2040966BF";
paths = (
{
closed = 1;
nodes = (
"243 -200 LINE",
"644 500 LINE",
"489 500 LINE",
"331 219 LINE",
"167 500 LINE",
"10 500 LINE",
"253 86 LINE",
"87 -200 LINE"
);
}
);
width = 654;
}
);
leftKerningGroup = y;
note = y;
rightKerningGroup = y;
unicode = 0079;
},
{
glyphname = z;
lastChange = "2023-07-27 12:03:26 +0000";
layers = (
{
anchors = (
{
name = bottom;
position = "{252, 0}";
},
{
name = top;
position = "{252, 500}";
}
);
hints = (
{
horizontal = 1;
place = "{0, 64}";
type = Stem;
},
{
horizontal = 1;
place = "{436, 64}";
type = Stem;
},
{
place = "{62, 419}";
type = Stem;
}
);
layerId = "1041D826-7B5A-4F1A-81FD-3B5FB25AF0FC";
paths = (
{
closed = 1;
nodes = (
"458 0 LINE",
"458 70 LINE",
"141 70 LINE",
"464 454 LINE",
"464 500 LINE",
"44 500 LINE",
"44 430 LINE",
"357 430 LINE",
"40 52 LINE",
"40 0 LINE"
);
}
);
width = 504;
},
{
anchors = (
{
name = bottom;
position = "{265, 0}";
},
{
name = top;
position = "{265, 500}";
}
);
hints = (
{
horizontal = 1;
place = "{0, 127}";
type = Stem;
},
{
horizontal = 1;
place = "{373, 133}";
type = Stem;
},
{
place = "{53, 436}";
type = Stem;
}
);
layerId = "3B5F2A21-9AC0-43BD-916B-7DC2040966BF";
paths = (
{
closed = 1;
nodes = (
"491 0 LINE",
"491 127 LINE",
"246 127 LINE",
"482 412 LINE",
"482 506 LINE",
"40 506 LINE",
"40 373 LINE",
"285 373 LINE",
"52 93 LINE",
"52 0 LINE"
);
}
);
width = 531;
}
);
leftKerningGroup = z;
note = z;
rightKerningGroup = z;
unicode = 007A;
},
{
glyphname = a.ss01;
lastChange = "2023-07-27 12:03:26 +0000";
layers = (
{
anchors = (
{
name = bottom;
position = "{290, 0}";
},
{
name = ogonek;
position = "{446, -6}";
},
{
name = top;
position = "{284, 500}";
}
);
hints = (
{
horizontal = 1;
place = "{-6, 64}";
type = Stem;
},
{
horizontal = 1;
place = "{246, 57}";
type = Stem;
},
{
horizontal = 1;
place = "{445, 64}";
type = Stem;
},
{
place = "{47, 70}";
type = Stem;
},
{
place = "{371, 70}";
type = Stem;
},
{
horizontal = 1;
place = "{-6, 64}";
type = Stem;
},
{
horizontal = 1;
place = "{454, 64}";
type = Stem;
},
{
place = "{37, 70}";
type = Stem;
},
{
place = "{449, 70}";
type = Stem;
},
{
horizontal = 1;
place = "{506, -64}";
type = Stem;
},
{
horizontal = 1;
place = "{46, -64}";
type = Stem;
},
{
place = "{501, -70}";
type = Stem;
},
{
place = "{90, -70}";
type = Stem;
}
);
layerId = "1041D826-7B5A-4F1A-81FD-3B5FB25AF0FC";
paths = (
{
closed = 1;
nodes = (
"446 500 LINE",
"446 429 LINE",
"407 485 OFFCURVE",
"352 506 OFFCURVE",
"284 506 CURVE SMOOTH",
"143 506 OFFCURVE",
"35 396 OFFCURVE",
"35 250 CURVE SMOOTH",
"35 105 OFFCURVE",
"149 -6 OFFCURVE",
"290 -6 CURVE SMOOTH",
"360 -6 OFFCURVE",
"411 20 OFFCURVE",
"446 71 CURVE",
"446 0 LINE",
"516 0 LINE",
"516 500 LINE"
);
},
{
closed = 1;
nodes = (
"368 442 OFFCURVE",
"425 394 OFFCURVE",
"446 343 CURVE",
"446 155 LINE",
"428 108 OFFCURVE",
"377 58 OFFCURVE",
"290 58 CURVE SMOOTH",
"190 58 OFFCURVE",
"105 138 OFFCURVE",
"105 250 CURVE SMOOTH",
"105 363 OFFCURVE",
"185 442 OFFCURVE",
"284 442 CURVE SMOOTH"
);
}
);
width = 576;
},
{
anchors = (
{
name = bottom;
position = "{302, 0}";
},
{
name = ogonek;
position = "{408, -6}";
},
{
name = top;
position = "{297, 500}";
}
);
hints = (
{
horizontal = 1;
place = "{-5, 126}";
type = Stem;
},
{
horizontal = 1;
place = "{220, 99}";
type = Stem;
},
{
horizontal = 1;
place = "{392, 117}";
type = Stem;
},
{
place = "{37, 127}";
type = Stem;
},
{
place = "{324, 137}";
type = Stem;
},
{
horizontal = 1;
place = "{-7, 128}";
type = Stem;
},
{
horizontal = 1;
place = "{382, 127}";
type = Stem;
},
{
place = "{32, 137}";
type = Stem;
},
{
place = "{385, 137}";
type = Stem;
},
{
horizontal = 1;
place = "{510, -127}";
type = Stem;
},
{
horizontal = 1;
place = "{116, -127}";
type = Stem;
},
{
place = "{537, -138}";
type = Stem;
},
{
place = "{183, -137}";
type = Stem;
}
);
layerId = "3B5F2A21-9AC0-43BD-916B-7DC2040966BF";
paths = (
{
closed = 1;
nodes = (
"408 500 LINE",
"408 474 LINE",
"381 496 OFFCURVE",
"347 506 OFFCURVE",
"297 506 CURVE SMOOTH",
"143 506 OFFCURVE",
"35 393 OFFCURVE",
"35 250 CURVE SMOOTH",
"35 106 OFFCURVE",
"149 -6 OFFCURVE",
"302 -6 CURVE SMOOTH",
"351 -6 OFFCURVE",
"387 6 OFFCURVE",
"408 29 CURVE",
"408 0 LINE",
"546 0 LINE",
"546 500 LINE"
);
},
{
closed = 1;
nodes = (
"359 379 OFFCURVE",
"394 350 OFFCURVE",
"408 320 CURVE",
"408 176 LINE",
"396 147 OFFCURVE",
"365 121 OFFCURVE",
"302 121 CURVE SMOOTH",
"229 121 OFFCURVE",
"172 173 OFFCURVE",
"172 250 CURVE SMOOTH",
"172 323 OFFCURVE",
"224 379 OFFCURVE",
"297 379 CURVE SMOOTH"
);
}
);
width = 606;
}
);
leftKerningGroup = d;
note = a;
rightKerningGroup = d;
},
{
glyphname = f_f;
lastChange = "2023-07-27 12:03:26 +0000";
layers = (
{
components = (
{
alignment = -1;
name = f;
transform = "{1, 0, 0, 1, 264, 0}";
}
);
layerId = "1041D826-7B5A-4F1A-81FD-3B5FB25AF0FC";
paths = (
{
closed = 1;
nodes = (
"358 653 OFFCURVE",
"367 571 OFFCURVE",
"367 500 CURVE",
"437 500 LINE",
"437 613 OFFCURVE",
"397 715 OFFCURVE",
"272 715 CURVE SMOOTH",
"157 715 OFFCURVE",
"103 643 OFFCURVE",
"103 561 CURVE SMOOTH",
"103 500 LINE",
"9 500 LINE",
"9 436 LINE",
"103 436 LINE",
"103 0 LINE",
"173 0 LINE",
"173 436 LINE",
"316 436 LINE",
"316 500 LINE",
"173 500 LINE",
"173 551 LINE SMOOTH",
"173 613 OFFCURVE",
"206 653 OFFCURVE",
"272 653 CURVE SMOOTH"
);
}
);
width = 608;
},
{
components = (
{
alignment = -1;
name = f;
transform = "{1, 0, 0, 1, 299, 0}";
}
);
layerId = "3B5F2A21-9AC0-43BD-916B-7DC2040966BF";
paths = (
{
closed = 1;
nodes = (
"352 589 OFFCURVE",
"395 558 OFFCURVE",
"395 500 CURVE",
"532 500 LINE",
"532 661 OFFCURVE",
"397 711 OFFCURVE",
"312 711 CURVE SMOOTH",
"152 711 OFFCURVE",
"96 602 OFFCURVE",
"96 542 CURVE SMOOTH",
"96 500 LINE",
"15 500 LINE",
"15 373 LINE",
"96 373 LINE",
"96 0 LINE",
"233 0 LINE",
"233 373 LINE",
"355 373 LINE",
"355 500 LINE",
"233 500 LINE",
"233 509 LINE SMOOTH",
"233 565 OFFCURVE",
"266 589 OFFCURVE",
"312 589 CURVE SMOOTH"
);
}
);
width = 693;
}
);
leftMetricsKey = f;
rightMetricsKey = f;
},
{
glyphname = f_f_ij;
lastChange = "2023-07-27 12:03:26 +0000";
layers = (
{
components = (
{
name = f_i;
transform = "{1, 0, 0, 1, 264, 0}";
},
{
name = j;
transform = "{1, 0, 0, 1, 844, 0}";
}
);
layerId = "1041D826-7B5A-4F1A-81FD-3B5FB25AF0FC";
paths = (
{
closed = 1;
nodes = (
"358 653 OFFCURVE",
"367 571 OFFCURVE",
"367 500 CURVE",
"437 500 LINE",
"437 613 OFFCURVE",
"397 715 OFFCURVE",
"272 715 CURVE SMOOTH",
"157 715 OFFCURVE",
"103 643 OFFCURVE",
"103 561 CURVE SMOOTH",
"103 500 LINE",
"9 500 LINE",
"9 436 LINE",
"103 436 LINE",
"103 0 LINE",
"173 0 LINE",
"173 436 LINE",
"316 436 LINE",
"316 500 LINE",
"173 500 LINE",
"173 551 LINE SMOOTH",
"173 613 OFFCURVE",
"206 653 OFFCURVE",
"272 653 CURVE SMOOTH"
);
}
);
width = 1007;
},
{
components = (
{
name = f_i;
transform = "{1, 0, 0, 1, 299, 0}";
},
{
name = j;
transform = "{1, 0, 0, 1, 923, 0}";
}
);
layerId = "3B5F2A21-9AC0-43BD-916B-7DC2040966BF";
paths = (
{
closed = 1;
nodes = (
"352 589 OFFCURVE",
"395 558 OFFCURVE",
"395 500 CURVE",
"532 500 LINE",
"532 661 OFFCURVE",
"397 711 OFFCURVE",
"312 711 CURVE SMOOTH",
"152 711 OFFCURVE",
"96 602 OFFCURVE",
"96 542 CURVE SMOOTH",
"96 500 LINE",
"15 500 LINE",
"15 373 LINE",
"96 373 LINE",
"96 0 LINE",
"233 0 LINE",
"233 373 LINE",
"355 373 LINE",
"355 500 LINE",
"233 500 LINE",
"233 509 LINE SMOOTH",
"233 565 OFFCURVE",
"266 589 OFFCURVE",
"312 589 CURVE SMOOTH"
);
}
);
width = 1156;
}
);
leftMetricsKey = f;
},
{
glyphname = f_f_l;
lastChange = "2023-07-27 12:03:26 +0000";
layers = (
{
hints = (
{
horizontal = 1;
place = "{443, 64}";
type = Stem;
},
{
horizontal = 1;
place = "{653, 62}";
type = Stem;
},
{
place = "{367, 70}";
type = Stem;
},
{
place = "{683, 70}";
type = Stem;
}
);
layerId = "1041D826-7B5A-4F1A-81FD-3B5FB25AF0FC";
paths = (
{
closed = 1;
nodes = (
"470 653 OFFCURVE",
"437 613 OFFCURVE",
"437 551 CURVE SMOOTH",
"437 500 LINE",
"580 500 LINE",
"580 436 LINE",
"437 436 LINE",
"437 0 LINE",
"367 0 LINE",
"367 436 LINE",
"173 436 LINE",
"173 0 LINE",
"103 0 LINE",
"103 436 LINE",
"9 436 LINE",
"9 500 LINE",
"103 500 LINE",
"103 561 LINE SMOOTH",
"103 643 OFFCURVE",
"157 715 OFFCURVE",
"272 715 CURVE SMOOTH",
"331 715 OFFCURVE",
"375 687 OFFCURVE",
"400 641 CURVE",
"428 686 OFFCURVE",
"474 715 OFFCURVE",
"556 715 CURVE SMOOTH",
"701 715 OFFCURVE",
"745 643 OFFCURVE",
"745 561 CURVE SMOOTH",
"745 0 LINE",
"675 0 LINE",
"675 551 LINE SMOOTH",
"675 613 OFFCURVE",
"642 653 OFFCURVE",
"556 653 CURVE SMOOTH"
);
},
{
closed = 1;
nodes = (
"367 500 LINE",
"367 507 LINE SMOOTH",
"367 576 OFFCURVE",
"355 653 OFFCURVE",
"272 653 CURVE SMOOTH",
"206 653 OFFCURVE",
"173 613 OFFCURVE",
"173 551 CURVE SMOOTH",
"173 500 LINE"
);
}
);
width = 805;
},
{
hints = (
{
horizontal = 1;
place = "{380, 127}";
type = Stem;
},
{
horizontal = 1;
place = "{591, 120}";
type = Stem;
},
{
place = "{395, 137}";
type = Stem;
},
{
place = "{739, 137}";
type = Stem;
}
);
layerId = "3B5F2A21-9AC0-43BD-916B-7DC2040966BF";
paths = (
{
closed = 1;
nodes = (
"565 589 OFFCURVE",
"532 572 OFFCURVE",
"532 516 CURVE SMOOTH",
"532 500 LINE",
"654 500 LINE",
"654 373 LINE",
"532 373 LINE",
"532 0 LINE",
"395 0 LINE",
"395 373 LINE",
"233 373 LINE",
"233 0 LINE",
"96 0 LINE",
"96 373 LINE",
"15 373 LINE",
"15 500 LINE",
"96 500 LINE",
"96 542 LINE SMOOTH",
"96 602 OFFCURVE",
"152 711 OFFCURVE",
"312 711 CURVE SMOOTH",
"356 711 OFFCURVE",
"414 700 OFFCURVE",
"459 667 CURVE",
"497 693 OFFCURVE",
"557 711 OFFCURVE",
"651 711 CURVE SMOOTH",
"881 711 OFFCURVE",
"907 602 OFFCURVE",
"907 542 CURVE SMOOTH",
"907 0 LINE",
"770 0 LINE",
"770 506 LINE SMOOTH",
"770 562 OFFCURVE",
"737 589 OFFCURVE",
"651 589 CURVE SMOOTH"
);
},
{
closed = 1;
nodes = (
"395 500 LINE",
"395 510 LINE SMOOTH",
"395 568 OFFCURVE",
"352 589 OFFCURVE",
"312 589 CURVE SMOOTH",
"266 589 OFFCURVE",
"233 565 OFFCURVE",
"233 509 CURVE SMOOTH",
"233 500 LINE"
);
}
);
width = 967;
}
);
leftMetricsKey = f;
rightMetricsKey = l;
},
{
glyphname = f_i;
lastChange = "2023-07-27 12:03:26 +0000";
layers = (
{
anchors = (
{
name = bottom;
position = "{172, 0}";
},
{
name = top;
position = "{172, 500}";
}
);
components = (
{
alignment = -1;
name = i;
transform = "{1, 0, 0, 1, 387, 0}";
}
);
hints = (
{
horizontal = 1;
place = "{443, 64}";
type = Stem;
},
{
horizontal = 1;
place = "{653, 62}";
type = Stem;
},
{
place = "{103, 70}";
type = Stem;
}
);
layerId = "1041D826-7B5A-4F1A-81FD-3B5FB25AF0FC";
paths = (
{
closed = 1;
nodes = (
"173 0 LINE",
"173 436 LINE",
"473 436 LINE",
"473 500 LINE",
"173 500 LINE",
"173 571 LINE SMOOTH",
"173 622 OFFCURVE",
"190 653 OFFCURVE",
"236 653 CURVE SMOOTH",
"255 653 OFFCURVE",
"283 646 OFFCURVE",
"309 616 CURVE",
"345 667 LINE",
"323 698 OFFCURVE",
"279 715 OFFCURVE",
"231 715 CURVE SMOOTH",
"133 715 OFFCURVE",
"103 653 OFFCURVE",
"103 571 CURVE SMOOTH",
"103 500 LINE",
"9 500 LINE",
"9 436 LINE",
"103 436 LINE",
"103 0 LINE"
);
}
);
width = 580;
},
{
anchors = (
{
name = bottom;
position = "{197, 0}";
},
{
name = top;
position = "{197, 500}";
}
);
components = (
{
alignment = -1;
name = i;
transform = "{1, 0, 0, 1, 387, 0}";
}
);
hints = (
{
horizontal = 1;
place = "{380, 127}";
type = Stem;
},
{
horizontal = 1;
place = "{591, 120}";
type = Stem;
},
{
place = "{96, 137}";
type = Stem;
}
);
layerId = "3B5F2A21-9AC0-43BD-916B-7DC2040966BF";
paths = (
{
closed = 1;
nodes = (
"233 0 LINE",
"233 373 LINE",
"476 373 LINE",
"476 500 LINE",
"233 500 LINE",
"233 542 LINE SMOOTH",
"233 579 OFFCURVE",
"249 591 OFFCURVE",
"265 591 CURVE SMOOTH",
"283 591 OFFCURVE",
"302 580 OFFCURVE",
"323 551 CURVE",
"388 653 LINE",
"349 699 OFFCURVE",
"296 711 OFFCURVE",
"248 711 CURVE SMOOTH",
"120 711 OFFCURVE",
"96 622 OFFCURVE",
"96 542 CURVE SMOOTH",
"96 500 LINE",
"15 500 LINE",
"15 373 LINE",
"96 373 LINE",
"96 0 LINE"
);
}
);
width = 624;
}
);
leftMetricsKey = f;
rightMetricsKey = i;
},
{
glyphname = f_l;
lastChange = "2023-07-27 12:03:26 +0000";
layers = (
{
hints = (
{
horizontal = 1;
place = "{443, 64}";
type = Stem;
},
{
horizontal = 1;
place = "{653, 62}";
type = Stem;
},
{
place = "{103, 70}";
type = Stem;
},
{
place = "{419, 70}";
type = Stem;
}
);
layerId = "1041D826-7B5A-4F1A-81FD-3B5FB25AF0FC";
paths = (
{
closed = 1;
nodes = (
"206 653 OFFCURVE",
"173 613 OFFCURVE",
"173 551 CURVE SMOOTH",
"173 500 LINE",
"316 500 LINE",
"316 436 LINE",
"173 436 LINE",
"173 0 LINE",
"103 0 LINE",
"103 436 LINE",
"9 436 LINE",
"9 500 LINE",
"103 500 LINE",
"103 561 LINE SMOOTH",
"103 643 OFFCURVE",
"147 715 OFFCURVE",
"292 715 CURVE SMOOTH",
"437 715 OFFCURVE",
"481 643 OFFCURVE",
"481 561 CURVE SMOOTH",
"481 0 LINE",
"411 0 LINE",
"411 551 LINE SMOOTH",
"411 613 OFFCURVE",
"378 653 OFFCURVE",
"292 653 CURVE SMOOTH"
);
}
);
width = 541;
},
{
hints = (
{
horizontal = 1;
place = "{380, 127}";
type = Stem;
},
{
horizontal = 1;
place = "{591, 120}";
type = Stem;
},
{
place = "{96, 137}";
type = Stem;
},
{
place = "{440, 137}";
type = Stem;
}
);
layerId = "3B5F2A21-9AC0-43BD-916B-7DC2040966BF";
paths = (
{
closed = 1;
nodes = (
"266 589 OFFCURVE",
"233 572 OFFCURVE",
"233 516 CURVE SMOOTH",
"233 500 LINE",
"355 500 LINE",
"355 373 LINE",
"233 373 LINE",
"233 0 LINE",
"96 0 LINE",
"96 373 LINE",
"15 373 LINE",
"15 500 LINE",
"96 500 LINE",
"96 542 LINE SMOOTH",
"96 602 OFFCURVE",
"122 711 OFFCURVE",
"352 711 CURVE SMOOTH",
"582 711 OFFCURVE",
"608 602 OFFCURVE",
"608 542 CURVE SMOOTH",
"608 0 LINE",
"471 0 LINE",
"471 506 LINE SMOOTH",
"471 562 OFFCURVE",
"438 589 OFFCURVE",
"352 589 CURVE SMOOTH"
);
}
);
width = 668;
}
);
leftKerningGroup = f;
leftMetricsKey = f;
note = fl;
rightKerningGroup = l;
rightMetricsKey = l;
},
{
glyphname = ordfeminine;
lastChange = "2023-07-27 12:03:26 +0000";
layers = (
{
hints = (
{
horizontal = 1;
place = "{441, 54}";
type = Stem;
},
{
horizontal = 1;
place = "{601, 50}";
type = Stem;
},
{
horizontal = 1;
place = "{727, 55}";
type = Stem;
},
{
place = "{37, 64}";
type = Stem;
},
{
place = "{243, 64}";
type = Stem;
}
);
layerId = "1041D826-7B5A-4F1A-81FD-3B5FB25AF0FC";
paths = (
{
closed = 1;
nodes = (
"185 441 OFFCURVE",
"218 454 OFFCURVE",
"243 474 CURVE",
"243 445 LINE",
"307 445 LINE",
"307 661 LINE SMOOTH",
"307 733 OFFCURVE",
"248 782 OFFCURVE",
"178 782 CURVE SMOOTH",
"110 782 OFFCURVE",
"69 742 OFFCURVE",
"58 728 CURVE",
"102 691 LINE",
"120 708 OFFCURVE",
"145 727 OFFCURVE",
"178 727 CURVE SMOOTH",
"215 727 OFFCURVE",
"243 703 OFFCURVE",
"243 661 CURVE SMOOTH",
"243 646 LINE",
"225 649 OFFCURVE",
"206 651 OFFCURVE",
"189 651 CURVE SMOOTH",
"113 651 OFFCURVE",
"37 625 OFFCURVE",
"37 538 CURVE SMOOTH",
"37 496 OFFCURVE",
"73 441 OFFCURVE",
"149 441 CURVE SMOOTH"
);
},
{
closed = 1;
nodes = (
"115 495 OFFCURVE",
"101 514 OFFCURVE",
"101 538 CURVE SMOOTH",
"101 588 OFFCURVE",
"134 601 OFFCURVE",
"198 601 CURVE SMOOTH",
"214 601 OFFCURVE",
"229 599 OFFCURVE",
"243 597 CURVE",
"241 531 OFFCURVE",
"208 495 OFFCURVE",
"149 495 CURVE SMOOTH"
);
}
);
width = 373;
},
{
hints = (
{
horizontal = 1;
place = "{450, 80}";
type = Stem;
},
{
horizontal = 1;
place = "{591, 64}";
type = Stem;
},
{
horizontal = 1;
place = "{701, 75}";
type = Stem;
},
{
place = "{27, 81}";
type = Stem;
},
{
place = "{209, 87}";
type = Stem;
}
);
layerId = "3B5F2A21-9AC0-43BD-916B-7DC2040966BF";
paths = (
{
closed = 1;
nodes = (
"167 450 OFFCURVE",
"196 458 OFFCURVE",
"209 471 CURVE",
"209 453 LINE",
"296 453 LINE",
"296 655 LINE SMOOTH",
"296 729 OFFCURVE",
"239 776 OFFCURVE",
"170 776 CURVE SMOOTH",
"108 776 OFFCURVE",
"69 744 OFFCURVE",
"45 711 CURVE",
"105 659 LINE",
"123 685 OFFCURVE",
"141 701 OFFCURVE",
"170 701 CURVE SMOOTH",
"194 701 OFFCURVE",
"209 682 OFFCURVE",
"209 655 CURVE SMOOTH",
"209 651 LINE",
"201 653 OFFCURVE",
"191 654 OFFCURVE",
"179 655 CURVE SMOOTH",
"103 661 OFFCURVE",
"27 640 OFFCURVE",
"27 551 CURVE SMOOTH",
"27 505 OFFCURVE",
"61 450 OFFCURVE",
"139 450 CURVE SMOOTH"
);
},
{
closed = 1;
nodes = (
"118 530 OFFCURVE",
"108 543 OFFCURVE",
"108 556 CURVE SMOOTH",
"108 583 OFFCURVE",
"131 591 OFFCURVE",
"170 591 CURVE SMOOTH",
"183 591 OFFCURVE",
"200 590 OFFCURVE",
"209 588 CURVE",
"209 551 OFFCURVE",
"182 530 OFFCURVE",
"142 530 CURVE SMOOTH"
);
}
);
width = 362;
}
);
note = ordfeminine;
unicode = 00AA;
},
{
glyphname = ordmasculine;
lastChange = "2023-07-27 12:03:26 +0000";
layers = (
{
hints = (
{
horizontal = 1;
place = "{439, 54}";
type = Stem;
},
{
horizontal = 1;
place = "{727, 55}";
type = Stem;
},
{
place = "{27, 64}";
type = Stem;
},
{
place = "{310, 65}";
type = Stem;
}
);
layerId = "1041D826-7B5A-4F1A-81FD-3B5FB25AF0FC";
paths = (
{
closed = 1;
nodes = (
"297 439 OFFCURVE",
"375 518 OFFCURVE",
"375 610 CURVE SMOOTH",
"375 703 OFFCURVE",
"297 782 OFFCURVE",
"201 782 CURVE SMOOTH",
"106 782 OFFCURVE",
"27 703 OFFCURVE",
"27 610 CURVE SMOOTH",
"27 517 OFFCURVE",
"105 439 OFFCURVE",
"201 439 CURVE SMOOTH"
);
},
{
closed = 1;
nodes = (
"143 493 OFFCURVE",
"91 545 OFFCURVE",
"91 610 CURVE SMOOTH",
"91 675 OFFCURVE",
"144 727 OFFCURVE",
"201 727 CURVE SMOOTH",
"259 727 OFFCURVE",
"310 675 OFFCURVE",
"310 610 CURVE SMOOTH",
"310 546 OFFCURVE",
"259 493 OFFCURVE",
"201 493 CURVE SMOOTH"
);
}
);
width = 403;
},
{
hints = (
{
horizontal = 1;
place = "{446, 81}";
type = Stem;
},
{
horizontal = 1;
place = "{693, 81}";
type = Stem;
},
{
place = "{35, 88}";
type = Stem;
},
{
place = "{278, 87}";
type = Stem;
}
);
layerId = "3B5F2A21-9AC0-43BD-916B-7DC2040966BF";
paths = (
{
closed = 1;
nodes = (
"292 446 OFFCURVE",
"365 521 OFFCURVE",
"365 610 CURVE SMOOTH",
"365 700 OFFCURVE",
"292 774 OFFCURVE",
"200 774 CURVE SMOOTH",
"110 774 OFFCURVE",
"35 701 OFFCURVE",
"35 610 CURVE SMOOTH",
"35 520 OFFCURVE",
"109 446 OFFCURVE",
"200 446 CURVE SMOOTH"
);
},
{
closed = 1;
nodes = (
"159 527 OFFCURVE",
"123 563 OFFCURVE",
"123 610 CURVE SMOOTH",
"123 657 OFFCURVE",
"159 693 OFFCURVE",
"200 693 CURVE SMOOTH",
"242 693 OFFCURVE",
"278 657 OFFCURVE",
"278 610 CURVE SMOOTH",
"278 564 OFFCURVE",
"242 527 OFFCURVE",
"200 527 CURVE SMOOTH"
);
}
);
width = 402;
}
);
note = ordmasculine;
unicode = 00BA;
},
{
glyphname = Delta;
lastChange = "2023-07-27 12:03:26 +0000";
layers = (
{
hints = (
{
horizontal = 1;
place = "{0, 64}";
type = Stem;
},
{
place = "{35, 573}";
type = Stem;
}
);
layerId = "1041D826-7B5A-4F1A-81FD-3B5FB25AF0FC";
paths = (
{
closed = 1;
nodes = (
"608 0 LINE",
"322 691 LINE",
"35 0 LINE"
);
},
{
closed = 1;
nodes = (
"322 511 LINE",
"507 64 LINE",
"136 64 LINE"
);
}
);
width = 600;
},
{
hints = (
{
horizontal = 1;
place = "{4, 132}";
type = Stem;
},
{
place = "{7, 629}";
type = Stem;
}
);
layerId = "3B5F2A21-9AC0-43BD-916B-7DC2040966BF";
paths = (
{
closed = 1;
nodes = (
"636 4 LINE",
"322 762 LINE",
"7 4 LINE"
);
},
{
closed = 1;
nodes = (
"322 393 LINE",
"429 136 LINE",
"215 136 LINE"
);
}
);
width = 600;
}
);
note = Delta;
unicode = 0394;
},
{
glyphname = Omega;
lastChange = "2023-07-27 12:03:26 +0000";
layers = (
{
hints = (
{
horizontal = 1;
place = "{0, 64}";
type = Stem;
},
{
horizontal = 1;
place = "{633, 64}";
type = Stem;
},
{
place = "{72, 70}";
type = Stem;
},
{
place = "{693, 70}";
type = Stem;
}
);
layerId = "1041D826-7B5A-4F1A-81FD-3B5FB25AF0FC";
paths = (
{
closed = 1;
nodes = (
"287 0 LINE",
"287 57 LINE",
"211 95 OFFCURVE",
"142 208 OFFCURVE",
"142 320 CURVE SMOOTH",
"142 495 OFFCURVE",
"269 633 OFFCURVE",
"418 633 CURVE SMOOTH",
"566 633 OFFCURVE",
"693 495 OFFCURVE",
"693 320 CURVE SMOOTH",
"693 208 OFFCURVE",
"624 94 OFFCURVE",
"549 57 CURVE",
"547 0 LINE",
"805 0 LINE",
"805 64 LINE",
"662 64 LINE",
"722 129 OFFCURVE",
"763 225 OFFCURVE",
"763 320 CURVE SMOOTH",
"763 528 OFFCURVE",
"608 697 OFFCURVE",
"418 697 CURVE SMOOTH",
"227 697 OFFCURVE",
"72 528 OFFCURVE",
"72 320 CURVE SMOOTH",
"72 225 OFFCURVE",
"114 129 OFFCURVE",
"173 64 CURVE",
"30 64 LINE",
"30 0 LINE"
);
}
);
width = 835;
},
{
hints = (
{
horizontal = 1;
place = "{-1, 132}";
type = Stem;
},
{
horizontal = 1;
place = "{537, 132}";
type = Stem;
},
{
place = "{69, 143}";
type = Stem;
},
{
place = "{522, 282}";
type = Stem;
},
{
place = "{623, 143}";
type = Stem;
},
{
place = "{31, 282}";
type = Stem;
}
);
layerId = "3B5F2A21-9AC0-43BD-916B-7DC2040966BF";
paths = (
{
closed = 1;
nodes = (
"313 -1 LINE",
"313 131 LINE",
"262 164 OFFCURVE",
"212 240 OFFCURVE",
"212 323 CURVE SMOOTH",
"212 432 OFFCURVE",
"309 537 OFFCURVE",
"418 537 CURVE SMOOTH",
"527 537 OFFCURVE",
"623 432 OFFCURVE",
"623 323 CURVE SMOOTH",
"623 238 OFFCURVE",
"573 163 OFFCURVE",
"522 131 CURVE",
"522 -1 LINE",
"804 -1 LINE",
"804 121 LINE",
"700 121 LINE",
"740 177 OFFCURVE",
"766 254 OFFCURVE",
"766 323 CURVE SMOOTH",
"766 500 OFFCURVE",
"612 669 OFFCURVE",
"418 669 CURVE SMOOTH",
"223 669 OFFCURVE",
"69 500 OFFCURVE",
"69 323 CURVE SMOOTH",
"69 253 OFFCURVE",
"95 177 OFFCURVE",
"136 121 CURVE",
"31 121 LINE",
"31 -1 LINE"
);
}
);
width = 835;
}
);
note = Omega;
unicode = 03A9;
},
{
glyphname = mu;
lastChange = "2023-07-27 12:03:26 +0000";
layers = (
{
hints = (
{
horizontal = 1;
place = "{-2, 64}";
type = Stem;
},
{
place = "{96, 70}";
type = Stem;
},
{
place = "{399, 70}";
type = Stem;
},
{
horizontal = 1;
place = "{1, 64}";
type = Stem;
}
);
layerId = "1041D826-7B5A-4F1A-81FD-3B5FB25AF0FC";
paths = (
{
closed = 1;
nodes = (
"166 -238 LINE",
"166 36 LINE",
"195 13 OFFCURVE",
"235 -2 OFFCURVE",
"292 -2 CURVE SMOOTH",
"355 -2 OFFCURVE",
"400 22 OFFCURVE",
"428 57 CURVE",
"450 26 OFFCURVE",
"486 1 OFFCURVE",
"546 1 CURVE",
"546 65 LINE",
"480 65 OFFCURVE",
"469 126 OFFCURVE",
"469 157 CURVE SMOOTH",
"469 475 LINE",
"399 475 LINE",
"399 178 LINE SMOOTH",
"399 112 OFFCURVE",
"365 62 OFFCURVE",
"292 62 CURVE SMOOTH",
"185 62 OFFCURVE",
"166 140 OFFCURVE",
"166 221 CURVE SMOOTH",
"166 475 LINE",
"96 475 LINE",
"96 -238 LINE"
);
}
);
width = 600;
},
{
hints = (
{
horizontal = 1;
place = "{-24.04, 132.47}";
type = Stem;
},
{
place = "{80, 142}";
type = Stem;
},
{
place = "{350, 143}";
type = Stem;
},
{
horizontal = 1;
place = "{-27, 133}";
type = Stem;
}
);
layerId = "3B5F2A21-9AC0-43BD-916B-7DC2040966BF";
paths = (
{
closed = 1;
nodes = (
"222 -237 LINE",
"222 -17 LINE",
"243 -23 OFFCURVE",
"268 -27 OFFCURVE",
"295 -27 CURVE SMOOTH",
"345 -27 OFFCURVE",
"385 -13 OFFCURVE",
"416 9 CURVE",
"448 -16 OFFCURVE",
"494 -31 OFFCURVE",
"562 -21 CURVE",
"562 122 LINE",
"504 89 OFFCURVE",
"493 121 OFFCURVE",
"493 153 CURVE SMOOTH",
"493 474 LINE",
"350 474 LINE",
"350 175 LINE SMOOTH",
"351 130 OFFCURVE",
"334 106 OFFCURVE",
"295 106 CURVE SMOOTH",
"222 106 OFFCURVE",
"222 149 OFFCURVE",
"222 247 CURVE SMOOTH",
"222 474 LINE",
"80 474 LINE",
"80 -237 LINE"
);
}
);
width = 600;
}
);
note = mu;
unicode = 03BC;
},
{
glyphname = pi;
lastChange = "2023-07-27 12:03:26 +0000";
layers = (
{
hints = (
{
horizontal = 1;
place = "{0, 64}";
type = Stem;
},
{
horizontal = 1;
place = "{408, 64}";
type = Stem;
},
{
place = "{108, 70}";
type = Stem;
},
{
place = "{401, 70}";
type = Stem;
}
);
layerId = "1041D826-7B5A-4F1A-81FD-3B5FB25AF0FC";
paths = (
{
closed = 1;
nodes = (
"178 0 LINE",
"178 408 LINE",
"401 408 LINE",
"401 157 LINE SMOOTH",
"401 117 OFFCURVE",
"419 0 OFFCURVE",
"549 0 CURVE",
"549 64 LINE",
"482 64 OFFCURVE",
"471 126 OFFCURVE",
"471 157 CURVE SMOOTH",
"471 408 LINE",
"584 408 LINE",
"584 472 LINE",
"16 472 LINE",
"16 408 LINE",
"108 408 LINE",
"108 0 LINE"
);
}
);
width = 600;
},
{
hints = (
{
horizontal = 1;
place = "{-11.94, 132.37}";
type = Stem;
},
{
horizontal = 1;
place = "{352, 132}";
type = Stem;
},
{
place = "{88, 143}";
type = Stem;
},
{
place = "{350, 143}";
type = Stem;
}
);
layerId = "3B5F2A21-9AC0-43BD-916B-7DC2040966BF";
paths = (
{
closed = 1;
nodes = (
"231 -12 LINE",
"231 352 LINE",
"350 352 LINE",
"350 165 LINE SMOOTH",
"350 123 OFFCURVE",
"375 -36 OFFCURVE",
"562 -9 CURVE",
"562 134 LINE",
"505 101 OFFCURVE",
"493 133 OFFCURVE",
"493 165 CURVE SMOOTH",
"493 352 LINE",
"594 352 LINE",
"594 484 LINE",
"6 484 LINE",
"6 352 LINE",
"88 352 LINE",
"88 -12 LINE"
);
}
);
width = 600;
}
);
note = pi;
unicode = 03C0;
},
{
glyphname = zero;
lastChange = "2023-07-27 12:03:26 +0000";
layers = (
{
hints = (
{
horizontal = 1;
place = "{-6, 64}";
type = Stem;
},
{
horizontal = 1;
place = "{641, 64}";
type = Stem;
},
{
place = "{60, 70}";
type = Stem;
},
{
place = "{479, 70}";
type = Stem;
}
);
layerId = "1041D826-7B5A-4F1A-81FD-3B5FB25AF0FC";
paths = (
{
closed = 1;
nodes = (
"170 -6 OFFCURVE",
"60 114 OFFCURVE",
"60 352 CURVE SMOOTH",
"60 591 OFFCURVE",
"170 705 OFFCURVE",
"305 705 CURVE SMOOTH",
"440 705 OFFCURVE",
"549 591 OFFCURVE",
"549 352 CURVE SMOOTH",
"549 114 OFFCURVE",
"440 -6 OFFCURVE",
"305 -6 CURVE SMOOTH"
);
},
{
closed = 1;
nodes = (
"395 58 OFFCURVE",
"479 149 OFFCURVE",
"479 352 CURVE SMOOTH",
"479 555 OFFCURVE",
"397 641 OFFCURVE",
"305 641 CURVE SMOOTH",
"213 641 OFFCURVE",
"130 555 OFFCURVE",
"130 352 CURVE SMOOTH",
"130 149 OFFCURVE",
"214 58 OFFCURVE",
"305 58 CURVE SMOOTH"
);
}
);
width = 609;
},
{
hints = (
{
horizontal = 1;
place = "{-5, 131}";
type = Stem;
},
{
horizontal = 1;
place = "{572, 132}";
type = Stem;
},
{
place = "{46, 143}";
type = Stem;
},
{
place = "{420, 143}";
type = Stem;
}
);
layerId = "3B5F2A21-9AC0-43BD-916B-7DC2040966BF";
paths = (
{
closed = 1;
nodes = (
"160 -5 OFFCURVE",
"46 120 OFFCURVE",
"46 352 CURVE SMOOTH",
"46 585 OFFCURVE",
"161 704 OFFCURVE",
"305 704 CURVE SMOOTH",
"449 704 OFFCURVE",
"563 585 OFFCURVE",
"563 352 CURVE SMOOTH",
"563 120 OFFCURVE",
"449 -5 OFFCURVE",
"305 -5 CURVE SMOOTH"
);
},
{
closed = 1;
nodes = (
"360 126 OFFCURVE",
"420 191 OFFCURVE",
"420 352 CURVE SMOOTH",
"420 512 OFFCURVE",
"362 572 OFFCURVE",
"305 572 CURVE SMOOTH",
"247 572 OFFCURVE",
"189 512 OFFCURVE",
"189 352 CURVE SMOOTH",
"189 191 OFFCURVE",
"249 126 OFFCURVE",
"305 126 CURVE SMOOTH"
);
}
);
width = 609;
}
);
leftKerningGroup = zero;
note = zero;
rightKerningGroup = zero;
unicode = 0030;
},
{
glyphname = one;
lastChange = "2023-07-27 12:03:26 +0000";
layers = (
{
hints = (
{
horizontal = 1;
place = "{0, 64}";
type = Stem;
},
{
place = "{184, 70}";
type = Stem;
}
);
layerId = "1041D826-7B5A-4F1A-81FD-3B5FB25AF0FC";
paths = (
{
closed = 1;
nodes = (
"417 0 LINE",
"417 64 LINE",
"254 64 LINE",
"254 700 LINE",
"191 700 LINE",
"32 634 LINE",
"32 561 LINE",
"196 630 LINE",
"184 639 LINE",
"184 64 LINE",
"24 64 LINE",
"24 0 LINE"
);
}
);
width = 441;
},
{
hints = (
{
horizontal = 1;
place = "{0, 133}";
type = Stem;
},
{
place = "{167, 142}";
type = Stem;
}
);
layerId = "3B5F2A21-9AC0-43BD-916B-7DC2040966BF";
paths = (
{
closed = 1;
nodes = (
"455 0 LINE",
"455 133 LINE",
"309 133 LINE",
"309 700 LINE",
"186 700 LINE",
"31 628 LINE",
"31 466 LINE",
"177 542 LINE",
"167 557 LINE",
"167 133 LINE",
"24 133 LINE",
"24 0 LINE"
);
}
);
width = 480;
}
);
leftKerningGroup = one;
note = one;
rightKerningGroup = one;
unicode = 0031;
},
{
glyphname = two;
lastChange = "2023-07-27 12:03:26 +0000";
layers = (
{
hints = (
{
horizontal = 1;
place = "{0, 70}";
type = Stem;
},
{
horizontal = 1;
place = "{636, 70}";
type = Stem;
},
{
place = "{372.92, 70.55}";
type = Stem;
}
);
layerId = "1041D826-7B5A-4F1A-81FD-3B5FB25AF0FC";
paths = (
{
closed = 1;
nodes = (
"460 0 LINE",
"460 70 LINE",
"115 70 LINE",
"214 171 OFFCURVE",
"346 308 OFFCURVE",
"400 383 CURVE SMOOTH",
"509 535 OFFCURVE",
"401 706 OFFCURVE",
"231 706 CURVE SMOOTH",
"138 706 OFFCURVE",
"59 646 OFFCURVE",
"31 562 CURVE",
"100 540 LINE",
"119 596 OFFCURVE",
"169 636 OFFCURVE",
"231 636 CURVE SMOOTH",
"348 636 OFFCURVE",
"416 526 OFFCURVE",
"343 424 CURVE SMOOTH",
"285 342 OFFCURVE",
"122 177 OFFCURVE",
"18 70 CURVE",
"18 0 LINE"
);
}
);
width = 476;
},
{
hints = (
{
horizontal = 1;
place = "{0, 138}";
type = Stem;
},
{
horizontal = 1;
place = "{569, 137}";
type = Stem;
},
{
place = "{337.33, 142.46}";
type = Stem;
}
);
layerId = "3B5F2A21-9AC0-43BD-916B-7DC2040966BF";
paths = (
{
closed = 1;
nodes = (
"495 0 LINE",
"495 138 LINE",
"220 138 LINE",
"300 212 OFFCURVE",
"391 298 OFFCURVE",
"434 358 CURVE SMOOTH",
"550 520 OFFCURVE",
"432 706 OFFCURVE",
"251 706 CURVE SMOOTH",
"135 706 OFFCURVE",
"40 621 OFFCURVE",
"25 515 CURVE",
"165 470 LINE",
"166 528 OFFCURVE",
"202 569 OFFCURVE",
"251 569 CURVE SMOOTH",
"323 569 OFFCURVE",
"364 502 OFFCURVE",
"318 438 CURVE SMOOTH",
"261 359 OFFCURVE",
"107 228 OFFCURVE",
"20 138 CURVE",
"20 0 LINE"
);
}
);
width = 525;
}
);
leftKerningGroup = two;
note = two;
rightKerningGroup = two;
unicode = 0032;
},
{
glyphname = three;
lastChange = "2023-07-27 12:03:26 +0000";
layers = (
{
hints = (
{
horizontal = 1;
place = "{-3, 64}";
type = Stem;
},
{
horizontal = 1;
place = "{355, 64}";
type = Stem;
},
{
horizontal = 1;
place = "{640, 64}";
type = Stem;
},
{
place = "{366, 70}";
type = Stem;
},
{
place = "{325, 70}";
type = Stem;
}
);
layerId = "1041D826-7B5A-4F1A-81FD-3B5FB25AF0FC";
paths = (
{
closed = 1;
nodes = (
"348 -3 OFFCURVE",
"436 94 OFFCURVE",
"436 208 CURVE SMOOTH",
"436 335 OFFCURVE",
"349 404 OFFCURVE",
"254 404 CURVE",
"254 375 LINE",
"343 375 OFFCURVE",
"395 456 OFFCURVE",
"395 529 CURVE SMOOTH",
"395 625 OFFCURVE",
"315 704 OFFCURVE",
"217 704 CURVE SMOOTH",
"117 704 OFFCURVE",
"59 638 OFFCURVE",
"46 570 CURVE",
"113 559 LINE",
"124 604 OFFCURVE",
"165 636 OFFCURVE",
"217 636 CURVE SMOOTH",
"277 636 OFFCURVE",
"325 592 OFFCURVE",
"325 529 CURVE SMOOTH",
"325 467 OFFCURVE",
"287 416 OFFCURVE",
"197 416 CURVE SMOOTH",
"185 416 LINE",
"185 358 LINE",
"197 358 LINE SMOOTH",
"307 358 OFFCURVE",
"366 290 OFFCURVE",
"366 208 CURVE SMOOTH",
"366 125 OFFCURVE",
"307 65 OFFCURVE",
"217 65 CURVE SMOOTH",
"152 65 OFFCURVE",
"109 95 OFFCURVE",
"77 159 CURVE",
"14 130 LINE",
"49 48 OFFCURVE",
"128 -3 OFFCURVE",
"217 -3 CURVE SMOOTH"
);
}
);
width = 464;
},
{
hints = (
{
horizontal = 1;
place = "{-3, 133}";
type = Stem;
},
{
horizontal = 1;
place = "{323, 116}";
type = Stem;
},
{
horizontal = 1;
place = "{571, 133}";
type = Stem;
},
{
place = "{52, 125}";
type = Stem;
},
{
place = "{331, 142}";
type = Stem;
},
{
place = "{294, 143}";
type = Stem;
}
);
layerId = "3B5F2A21-9AC0-43BD-916B-7DC2040966BF";
paths = (
{
closed = 1;
nodes = (
"379 -3 OFFCURVE",
"473 102 OFFCURVE",
"473 223 CURVE SMOOTH",
"473 349 OFFCURVE",
"404 418 OFFCURVE",
"295 418 CURVE",
"295 355 LINE",
"401 355 OFFCURVE",
"441 456 OFFCURVE",
"441 510 CURVE SMOOTH",
"441 615 OFFCURVE",
"353 704 OFFCURVE",
"238 704 CURVE SMOOTH",
"113 704 OFFCURVE",
"50 620 OFFCURVE",
"34 516 CURVE",
"167 494 LINE",
"167 532 OFFCURVE",
"192 571 OFFCURVE",
"238 571 CURVE SMOOTH",
"277 571 OFFCURVE",
"301 546 OFFCURVE",
"301 510 CURVE SMOOTH",
"301 473 OFFCURVE",
"279 439 OFFCURVE",
"214 439 CURVE SMOOTH",
"200 439 LINE",
"200 323 LINE",
"211 323 LINE SMOOTH",
"295 323 OFFCURVE",
"331 277 OFFCURVE",
"331 223 CURVE SMOOTH",
"331 168 OFFCURVE",
"295 130 OFFCURVE",
"238 130 CURVE SMOOTH",
"171 130 OFFCURVE",
"147 180 OFFCURVE",
"140 221 CURVE",
"10 165 LINE",
"25 95 OFFCURVE",
"108 -3 OFFCURVE",
"238 -3 CURVE SMOOTH"
);
}
);
width = 502;
}
);
leftKerningGroup = three;
note = three;
rightKerningGroup = three;
unicode = 0033;
},
{
glyphname = four;
lastChange = "2023-07-27 12:03:26 +0000";
layers = (
{
hints = (
{
horizontal = 1;
place = "{152, 74}";
type = Stem;
},
{
place = "{392, 70}";
type = Stem;
}
);
layerId = "1041D826-7B5A-4F1A-81FD-3B5FB25AF0FC";
paths = (
{
closed = 1;
nodes = (
"462 0 LINE",
"462 152 LINE",
"560 152 LINE",
"560 226 LINE",
"462 226 LINE",
"462 700 LINE",
"392 700 LINE",
"37 217 LINE",
"37 152 LINE",
"392 152 LINE",
"392 0 LINE"
);
},
{
closed = 1;
nodes = (
"392 599 LINE",
"392 226 LINE",
"124 226 LINE"
);
}
);
width = 586;
},
{
hints = (
{
horizontal = 1;
place = "{135, 141}";
type = Stem;
},
{
place = "{350, 143}";
type = Stem;
}
);
layerId = "3B5F2A21-9AC0-43BD-916B-7DC2040966BF";
paths = (
{
closed = 1;
nodes = (
"493 0 LINE",
"493 135 LINE",
"593 135 LINE",
"593 276 LINE",
"493 276 LINE",
"493 700 LINE",
"356 700 LINE",
"43 251 LINE",
"43 135 LINE",
"350 135 LINE",
"350 0 LINE"
);
},
{
closed = 1;
nodes = (
"350 493 LINE",
"350 276 LINE",
"220 276 LINE"
);
}
);
width = 625;
}
);
leftKerningGroup = four;
note = four;
rightKerningGroup = four;
unicode = 0034;
},
{
glyphname = five;
lastChange = "2023-07-27 12:03:26 +0000";
layers = (
{
hints = (
{
horizontal = 1;
place = "{-3.44, 64.08}";
type = Stem;
},
{
horizontal = 1;
place = "{380.43, 63.95}";
type = Stem;
},
{
horizontal = 1;
place = "{636, 64}";
type = Stem;
},
{
place = "{21, 427.62}";
type = Stem;
}
);
layerId = "1041D826-7B5A-4F1A-81FD-3B5FB25AF0FC";
paths = (
{
closed = 1;
nodes = (
"321 -22 OFFCURVE",
"426 61 OFFCURVE",
"446 183 CURVE SMOOTH",
"466 305 OFFCURVE",
"379 419 OFFCURVE",
"258 440 CURVE SMOOTH",
"224 446 OFFCURVE",
"174 444 OFFCURVE",
"131 427 CURVE",
"184 636 LINE",
"425 636 LINE",
"425 700 LINE",
"129 700 LINE",
"52 400 LINE",
"86 344 LINE",
"160 384 OFFCURVE",
"203 384 OFFCURVE",
"247 377 CURVE SMOOTH",
"328 364 OFFCURVE",
"391 280 OFFCURVE",
"377 193 CURVE SMOOTH",
"362 104 OFFCURVE",
"291 48 OFFCURVE",
"197 63 CURVE SMOOTH",
"141 73 OFFCURVE",
"106 98 OFFCURVE",
"81 139 CURVE",
"21 106 LINE",
"53 53 OFFCURVE",
"107 13 OFFCURVE",
"186 0 CURVE SMOOTH"
);
}
);
width = 498;
},
{
hints = (
{
horizontal = 1;
place = "{339.38, 128.62}";
type = Stem;
},
{
horizontal = 1;
place = "{568, 132}";
type = Stem;
},
{
place = "{13, 472.71}";
type = Stem;
},
{
horizontal = 1;
place = "{-3.46, 134.46}";
type = Stem;
},
{
place = "{342, 143.71}";
type = Stem;
}
);
layerId = "3B5F2A21-9AC0-43BD-916B-7DC2040966BF";
paths = (
{
closed = 1;
nodes = (
"348 -23 OFFCURVE",
"462 67 OFFCURVE",
"483 195 CURVE SMOOTH",
"504 324 OFFCURVE",
"412 447 OFFCURVE",
"281 468 CURVE SMOOTH",
"255 472 OFFCURVE",
"231 471 OFFCURVE",
"207 467 CURVE",
"240 568 LINE",
"464 568 LINE",
"464 700 LINE",
"128 700 LINE",
"38 407 LINE",
"107 291 LINE",
"186 341 OFFCURVE",
"218 343 OFFCURVE",
"259 337 CURVE SMOOTH",
"309 329 OFFCURVE",
"351 273 OFFCURVE",
"342 216 CURVE SMOOTH",
"332 155 OFFCURVE",
"288 121 OFFCURVE",
"227 131 CURVE SMOOTH",
"176 139 OFFCURVE",
"158 161 OFFCURVE",
"135 214 CURVE",
"13 148 LINE",
"35 81 OFFCURVE",
"106 17 OFFCURVE",
"204 0 CURVE SMOOTH"
);
}
);
width = 538;
}
);
leftKerningGroup = five;
note = five;
rightKerningGroup = five;
unicode = 0035;
},
{
glyphname = six;
lastChange = "2023-07-27 12:03:26 +0000";
layers = (
{
hints = (
{
horizontal = 1;
place = "{-3.88, 70.37}";
type = Stem;
},
{
horizontal = 1;
place = "{340.03, 70.26}";
type = Stem;
},
{
place = "{28.09, 70.37}";
type = Stem;
},
{
place = "{371.95, 70.37}";
type = Stem;
}
);
layerId = "1041D826-7B5A-4F1A-81FD-3B5FB25AF0FC";
paths = (
{
closed = 1;
nodes = (
"231 -33 OFFCURVE",
"358 1 OFFCURVE",
"415 100 CURVE SMOOTH",
"472 200 OFFCURVE",
"437 326 OFFCURVE",
"338 383 CURVE SMOOTH",
"284 414 OFFCURVE",
"193 411 OFFCURVE",
"134 367 CURVE",
"171 367 LINE",
"364 700 LINE",
"283 700 LINE",
"56 308 LINE SMOOTH",
"-2 208 OFFCURVE",
"33 80 OFFCURVE",
"132 23 CURVE SMOOTH"
);
},
{
closed = 1;
nodes = (
"101 122 OFFCURVE",
"79 206 OFFCURVE",
"116 272 CURVE SMOOTH",
"154 337 OFFCURVE",
"237 360 OFFCURVE",
"303 322 CURVE SMOOTH",
"369 285 OFFCURVE",
"392 201 OFFCURVE",
"354 135 CURVE SMOOTH",
"317 69 OFFCURVE",
"233 47 OFFCURVE",
"167 84 CURVE SMOOTH"
);
}
);
width = 465;
},
{
hints = (
{
horizontal = 1;
place = "{-3.93, 137.93}";
type = Stem;
},
{
horizontal = 1;
place = "{303.8, 135.2}";
type = Stem;
},
{
place = "{30.26, 142.15}";
type = Stem;
},
{
place = "{336.89, 142.62}";
type = Stem;
}
);
layerId = "3B5F2A21-9AC0-43BD-916B-7DC2040966BF";
paths = (
{
closed = 1;
nodes = (
"208 -34 OFFCURVE",
"376 -22 OFFCURVE",
"450 108 CURVE SMOOTH",
"511 215 OFFCURVE",
"476 350 OFFCURVE",
"367 412 CURVE SMOOTH",
"321 438 OFFCURVE",
"242 443 OFFCURVE",
"178 396 CURVE",
"242 364 LINE",
"437 700 LINE",
"274 700 LINE",
"61 332 LINE SMOOTH",
"1 228 OFFCURVE",
"31 113 OFFCURVE",
"111 47 CURVE SMOOTH"
);
},
{
closed = 1;
nodes = (
"171 170 OFFCURVE",
"157 222 OFFCURVE",
"180 264 CURVE SMOOTH",
"204 305 OFFCURVE",
"255 319 OFFCURVE",
"297 295 CURVE SMOOTH",
"338 272 OFFCURVE",
"353 220 OFFCURVE",
"329 178 CURVE SMOOTH",
"305 137 OFFCURVE",
"253 123 OFFCURVE",
"211 147 CURVE SMOOTH"
);
}
);
width = 505;
}
);
leftKerningGroup = six;
note = six;
rightKerningGroup = six;
unicode = 0036;
},
{
glyphname = seven;
lastChange = "2023-07-27 12:03:26 +0000";
layers = (
{
hints = (
{
horizontal = 1;
place = "{630, 70}";
type = Stem;
},
{
place = "{35, 494}";
type = Stem;
}
);
layerId = "1041D826-7B5A-4F1A-81FD-3B5FB25AF0FC";
paths = (
{
closed = 1;
nodes = (
"116 0 LINE",
"529 700 LINE",
"74 700 LINE",
"74 630 LINE",
"407 630 LINE",
"35 0 LINE"
);
}
);
width = 539;
},
{
hints = (
{
horizontal = 1;
place = "{563, 137}";
type = Stem;
},
{
place = "{14, 577}";
type = Stem;
}
);
layerId = "3B5F2A21-9AC0-43BD-916B-7DC2040966BF";
paths = (
{
closed = 1;
nodes = (
"178 0 LINE",
"591 700 LINE",
"76 700 LINE",
"76 563 LINE",
"346 563 LINE",
"14 0 LINE"
);
}
);
width = 600;
}
);
leftKerningGroup = seven;
note = seven;
rightKerningGroup = seven;
unicode = 0037;
},
{
glyphname = eight;
lastChange = "2023-07-27 12:03:26 +0000";
layers = (
{
hints = (
{
horizontal = 1;
place = "{-3.24, 64.29}";
type = Stem;
},
{
horizontal = 1;
place = "{639.83, 64.48}";
type = Stem;
},
{
place = "{30.19, 69.85}";
type = Stem;
},
{
place = "{396.89, 69.98}";
type = Stem;
},
{
place = "{58.76, 70.18}";
type = Stem;
},
{
place = "{368.55, 70.41}";
type = Stem;
},
{
horizontal = 1;
place = "{331, 64}";
type = Stem;
}
);
layerId = "1041D826-7B5A-4F1A-81FD-3B5FB25AF0FC";
paths = (
{
closed = 1;
nodes = (
"244 -31 OFFCURVE",
"378 2 OFFCURVE",
"437 96 CURVE SMOOTH",
"498 192 OFFCURVE",
"463 311 OFFCURVE",
"359 367 CURVE",
"381 382 OFFCURVE",
"400 402 OFFCURVE",
"413 425 CURVE SMOOTH",
"466 516 OFFCURVE",
"436 627 OFFCURVE",
"343 680 CURVE SMOOTH",
"254 731 OFFCURVE",
"135 699 OFFCURVE",
"84 610 CURVE SMOOTH",
"35 525 OFFCURVE",
"59 422 OFFCURVE",
"139 366 CURVE",
"106 350 OFFCURVE",
"79 326 OFFCURVE",
"60 296 CURVE SMOOTH",
"-1 198 OFFCURVE",
"34 78 OFFCURVE",
"141 22 CURVE SMOOTH"
);
},
{
closed = 1;
nodes = (
"103 116 OFFCURVE",
"79 198 OFFCURVE",
"119 262 CURVE SMOOTH",
"147 306 OFFCURVE",
"194 331 OFFCURVE",
"250 331 CURVE SMOOTH",
"361 331 OFFCURVE",
"435 221 OFFCURVE",
"378 130 CURVE SMOOTH",
"336 64 OFFCURVE",
"246 41 OFFCURVE",
"173 79 CURVE SMOOTH"
);
},
{
closed = 1;
nodes = (
"158 395 OFFCURVE",
"97 495 OFFCURVE",
"145 579 CURVE SMOOTH",
"179 638 OFFCURVE",
"250 657 OFFCURVE",
"308 624 CURVE SMOOTH",
"366 591 OFFCURVE",
"386 515 OFFCURVE",
"353 457 CURVE SMOOTH",
"330 417 OFFCURVE",
"295 395 OFFCURVE",
"251 395 CURVE SMOOTH"
);
}
);
width = 497;
},
{
hints = (
{
horizontal = 1;
place = "{-3.26, 132.78}";
type = Stem;
},
{
horizontal = 1;
place = "{571.31, 132.87}";
type = Stem;
},
{
place = "{22.78, 142.46}";
type = Stem;
},
{
place = "{350.43, 142.2}";
type = Stem;
},
{
place = "{48.41, 142.7}";
type = Stem;
},
{
place = "{324.86, 142.84}";
type = Stem;
}
);
layerId = "3B5F2A21-9AC0-43BD-916B-7DC2040966BF";
paths = (
{
closed = 1;
nodes = (
"253 -33 OFFCURVE",
"397 2 OFFCURVE",
"460 103 CURVE SMOOTH",
"517 194 OFFCURVE",
"497 301 OFFCURVE",
"419 369 CURVE",
"427 378 OFFCURVE",
"434 388 OFFCURVE",
"440 398 CURVE SMOOTH",
"497 498 OFFCURVE",
"464 618 OFFCURVE",
"362 677 CURVE SMOOTH",
"263 734 OFFCURVE",
"132 698 OFFCURVE",
"76 601 CURVE SMOOTH",
"31 523 OFFCURVE",
"42 432 OFFCURVE",
"98 369 CURVE",
"81 355 OFFCURVE",
"66 339 OFFCURVE",
"55 322 CURVE SMOOTH",
"-11 215 OFFCURVE",
"27 85 OFFCURVE",
"143 24 CURVE SMOOTH"
);
},
{
closed = 1;
nodes = (
"167 163 OFFCURVE",
"153 214 OFFCURVE",
"176 252 CURVE SMOOTH",
"194 280 OFFCURVE",
"220 296 OFFCURVE",
"258 296 CURVE SMOOTH",
"318 296 OFFCURVE",
"380 237 OFFCURVE",
"339 173 CURVE SMOOTH",
"313 131 OFFCURVE",
"256 117 OFFCURVE",
"209 141 CURVE SMOOTH"
);
},
{
closed = 1;
nodes = (
"197 428 OFFCURVE",
"177 495 OFFCURVE",
"200 535 CURVE SMOOTH",
"221 571 OFFCURVE",
"258 581 OFFCURVE",
"291 562 CURVE SMOOTH",
"323 544 OFFCURVE",
"335 498 OFFCURVE",
"316 464 CURVE SMOOTH",
"303 441 OFFCURVE",
"285 428 OFFCURVE",
"260 428 CURVE SMOOTH"
);
}
);
width = 516;
}
);
leftKerningGroup = eight;
note = eight;
rightKerningGroup = eight;
unicode = 0038;
},
{
glyphname = zero.zero;
lastChange = "2023-07-27 12:03:26 +0000";
layers = (
{
hints = (
{
horizontal = 1;
place = "{-6, 64}";
type = Stem;
},
{
horizontal = 1;
place = "{641, 64}";
type = Stem;
},
{
place = "{60, 70}";
type = Stem;
},
{
place = "{479, 70}";
type = Stem;
},
{
horizontal = 1;
place = "{-125, 862}";
type = Stem;
},
{
place = "{147, 316}";
type = Stem;
}
);
layerId = "1041D826-7B5A-4F1A-81FD-3B5FB25AF0FC";
paths = (
{
closed = 1;
nodes = (
"440 -6 OFFCURVE",
"549 114 OFFCURVE",
"549 352 CURVE SMOOTH",
"549 591 OFFCURVE",
"440 705 OFFCURVE",
"305 705 CURVE SMOOTH",
"170 705 OFFCURVE",
"60 591 OFFCURVE",
"60 352 CURVE SMOOTH",
"60 114 OFFCURVE",
"170 -6 OFFCURVE",
"305 -6 CURVE SMOOTH"
);
},
{
closed = 1;
nodes = (
"214 58 OFFCURVE",
"130 149 OFFCURVE",
"130 352 CURVE SMOOTH",
"130 555 OFFCURVE",
"213 641 OFFCURVE",
"305 641 CURVE SMOOTH",
"397 641 OFFCURVE",
"479 555 OFFCURVE",
"479 352 CURVE SMOOTH",
"479 149 OFFCURVE",
"395 58 OFFCURVE",
"305 58 CURVE SMOOTH"
);
},
{
closed = 1;
nodes = (
"425 646 LINE",
"371 665 LINE",
"184 61 LINE",
"239 43 LINE"
);
}
);
width = 609;
},
{
hints = (
{
horizontal = 1;
place = "{-5, 131}";
type = Stem;
},
{
horizontal = 1;
place = "{572, 132}";
type = Stem;
},
{
place = "{46, 143}";
type = Stem;
},
{
place = "{420, 143}";
type = Stem;
},
{
horizontal = 1;
place = "{-126, 864}";
type = Stem;
},
{
place = "{125, 360}";
type = Stem;
}
);
layerId = "3B5F2A21-9AC0-43BD-916B-7DC2040966BF";
paths = (
{
closed = 1;
nodes = (
"449 -5 OFFCURVE",
"563 120 OFFCURVE",
"563 352 CURVE SMOOTH",
"563 585 OFFCURVE",
"449 704 OFFCURVE",
"305 704 CURVE SMOOTH",
"161 704 OFFCURVE",
"46 585 OFFCURVE",
"46 352 CURVE SMOOTH",
"46 120 OFFCURVE",
"160 -5 OFFCURVE",
"305 -5 CURVE SMOOTH"
);
},
{
closed = 1;
nodes = (
"249 126 OFFCURVE",
"189 191 OFFCURVE",
"189 352 CURVE SMOOTH",
"189 512 OFFCURVE",
"247 572 OFFCURVE",
"305 572 CURVE SMOOTH",
"362 572 OFFCURVE",
"420 512 OFFCURVE",
"420 352 CURVE SMOOTH",
"420 191 OFFCURVE",
"360 126 OFFCURVE",
"305 126 CURVE SMOOTH"
);
},
{
closed = 1;
nodes = (
"450 619 LINE",
"339 655 LINE",
"159 99 LINE",
"270 65 LINE"
);
}
);
width = 609;
}
);
leftMetricsKey = zero;
rightMetricsKey = zero;
},
{
glyphname = fraction;
lastChange = "2023-07-27 12:03:26 +0000";
layers = (
{
hints = (
{
horizontal = 1;
place = "{-18, 896}";
type = Stem;
},
{
place = "{11, 631}";
type = Stem;
}
);
layerId = "1041D826-7B5A-4F1A-81FD-3B5FB25AF0FC";
paths = (
{
closed = 1;
nodes = (
"123 -2 LINE",
"704 751 LINE",
"641 751 LINE",
"60 -2 LINE"
);
}
);
width = 727;
},
{
hints = (
{
horizontal = 1;
place = "{-23, 906}";
type = Stem;
},
{
place = "{0, 673}";
type = Stem;
}
);
layerId = "3B5F2A21-9AC0-43BD-916B-7DC2040966BF";
paths = (
{
closed = 1;
nodes = (
"157 -2 LINE",
"738 751 LINE",
"611 751 LINE",
"30 -2 LINE"
);
}
);
width = 778;
}
);
note = fraction;
unicode = 2044;
},
{
glyphname = zero.dnom.zero;
lastChange = "2023-07-27 12:03:26 +0000";
layers = (
{
components = (
{
name = zero;
transform = "{0.6061, 0, 0, 0.6061, 0, 0}";
}
);
hints = (
{
horizontal = 1;
place = "{-4.546, 48.486}";
type = Stem;
},
{
horizontal = 1;
place = "{485.622, 48.486}";
type = Stem;
},
{
place = "{45.456, 53.032}";
type = Stem;
},
{
place = "{362.89, 53.032}";
type = Stem;
}
);
layerId = "1041D826-7B5A-4F1A-81FD-3B5FB25AF0FC";
paths = (
{
closed = 1;
nodes = (
"116 42 LINE",
"223 394 LINE",
"254 384 LINE",
"147 30 LINE"
);
}
);
width = 369;
},
{
components = (
{
name = zero;
transform = "{0.6061, 0, 0, 0.6061, 0, 0}";
}
);
hints = (
{
horizontal = 1;
place = "{-3.788, 99.246}";
type = Stem;
},
{
horizontal = 1;
place = "{433.347, 100.003}";
type = Stem;
},
{
place = "{34.85, 108.337}";
type = Stem;
},
{
place = "{318.192, 108.337}";
type = Stem;
}
);
layerId = "3B5F2A21-9AC0-43BD-916B-7DC2040966BF";
paths = (
{
closed = 1;
nodes = (
"114 78 LINE",
"199 370 LINE",
"255 345 LINE",
"170 54 LINE"
);
}
);
width = 369;
}
);
leftKerningGroup = zero.dnom;
rightKerningGroup = zero.dnom;
},
{
glyphname = .notdef;
lastChange = "2023-07-27 12:03:26 +0000";
layers = (
{
components = (
{
alignment = -1;
name = braceleft;
transform = "{1, 0, 0, 1, 25, 0}";
},
{
alignment = -1;
name = braceright;
transform = "{1, 0, 0, 1, 704, 0}";
},
{
alignment = -1;
name = N;
transform = "{0, 0.4327, -0.4327, 0, 720, -164}";
},
{
alignment = -1;
name = B;
transform = "{0, 0.4327, -0.4327, 0, 719, 130}";
},
{
alignment = -1;
name = R;
transform = "{0, 0.4327, -0.4327, 0, 719, 382}";
},
{
name = period;
transform = "{0, 0.432, -0.432, 0, 718, 676}";
}
);
layerId = "1041D826-7B5A-4F1A-81FD-3B5FB25AF0FC";
width = 1013;
},
{
components = (
{
alignment = -1;
name = braceleft;
transform = "{1, 0, 0, 1, -20, 0}";
},
{
alignment = -1;
name = braceright;
transform = "{1, 0, 0, 1, 708, 0}";
},
{
alignment = -1;
name = N;
transform = "{0, 0.4327, -0.4327, 0, 717, -164}";
},
{
alignment = -1;
name = B;
transform = "{0, 0.4327, -0.4327, 0, 716, 130}";
},
{
alignment = -1;
name = R;
transform = "{0, 0.4327, -0.4327, 0, 716, 377}";
},
{
name = period;
transform = "{0, 0.432, -0.432, 0, 715, 676}";
}
);
layerId = "3B5F2A21-9AC0-43BD-916B-7DC2040966BF";
width = 1004;
},
{
associatedMasterId = "1041D826-7B5A-4F1A-81FD-3B5FB25AF0FC";
layerId = "E0243716-C202-411D-B918-09A051B7F70A";
name = "24 juil. 23 à 11:45";
paths = (
{
closed = 1;
nodes = (
"500 0 LINE",
"500 700 LINE",
"0 700 LINE",
"0 0 LINE"
);
},
{
closed = 1;
nodes = (
"250 305 LINE",
"420 50 LINE",
"80 50 LINE"
);
},
{
closed = 1;
nodes = (
"50 605 LINE",
"220 350 LINE",
"50 95 LINE"
);
},
{
closed = 1;
nodes = (
"280 350 LINE",
"450 605 LINE",
"450 95 LINE"
);
},
{
closed = 1;
nodes = (
"80 650 LINE",
"420 650 LINE",
"250 395 LINE"
);
}
);
width = 500;
},
{
associatedMasterId = "3B5F2A21-9AC0-43BD-916B-7DC2040966BF";
layerId = "AD70B707-6481-42C4-BB38-4583DDE8AC4E";
name = "24 juil. 23 à 11:45";
paths = (
{
closed = 1;
nodes = (
"500 0 LINE",
"500 700 LINE",
"0 700 LINE",
"0 0 LINE"
);
},
{
closed = 1;
nodes = (
"250 305 LINE",
"420 50 LINE",
"80 50 LINE"
);
},
{
closed = 1;
nodes = (
"50 605 LINE",
"220 350 LINE",
"50 95 LINE"
);
},
{
closed = 1;
nodes = (
"280 350 LINE",
"450 605 LINE",
"450 95 LINE"
);
},
{
closed = 1;
nodes = (
"80 650 LINE",
"420 650 LINE",
"250 395 LINE"
);
}
);
width = 500;
}
);
note = ".notdef";
},
{
glyphname = period;
lastChange = "2023-07-27 12:03:26 +0000";
layers = (
{
hints = (
{
horizontal = 1;
place = "{0, 125}";
type = Stem;
},
{
place = "{124, 125}";
type = Stem;
}
);
layerId = "1041D826-7B5A-4F1A-81FD-3B5FB25AF0FC";
paths = (
{
closed = 1;
nodes = (
"123 -6 OFFCURVE",
"148 17 OFFCURVE",
"148 48 CURVE SMOOTH",
"148 77 OFFCURVE",
"123 101 OFFCURVE",
"94 101 CURVE SMOOTH",
"65 101 OFFCURVE",
"40 77 OFFCURVE",
"40 48 CURVE SMOOTH",
"40 17 OFFCURVE",
"65 -6 OFFCURVE",
"94 -6 CURVE SMOOTH"
);
}
);
width = 188;
},
{
hints = (
{
horizontal = 1;
place = "{-31, 187}";
type = Stem;
},
{
place = "{90, 193}";
type = Stem;
}
);
layerId = "3B5F2A21-9AC0-43BD-916B-7DC2040966BF";
paths = (
{
closed = 1;
nodes = (
"177 -6 OFFCURVE",
"214 30 OFFCURVE",
"214 76 CURVE SMOOTH",
"214 121 OFFCURVE",
"177 158 OFFCURVE",
"132 158 CURVE SMOOTH",
"87 158 OFFCURVE",
"50 121 OFFCURVE",
"50 76 CURVE SMOOTH",
"50 30 OFFCURVE",
"87 -6 OFFCURVE",
"132 -6 CURVE SMOOTH"
);
}
);
width = 264;
}
);
leftKerningGroup = period;
note = period;
rightKerningGroup = quotesinglbase;
unicode = 002E;
},
{
glyphname = comma;
lastChange = "2023-07-27 12:03:26 +0000";
layers = (
{
hints = (
{
horizontal = 1;
place = "{-126, 217}";
type = Stem;
},
{
place = "{110, 71}";
type = Stem;
}
);
layerId = "1041D826-7B5A-4F1A-81FD-3B5FB25AF0FC";
paths = (
{
closed = 1;
nodes = (
"94 -94 OFFCURVE",
"148 -14 OFFCURVE",
"148 48 CURVE",
"102 48 LINE",
"102 -24 OFFCURVE",
"54 -66 OFFCURVE",
"-2 -112 CURVE",
"29 -143 LINE"
);
},
{
closed = 1;
nodes = (
"123 -6 OFFCURVE",
"148 17 OFFCURVE",
"148 48 CURVE SMOOTH",
"148 77 OFFCURVE",
"123 101 OFFCURVE",
"94 101 CURVE SMOOTH",
"65 101 OFFCURVE",
"40 77 OFFCURVE",
"40 48 CURVE SMOOTH",
"40 17 OFFCURVE",
"65 -6 OFFCURVE",
"94 -6 CURVE SMOOTH"
);
}
);
width = 198;
},
{
hints = (
{
horizontal = 1;
place = "{-165, 281}";
type = Stem;
},
{
place = "{90, 123}";
type = Stem;
}
);
layerId = "3B5F2A21-9AC0-43BD-916B-7DC2040966BF";
paths = (
{
closed = 1;
nodes = (
"146 -118 OFFCURVE",
"214 -7 OFFCURVE",
"214 76 CURVE",
"140 76 LINE",
"140 -17 OFFCURVE",
"79 -66 OFFCURVE",
"8 -124 CURVE",
"63 -180 LINE"
);
},
{
closed = 1;
nodes = (
"177 -6 OFFCURVE",
"214 30 OFFCURVE",
"214 76 CURVE SMOOTH",
"214 121 OFFCURVE",
"177 158 OFFCURVE",
"132 158 CURVE SMOOTH",
"87 158 OFFCURVE",
"50 121 OFFCURVE",
"50 76 CURVE SMOOTH",
"50 30 OFFCURVE",
"87 -6 OFFCURVE",
"132 -6 CURVE SMOOTH"
);
}
);
width = 264;
}
);
leftKerningGroup = period;
note = comma;
rightKerningGroup = quotesinglbase;
unicode = 002C;
},
{
glyphname = exclam;
lastChange = "2023-07-27 12:03:26 +0000";
layers = (
{
components = (
{
name = period;
transform = "{1, 0, 0, 1, 20, 0}";
}
);
hints = (
{
horizontal = 1;
place = "{0, 125}";
type = Stem;
},
{
place = "{143, 88}";
type = Stem;
},
{
place = "{124, 125}";
type = Stem;
}
);
layerId = "1041D826-7B5A-4F1A-81FD-3B5FB25AF0FC";
paths = (
{
closed = 1;
nodes = (
"148 241 LINE",
"163 708 LINE",
"65 708 LINE",
"80 241 LINE"
);
}
);
width = 228;
},
{
components = (
{
name = period;
transform = "{1, 0, 0, 1, 27, 0}";
}
);
hints = (
{
horizontal = 1;
place = "{-31, 187}";
type = Stem;
},
{
place = "{107.5, 159}";
type = Stem;
},
{
place = "{90, 193}";
type = Stem;
}
);
layerId = "3B5F2A21-9AC0-43BD-916B-7DC2040966BF";
paths = (
{
closed = 1;
nodes = (
"229 228 LINE",
"248 720 LINE",
"70 720 LINE",
"89 228 LINE"
);
}
);
width = 318;
}
);
leftKerningGroup = exclam;
note = exclam;
rightKerningGroup = exclam;
unicode = 0021;
},
{
glyphname = question;
lastChange = "2023-07-27 12:03:26 +0000";
layers = (
{
components = (
{
name = period;
transform = "{1, 0, 0, 1, 27, 0}";
}
);
hints = (
{
horizontal = 1;
place = "{0, 125}";
type = Stem;
},
{
horizontal = 1;
place = "{644, 64}";
type = Stem;
},
{
place = "{145, 76}";
type = Stem;
},
{
place = "{327, 70}";
type = Stem;
},
{
place = "{131, 125}";
type = Stem;
}
);
layerId = "1041D826-7B5A-4F1A-81FD-3B5FB25AF0FC";
paths = (
{
closed = 1;
nodes = (
"151 191 LINE",
"151 348 LINE",
"231 378 OFFCURVE",
"318 428 OFFCURVE",
"327 533 CURVE SMOOTH",
"335 635 OFFCURVE",
"262 708 OFFCURVE",
"144 708 CURVE SMOOTH",
"41 708 OFFCURVE",
"-3 619 OFFCURVE",
"-3 619 CURVE",
"58 584 LINE",
"62 592 OFFCURVE",
"91 643 OFFCURVE",
"148 643 CURVE SMOOTH",
"216 643 OFFCURVE",
"262 602 OFFCURVE",
"257 539 CURVE SMOOTH",
"250 454 OFFCURVE",
"160 422 OFFCURVE",
"72 394 CURVE",
"81 191 LINE"
);
}
);
width = 378;
},
{
components = (
{
name = period;
transform = "{1, 0, 0, 1, 27, 0}";
}
);
hints = (
{
horizontal = 1;
place = "{-41, 187}";
type = Stem;
},
{
horizontal = 1;
place = "{578, 132}";
type = Stem;
},
{
place = "{114, 148}";
type = Stem;
},
{
place = "{277, 142}";
type = Stem;
},
{
place = "{100, 193}";
type = Stem;
}
);
layerId = "3B5F2A21-9AC0-43BD-916B-7DC2040966BF";
paths = (
{
closed = 1;
nodes = (
"221 219 LINE",
"221 327 LINE",
"292 358 OFFCURVE",
"370 414 OFFCURVE",
"378 514 CURVE SMOOTH",
"388 627 OFFCURVE",
"290 710 OFFCURVE",
"173 710 CURVE SMOOTH",
"56 710 OFFCURVE",
"7 608 OFFCURVE",
"7 608 CURVE",
"126 541 LINE",
"126 541 OFFCURVE",
"144 578 OFFCURVE",
"181 578 CURVE SMOOTH",
"218 578 OFFCURVE",
"239 559 OFFCURVE",
"236 525 CURVE SMOOTH",
"231 468 OFFCURVE",
"155 445 OFFCURVE",
"65 418 CURVE",
"81 219 LINE"
);
}
);
width = 429;
}
);
leftKerningGroup = question;
note = question;
rightKerningGroup = question;
unicode = 003F;
},
{
glyphname = asterisk;
lastChange = "2023-07-27 12:03:26 +0000";
layers = (
{
hints = (
{
horizontal = 1;
place = "{416, 381}";
type = Stem;
},
{
place = "{205, 70}";
type = Stem;
}
);
layerId = "1041D826-7B5A-4F1A-81FD-3B5FB25AF0FC";
paths = (
{
closed = 1;
nodes = (
"178 797 LINE",
"190 624 LINE",
"31 689 LINE",
"10 627 LINE",
"178 584 LINE",
"67 453 LINE",
"125 416 LINE",
"212 558 LINE",
"299 416 LINE",
"357 453 LINE",
"246 584 LINE",
"414 627 LINE",
"393 689 LINE",
"234 624 LINE",
"246 797 LINE"
);
}
);
width = 494;
},
{
hints = (
{
horizontal = 1;
place = "{382, 431}";
type = Stem;
},
{
place = "{169, 143}";
type = Stem;
}
);
layerId = "3B5F2A21-9AC0-43BD-916B-7DC2040966BF";
paths = (
{
closed = 1;
nodes = (
"184 823 LINE",
"195 664 LINE",
"49 724 LINE",
"10 609 LINE",
"165 569 LINE",
"62 447 LINE",
"167 380 LINE",
"246 508 LINE",
"325 380 LINE",
"430 447 LINE",
"327 569 LINE",
"482 609 LINE",
"443 724 LINE",
"297 664 LINE",
"308 823 LINE"
);
}
);
width = 562;
}
);
leftKerningGroup = asterisk;
note = asterisk;
rightKerningGroup = asterisk;
unicode = 002A;
},
{
glyphname = numbersign;
lastChange = "2023-07-27 12:03:26 +0000";
layers = (
{
hints = (
{
horizontal = 1;
place = "{180, 64}";
type = Stem;
},
{
horizontal = 1;
place = "{480, 64}";
type = Stem;
},
{
place = "{12, 654}";
type = Stem;
}
);
layerId = "1041D826-7B5A-4F1A-81FD-3B5FB25AF0FC";
paths = (
{
closed = 1;
nodes = (
"149 0 LINE",
"197 180 LINE",
"383 180 LINE",
"334 1 LINE",
"406 1 LINE",
"455 180 LINE",
"585 180 LINE",
"585 244 LINE",
"473 244 LINE",
"537 480 LINE",
"666 480 LINE",
"666 544 LINE",
"555 544 LINE",
"610 747 LINE",
"538 747 LINE",
"483 544 LINE",
"296 544 LINE",
"349 740 LINE",
"276 740 LINE",
"223 544 LINE",
"93 544 LINE",
"93 480 LINE",
"206 480 LINE",
"142 244 LINE",
"12 244 LINE",
"12 180 LINE",
"125 180 LINE",
"76 0 LINE"
);
},
{
closed = 1;
nodes = (
"278 480 LINE",
"465 480 LINE",
"400 244 LINE",
"215 244 LINE"
);
}
);
width = 678;
},
{
hints = (
{
horizontal = 1;
place = "{163, 132}";
type = Stem;
},
{
horizontal = 1;
place = "{431, 132}";
type = Stem;
},
{
place = "{12, 684}";
type = Stem;
}
);
layerId = "3B5F2A21-9AC0-43BD-916B-7DC2040966BF";
paths = (
{
closed = 1;
nodes = (
"205 3 LINE",
"249 163 LINE",
"352 163 LINE",
"308 3 LINE",
"455 3 LINE",
"499 163 LINE",
"624 163 LINE",
"624 295 LINE",
"535 295 LINE",
"572 431 LINE",
"696 431 LINE",
"696 563 LINE",
"609 563 LINE",
"658 744 LINE",
"511 744 LINE",
"461 563 LINE",
"357 563 LINE",
"404 738 LINE",
"257 738 LINE",
"210 563 LINE",
"84 563 LINE",
"84 431 LINE",
"174 431 LINE",
"137 295 LINE",
"12 295 LINE",
"12 163 LINE",
"101 163 LINE",
"58 3 LINE"
);
},
{
closed = 1;
nodes = (
"321 431 LINE",
"425 431 LINE",
"388 295 LINE",
"285 295 LINE"
);
}
);
width = 708;
}
);
note = numbersign;
unicode = 0023;
},
{
glyphname = slash;
lastChange = "2023-07-27 12:03:26 +0000";
layers = (
{
hints = (
{
horizontal = 1;
place = "{-125, 862}";
type = Stem;
},
{
place = "{147, 316}";
type = Stem;
}
);
layerId = "1041D826-7B5A-4F1A-81FD-3B5FB25AF0FC";
paths = (
{
closed = 1;
nodes = (
"463 718 LINE",
"402 737 LINE",
"147 -107 LINE",
"209 -125 LINE"
);
}
);
width = 600;
},
{
hints = (
{
horizontal = 1;
place = "{-126, 864}";
type = Stem;
},
{
place = "{125, 360}";
type = Stem;
}
);
layerId = "3B5F2A21-9AC0-43BD-916B-7DC2040966BF";
paths = (
{
closed = 1;
nodes = (
"485 702 LINE",
"374 738 LINE",
"125 -92 LINE",
"236 -126 LINE"
);
}
);
width = 600;
}
);
leftKerningGroup = slash;
note = slash;
rightKerningGroup = slash;
unicode = 002F;
},
{
glyphname = hyphen;
lastChange = "2023-07-27 12:03:26 +0000";
layers = (
{
hints = (
{
horizontal = 1;
place = "{256, 62}";
type = Stem;
},
{
place = "{66, 366}";
type = Stem;
}
);
layerId = "1041D826-7B5A-4F1A-81FD-3B5FB25AF0FC";
paths = (
{
closed = 1;
nodes = (
"432 256 LINE",
"432 318 LINE",
"66 318 LINE",
"66 256 LINE"
);
}
);
width = 497;
},
{
hints = (
{
horizontal = 1;
place = "{220, 130}";
type = Stem;
},
{
place = "{68, 364}";
type = Stem;
}
);
layerId = "3B5F2A21-9AC0-43BD-916B-7DC2040966BF";
paths = (
{
closed = 1;
nodes = (
"432 220 LINE",
"432 350 LINE",
"68 350 LINE",
"68 220 LINE"
);
}
);
width = 499;
}
);
leftKerningGroup = hyphen;
note = hyphen;
rightKerningGroup = hyphen;
unicode = 002D;
},
{
glyphname = softhyphen;
lastChange = "2023-07-27 12:03:26 +0000";
layers = (
{
hints = (
{
horizontal = 1;
place = "{256, 62}";
type = Stem;
},
{
place = "{66, 366}";
type = Stem;
}
);
layerId = "1041D826-7B5A-4F1A-81FD-3B5FB25AF0FC";
paths = (
{
closed = 1;
nodes = (
"432 256 LINE",
"432 318 LINE",
"66 318 LINE",
"66 256 LINE"
);
}
);
width = 600;
},
{
hints = (
{
horizontal = 1;
place = "{220, 130}";
type = Stem;
},
{
place = "{68, 364}";
type = Stem;
}
);
layerId = "3B5F2A21-9AC0-43BD-916B-7DC2040966BF";
paths = (
{
closed = 1;
nodes = (
"432 220 LINE",
"432 350 LINE",
"68 350 LINE",
"68 220 LINE"
);
}
);
width = 600;
}
);
note = softhyphen;
unicode = 00AD;
},
{
glyphname = endash;
lastChange = "2023-07-27 12:03:26 +0000";
layers = (
{
hints = (
{
horizontal = 1;
place = "{283, 64}";
type = Stem;
},
{
place = "{113, 390}";
type = Stem;
}
);
layerId = "1041D826-7B5A-4F1A-81FD-3B5FB25AF0FC";
paths = (
{
closed = 1;
nodes = (
"503 283 LINE",
"503 347 LINE",
"113 347 LINE",
"113 283 LINE"
);
}
);
width = 600;
},
{
hints = (
{
horizontal = 1;
place = "{249, 132}";
type = Stem;
},
{
place = "{94, 428}";
type = Stem;
}
);
layerId = "3B5F2A21-9AC0-43BD-916B-7DC2040966BF";
paths = (
{
closed = 1;
nodes = (
"522 249 LINE",
"522 381 LINE",
"94 381 LINE",
"94 249 LINE"
);
}
);
width = 600;
}
);
leftKerningGroup = hyphen;
note = endash;
rightKerningGroup = hyphen;
unicode = 2013;
},
{
glyphname = emdash;
lastChange = "2023-07-27 12:03:26 +0000";
layers = (
{
hints = (
{
horizontal = 1;
place = "{283, 64}";
type = Stem;
},
{
place = "{14, 877}";
type = Stem;
}
);
layerId = "1041D826-7B5A-4F1A-81FD-3B5FB25AF0FC";
paths = (
{
closed = 1;
nodes = (
"891 283 LINE",
"891 347 LINE",
"14 347 LINE",
"14 283 LINE"
);
}
);
width = 906;
},
{
hints = (
{
horizontal = 1;
place = "{249, 132}";
type = Stem;
},
{
place = "{30, 845}";
type = Stem;
}
);
layerId = "3B5F2A21-9AC0-43BD-916B-7DC2040966BF";
paths = (
{
closed = 1;
nodes = (
"875 249 LINE",
"875 381 LINE",
"30 381 LINE",
"30 249 LINE"
);
}
);
width = 906;
}
);
leftKerningGroup = hyphen;
note = emdash;
rightKerningGroup = hyphen;
unicode = 2014;
},
{
glyphname = underscore;
lastChange = "2023-07-27 12:03:26 +0000";
layers = (
{
hints = (
{
horizontal = 1;
place = "{-127, 64}";
type = Stem;
},
{
place = "{35, 513}";
type = Stem;
}
);
layerId = "1041D826-7B5A-4F1A-81FD-3B5FB25AF0FC";
paths = (
{
closed = 1;
nodes = (
"548 -127 LINE",
"548 -63 LINE",
"35 -63 LINE",
"35 -127 LINE"
);
}
);
width = 600;
},
{
hints = (
{
horizontal = 1;
place = "{-161, 132}";
type = Stem;
},
{
place = "{22, 539}";
type = Stem;
}
);
layerId = "3B5F2A21-9AC0-43BD-916B-7DC2040966BF";
paths = (
{
closed = 1;
nodes = (
"561 -161 LINE",
"561 -29 LINE",
"22 -29 LINE",
"22 -161 LINE"
);
}
);
width = 600;
}
);
note = underscore;
unicode = 005F;
},
{
glyphname = parenleft;
lastChange = "2023-07-27 12:03:26 +0000";
layers = (
{
hints = (
{
horizontal = 1;
place = "{-127, 888}";
type = Stem;
},
{
place = "{50, 70}";
type = Stem;
}
);
layerId = "1041D826-7B5A-4F1A-81FD-3B5FB25AF0FC";
paths = (
{
closed = 1;
nodes = (
"239 -95 LINE",
"239 -95 OFFCURVE",
"120 107 OFFCURVE",
"120 325 CURVE SMOOTH",
"120 541 OFFCURVE",
"238 727 OFFCURVE",
"238 727 CURVE",
"179 761 LINE",
"179 761 OFFCURVE",
"50 559 OFFCURVE",
"50 325 CURVE SMOOTH",
"50 91 OFFCURVE",
"178 -127 OFFCURVE",
"178 -127 CURVE"
);
}
);
width = 264;
},
{
hints = (
{
horizontal = 1;
place = "{-98, 831}";
type = Stem;
},
{
place = "{50, 143}";
type = Stem;
}
);
layerId = "3B5F2A21-9AC0-43BD-916B-7DC2040966BF";
paths = (
{
closed = 1;
nodes = (
"294 -32 LINE",
"294 -32 OFFCURVE",
"193 139 OFFCURVE",
"193 324 CURVE SMOOTH",
"193 507 OFFCURVE",
"292 663 OFFCURVE",
"292 663 CURVE",
"171 733 LINE",
"171 733 OFFCURVE",
"50 543 OFFCURVE",
"50 324 CURVE SMOOTH",
"50 106 OFFCURVE",
"170 -98 OFFCURVE",
"170 -98 CURVE"
);
}
);
width = 324;
}
);
note = parenleft;
rightKerningGroup = parenleft;
unicode = 0028;
},
{
glyphname = parenright;
lastChange = "2023-07-27 12:03:26 +0000";
layers = (
{
hints = (
{
horizontal = 1;
place = "{-127, 888}";
type = Stem;
},
{
place = "{50, 189}";
type = Stem;
}
);
layerId = "1041D826-7B5A-4F1A-81FD-3B5FB25AF0FC";
paths = (
{
closed = 1;
nodes = (
"111 -127 OFFCURVE",
"239 91 OFFCURVE",
"239 325 CURVE SMOOTH",
"239 559 OFFCURVE",
"110 761 OFFCURVE",
"110 761 CURVE",
"51 727 LINE",
"51 727 OFFCURVE",
"169 541 OFFCURVE",
"169 325 CURVE SMOOTH",
"169 107 OFFCURVE",
"50 -95 OFFCURVE",
"50 -95 CURVE",
"111 -127 LINE"
);
}
);
width = 269;
},
{
hints = (
{
horizontal = 1;
place = "{-98, 831}";
type = Stem;
},
{
place = "{50, 244}";
type = Stem;
}
);
layerId = "3B5F2A21-9AC0-43BD-916B-7DC2040966BF";
paths = (
{
closed = 1;
nodes = (
"174 -98 OFFCURVE",
"294 106 OFFCURVE",
"294 324 CURVE SMOOTH",
"294 543 OFFCURVE",
"172 733 OFFCURVE",
"172 733 CURVE",
"51 663 LINE",
"51 663 OFFCURVE",
"151 507 OFFCURVE",
"151 324 CURVE SMOOTH",
"151 139 OFFCURVE",
"50 -32 OFFCURVE",
"50 -32 CURVE",
"174 -98 LINE"
);
}
);
width = 324;
}
);
leftKerningGroup = parenright;
note = parenright;
unicode = 0029;
},
{
glyphname = braceleft;
lastChange = "2023-07-27 12:03:26 +0000";
layers = (
{
hints = (
{
horizontal = 1;
place = "{-162, 63}";
type = Stem;
},
{
horizontal = 1;
place = "{286, 64}";
type = Stem;
},
{
horizontal = 1;
place = "{734, 63}";
type = Stem;
},
{
place = "{85, 76}";
type = Stem;
}
);
layerId = "1041D826-7B5A-4F1A-81FD-3B5FB25AF0FC";
paths = (
{
closed = 1;
nodes = (
"153 306 OFFCURVE",
"236 335 OFFCURVE",
"236 474 CURVE SMOOTH",
"236 529 OFFCURVE",
"230 588 OFFCURVE",
"230 640 CURVE SMOOTH",
"230 716 OFFCURVE",
"264 734 OFFCURVE",
"297 734 CURVE SMOOTH",
"323 734 OFFCURVE",
"347 725 OFFCURVE",
"355 721 CURVE",
"372 783 LINE",
"372 783 OFFCURVE",
"335 797 OFFCURVE",
"293 797 CURVE SMOOTH",
"232 797 OFFCURVE",
"160 770 OFFCURVE",
"160 640 CURVE SMOOTH",
"160 576 OFFCURVE",
"166 516 OFFCURVE",
"166 467 CURVE SMOOTH",
"166 397 OFFCURVE",
"159 350 OFFCURVE",
"50 350 CURVE",
"50 306 LINE"
);
},
{
closed = 1;
nodes = (
"50 286 LINE",
"159 286 OFFCURVE",
"166 239 OFFCURVE",
"166 169 CURVE SMOOTH",
"166 120 OFFCURVE",
"160 60 OFFCURVE",
"160 -4 CURVE SMOOTH",
"160 -134 OFFCURVE",
"232 -161 OFFCURVE",
"293 -161 CURVE SMOOTH",
"335 -161 OFFCURVE",
"372 -147 OFFCURVE",
"372 -147 CURVE",
"355 -85 LINE",
"347 -89 OFFCURVE",
"323 -98 OFFCURVE",
"297 -98 CURVE SMOOTH",
"264 -98 OFFCURVE",
"230 -80 OFFCURVE",
"230 -4 CURVE SMOOTH",
"230 48 OFFCURVE",
"236 107 OFFCURVE",
"236 162 CURVE SMOOTH",
"236 301 OFFCURVE",
"153 330 OFFCURVE",
"50 330 CURVE"
);
}
);
width = 417;
},
{
hints = (
{
horizontal = 1;
place = "{-158, 131}";
type = Stem;
},
{
horizontal = 1;
place = "{244, 127}";
type = Stem;
},
{
horizontal = 1;
place = "{641, 132}";
type = Stem;
},
{
place = "{78, 149}";
type = Stem;
}
);
layerId = "3B5F2A21-9AC0-43BD-916B-7DC2040966BF";
paths = (
{
closed = 1;
nodes = (
"139 290 OFFCURVE",
"282 311 OFFCURVE",
"282 445 CURVE SMOOTH",
"282 491 OFFCURVE",
"278 540 OFFCURVE",
"278 583 CURVE SMOOTH",
"278 646 OFFCURVE",
"297 661 OFFCURVE",
"322 661 CURVE SMOOTH",
"342 661 OFFCURVE",
"368 646 OFFCURVE",
"375 642 CURVE",
"413 774 LINE",
"413 774 OFFCURVE",
"365 797 OFFCURVE",
"283 797 CURVE SMOOTH",
"222 797 OFFCURVE",
"131 770 OFFCURVE",
"131 640 CURVE SMOOTH",
"131 576 OFFCURVE",
"137 516 OFFCURVE",
"137 467 CURVE SMOOTH",
"137 417 OFFCURVE",
"132 380 OFFCURVE",
"50 380 CURVE",
"50 290 LINE"
);
},
{
closed = 1;
nodes = (
"50 257 LINE",
"132 257 OFFCURVE",
"137 220 OFFCURVE",
"137 170 CURVE SMOOTH",
"137 121 OFFCURVE",
"131 61 OFFCURVE",
"131 -3 CURVE SMOOTH",
"131 -133 OFFCURVE",
"222 -160 OFFCURVE",
"283 -160 CURVE SMOOTH",
"365 -160 OFFCURVE",
"413 -137 OFFCURVE",
"413 -137 CURVE",
"375 -5 LINE",
"368 -9 OFFCURVE",
"342 -24 OFFCURVE",
"322 -24 CURVE SMOOTH",
"297 -24 OFFCURVE",
"278 -9 OFFCURVE",
"278 54 CURVE SMOOTH",
"278 97 OFFCURVE",
"282 146 OFFCURVE",
"282 192 CURVE SMOOTH",
"282 326 OFFCURVE",
"139 347 OFFCURVE",
"50 347 CURVE"
);
}
);
width = 453;
}
);
note = braceleft;
rightKerningGroup = bracketleft;
unicode = 007B;
},
